%TF.GenerationSoftware,KiCad,Pcbnew,8.0.1*%
%TF.CreationDate,2024-04-22T11:34:39+02:00*%
%TF.ProjectId,wuerfel,77756572-6665-46c2-9e6b-696361645f70,rev?*%
%TF.SameCoordinates,Original*%
%TF.FileFunction,Paste,Top*%
%TF.FilePolarity,Positive*%
%FSLAX46Y46*%
G04 Gerber Fmt 4.6, Leading zero omitted, Abs format (unit mm)*
G04 Created by KiCad (PCBNEW 8.0.1) date 2024-04-22 11:34:39*
%MOMM*%
%LPD*%
G01*
G04 APERTURE LIST*
G04 Aperture macros list*
%AMRoundRect*
0 Rectangle with rounded corners*
0 $1 Rounding radius*
0 $2 $3 $4 $5 $6 $7 $8 $9 X,Y pos of 4 corners*
0 Add a 4 corners polygon primitive as box body*
4,1,4,$2,$3,$4,$5,$6,$7,$8,$9,$2,$3,0*
0 Add four circle primitives for the rounded corners*
1,1,$1+$1,$2,$3*
1,1,$1+$1,$4,$5*
1,1,$1+$1,$6,$7*
1,1,$1+$1,$8,$9*
0 Add four rect primitives between the rounded corners*
20,1,$1+$1,$2,$3,$4,$5,0*
20,1,$1+$1,$4,$5,$6,$7,0*
20,1,$1+$1,$6,$7,$8,$9,0*
20,1,$1+$1,$8,$9,$2,$3,0*%
G04 Aperture macros list end*
%ADD10R,3.000000X1.500000*%
%ADD11R,1.525000X0.650000*%
%ADD12RoundRect,0.150000X0.587500X0.150000X-0.587500X0.150000X-0.587500X-0.150000X0.587500X-0.150000X0*%
%ADD13RoundRect,0.250000X-0.625000X0.400000X-0.625000X-0.400000X0.625000X-0.400000X0.625000X0.400000X0*%
%ADD14RoundRect,0.250000X-0.325000X-0.450000X0.325000X-0.450000X0.325000X0.450000X-0.325000X0.450000X0*%
%ADD15RoundRect,0.250000X0.325000X0.450000X-0.325000X0.450000X-0.325000X-0.450000X0.325000X-0.450000X0*%
%ADD16RoundRect,0.250000X0.625000X-0.400000X0.625000X0.400000X-0.625000X0.400000X-0.625000X-0.400000X0*%
%ADD17RoundRect,0.250000X0.450000X-0.325000X0.450000X0.325000X-0.450000X0.325000X-0.450000X-0.325000X0*%
%ADD18RoundRect,0.250000X0.337500X0.475000X-0.337500X0.475000X-0.337500X-0.475000X0.337500X-0.475000X0*%
%ADD19RoundRect,0.250000X0.400000X0.625000X-0.400000X0.625000X-0.400000X-0.625000X0.400000X-0.625000X0*%
%ADD20RoundRect,0.250000X-0.600000X0.400000X-0.600000X-0.400000X0.600000X-0.400000X0.600000X0.400000X0*%
%ADD21RoundRect,0.250000X0.400000X0.600000X-0.400000X0.600000X-0.400000X-0.600000X0.400000X-0.600000X0*%
%ADD22RoundRect,0.250000X-0.337500X-0.475000X0.337500X-0.475000X0.337500X0.475000X-0.337500X0.475000X0*%
G04 APERTURE END LIST*
D10*
%TO.C,SW1*%
X199175009Y-48750000D03*
X205175009Y-48750000D03*
X199175009Y-53250000D03*
X205175009Y-53250000D03*
%TD*%
D11*
%TO.C,IC1*%
X201848000Y-68453000D03*
X201848000Y-67183000D03*
X201848000Y-65913000D03*
X201848000Y-64643000D03*
X201848000Y-63373000D03*
X201848000Y-62103000D03*
X201848000Y-60833000D03*
X201848000Y-59563000D03*
X196424000Y-59563000D03*
X196424000Y-60833000D03*
X196424000Y-62103000D03*
X196424000Y-63373000D03*
X196424000Y-64643000D03*
X196424000Y-65913000D03*
X196424000Y-67183000D03*
X196424000Y-68453000D03*
%TD*%
D12*
%TO.C,Q1*%
X213146626Y-57863296D03*
X213146626Y-55963296D03*
X211271626Y-56913296D03*
%TD*%
D13*
%TO.C,R1*%
X212090000Y-61442000D03*
X212090000Y-64542000D03*
%TD*%
D14*
%TO.C,D6*%
X217373827Y-72939173D03*
X219423827Y-72939173D03*
%TD*%
D15*
%TO.C,D9*%
X238727827Y-72939173D03*
X236677827Y-72939173D03*
%TD*%
D14*
%TO.C,D4*%
X217452327Y-49571173D03*
X219502327Y-49571173D03*
%TD*%
D13*
%TO.C,R8*%
X214884000Y-71602000D03*
X214884000Y-74702000D03*
%TD*%
D16*
%TO.C,R6*%
X206756000Y-66574000D03*
X206756000Y-63474000D03*
%TD*%
D17*
%TO.C,D10*%
X228431827Y-62788173D03*
X228431827Y-60738173D03*
%TD*%
D18*
%TO.C,C2*%
X195537500Y-57404000D03*
X193462500Y-57404000D03*
%TD*%
D15*
%TO.C,D5*%
X219677827Y-61763173D03*
X217627827Y-61763173D03*
%TD*%
D19*
%TO.C,R7*%
X213894000Y-67564000D03*
X210794000Y-67564000D03*
%TD*%
D20*
%TO.C,D15*%
X209000000Y-71250000D03*
X209000000Y-74750000D03*
%TD*%
D19*
%TO.C,R3*%
X196550000Y-54864000D03*
X193450000Y-54864000D03*
%TD*%
%TO.C,R4*%
X196550000Y-52070000D03*
X193450000Y-52070000D03*
%TD*%
D13*
%TO.C,R5*%
X214884000Y-50950000D03*
X214884000Y-54050000D03*
%TD*%
D20*
%TO.C,D16*%
X211507969Y-71269008D03*
X211507969Y-74769008D03*
%TD*%
D15*
%TO.C,D8*%
X238727827Y-61763173D03*
X236677827Y-61763173D03*
%TD*%
%TO.C,D7*%
X238727827Y-49571173D03*
X236677827Y-49571173D03*
%TD*%
D16*
%TO.C,R2*%
X202000000Y-74550000D03*
X202000000Y-71450000D03*
%TD*%
D21*
%TO.C,D13*%
X208506000Y-59944000D03*
X205006000Y-59944000D03*
%TD*%
D20*
%TO.C,D14*%
X206000000Y-71250000D03*
X206000000Y-74750000D03*
%TD*%
D22*
%TO.C,C1*%
X195962500Y-71000000D03*
X198037500Y-71000000D03*
%TD*%
D21*
%TO.C,D17*%
X205204000Y-56134000D03*
X201704000Y-56134000D03*
%TD*%
M02*
