%TF.GenerationSoftware,KiCad,Pcbnew,8.0.1*%
%TF.CreationDate,2024-04-22T11:34:38+02:00*%
%TF.ProjectId,wuerfel,77756572-6665-46c2-9e6b-696361645f70,rev?*%
%TF.SameCoordinates,Original*%
%TF.FileFunction,Copper,L1,Top*%
%TF.FilePolarity,Positive*%
%FSLAX46Y46*%
G04 Gerber Fmt 4.6, Leading zero omitted, Abs format (unit mm)*
G04 Created by KiCad (PCBNEW 8.0.1) date 2024-04-22 11:34:38*
%MOMM*%
%LPD*%
G01*
G04 APERTURE LIST*
G04 Aperture macros list*
%AMRoundRect*
0 Rectangle with rounded corners*
0 $1 Rounding radius*
0 $2 $3 $4 $5 $6 $7 $8 $9 X,Y pos of 4 corners*
0 Add a 4 corners polygon primitive as box body*
4,1,4,$2,$3,$4,$5,$6,$7,$8,$9,$2,$3,0*
0 Add four circle primitives for the rounded corners*
1,1,$1+$1,$2,$3*
1,1,$1+$1,$4,$5*
1,1,$1+$1,$6,$7*
1,1,$1+$1,$8,$9*
0 Add four rect primitives between the rounded corners*
20,1,$1+$1,$2,$3,$4,$5,0*
20,1,$1+$1,$4,$5,$6,$7,0*
20,1,$1+$1,$6,$7,$8,$9,0*
20,1,$1+$1,$8,$9,$2,$3,0*%
G04 Aperture macros list end*
%TA.AperFunction,SMDPad,CuDef*%
%ADD10R,3.000000X1.500000*%
%TD*%
%TA.AperFunction,SMDPad,CuDef*%
%ADD11R,1.525000X0.650000*%
%TD*%
%TA.AperFunction,SMDPad,CuDef*%
%ADD12RoundRect,0.150000X0.587500X0.150000X-0.587500X0.150000X-0.587500X-0.150000X0.587500X-0.150000X0*%
%TD*%
%TA.AperFunction,SMDPad,CuDef*%
%ADD13RoundRect,0.250000X-0.625000X0.400000X-0.625000X-0.400000X0.625000X-0.400000X0.625000X0.400000X0*%
%TD*%
%TA.AperFunction,SMDPad,CuDef*%
%ADD14RoundRect,0.250000X-0.325000X-0.450000X0.325000X-0.450000X0.325000X0.450000X-0.325000X0.450000X0*%
%TD*%
%TA.AperFunction,SMDPad,CuDef*%
%ADD15RoundRect,0.250000X0.325000X0.450000X-0.325000X0.450000X-0.325000X-0.450000X0.325000X-0.450000X0*%
%TD*%
%TA.AperFunction,SMDPad,CuDef*%
%ADD16RoundRect,0.250000X0.625000X-0.400000X0.625000X0.400000X-0.625000X0.400000X-0.625000X-0.400000X0*%
%TD*%
%TA.AperFunction,SMDPad,CuDef*%
%ADD17RoundRect,0.250000X0.450000X-0.325000X0.450000X0.325000X-0.450000X0.325000X-0.450000X-0.325000X0*%
%TD*%
%TA.AperFunction,SMDPad,CuDef*%
%ADD18RoundRect,0.250000X0.337500X0.475000X-0.337500X0.475000X-0.337500X-0.475000X0.337500X-0.475000X0*%
%TD*%
%TA.AperFunction,SMDPad,CuDef*%
%ADD19RoundRect,0.250000X0.400000X0.625000X-0.400000X0.625000X-0.400000X-0.625000X0.400000X-0.625000X0*%
%TD*%
%TA.AperFunction,SMDPad,CuDef*%
%ADD20RoundRect,0.250000X-0.600000X0.400000X-0.600000X-0.400000X0.600000X-0.400000X0.600000X0.400000X0*%
%TD*%
%TA.AperFunction,SMDPad,CuDef*%
%ADD21RoundRect,0.250000X0.400000X0.600000X-0.400000X0.600000X-0.400000X-0.600000X0.400000X-0.600000X0*%
%TD*%
%TA.AperFunction,ComponentPad*%
%ADD22R,1.700000X1.700000*%
%TD*%
%TA.AperFunction,ComponentPad*%
%ADD23O,1.700000X1.700000*%
%TD*%
%TA.AperFunction,SMDPad,CuDef*%
%ADD24RoundRect,0.250000X-0.337500X-0.475000X0.337500X-0.475000X0.337500X0.475000X-0.337500X0.475000X0*%
%TD*%
%TA.AperFunction,ViaPad*%
%ADD25C,1.600000*%
%TD*%
%TA.AperFunction,Conductor*%
%ADD26C,0.400000*%
%TD*%
G04 APERTURE END LIST*
D10*
%TO.P,SW1,1,1*%
%TO.N,GND*%
X199175009Y-48750000D03*
X205175009Y-48750000D03*
%TO.P,SW1,2,2*%
X199175009Y-53250000D03*
X205175009Y-53250000D03*
%TD*%
D11*
%TO.P,IC1,1,Q12*%
%TO.N,unconnected-(IC1-Q12-Pad1)*%
X201848000Y-68453000D03*
%TO.P,IC1,2,Q13*%
%TO.N,unconnected-(IC1-Q13-Pad2)*%
X201848000Y-67183000D03*
%TO.P,IC1,3,Q14*%
%TO.N,unconnected-(IC1-Q14-Pad3)*%
X201848000Y-65913000D03*
%TO.P,IC1,4,Q6*%
%TO.N,Net-(D14-K)*%
X201848000Y-64643000D03*
%TO.P,IC1,5,Q5*%
%TO.N,Net-(D15-K)*%
X201848000Y-63373000D03*
%TO.P,IC1,6,Q7*%
%TO.N,unconnected-(IC1-Q7-Pad6)*%
X201848000Y-62103000D03*
%TO.P,IC1,7,Q4*%
%TO.N,Net-(D13-A)*%
X201848000Y-60833000D03*
%TO.P,IC1,8,GND*%
%TO.N,GND*%
X201848000Y-59563000D03*
%TO.P,IC1,9,~{[Oslash]O}*%
%TO.N,Net-(IC1-~{[Oslash]O})*%
X196424000Y-59563000D03*
%TO.P,IC1,10,[Oslash]O*%
%TO.N,Net-(IC1-[Oslash]O)*%
X196424000Y-60833000D03*
%TO.P,IC1,11,~{[Oslash]I}*%
%TO.N,GND*%
X196424000Y-62103000D03*
%TO.P,IC1,12,CLEAR*%
%TO.N,Net-(D14-A)*%
X196424000Y-63373000D03*
%TO.P,IC1,13,Q9*%
%TO.N,unconnected-(IC1-Q9-Pad13)*%
X196424000Y-64643000D03*
%TO.P,IC1,14,Q8*%
%TO.N,unconnected-(IC1-Q8-Pad14)*%
X196424000Y-65913000D03*
%TO.P,IC1,15,Q10*%
%TO.N,unconnected-(IC1-Q10-Pad15)*%
X196424000Y-67183000D03*
%TO.P,IC1,16,VCC*%
%TO.N,+5V*%
X196424000Y-68453000D03*
%TD*%
D12*
%TO.P,Q1,1,B*%
%TO.N,Net-(Q1-B)*%
X213146626Y-57863296D03*
%TO.P,Q1,2,E*%
%TO.N,+5V*%
X213146626Y-55963296D03*
%TO.P,Q1,3,C*%
%TO.N,Net-(D10-A)*%
X211271626Y-56913296D03*
%TD*%
D13*
%TO.P,R1,1*%
%TO.N,Net-(Q1-B)*%
X212090000Y-61442000D03*
%TO.P,R1,2*%
%TO.N,Net-(D15-K)*%
X212090000Y-64542000D03*
%TD*%
D14*
%TO.P,D6,1,K*%
%TO.N,Net-(D6-K)*%
X217373827Y-72939173D03*
%TO.P,D6,2,A*%
%TO.N,Net-(D6-A)*%
X219423827Y-72939173D03*
%TD*%
D15*
%TO.P,D9,1,K*%
%TO.N,Net-(D9-K)*%
X238727827Y-72939173D03*
%TO.P,D9,2,A*%
%TO.N,Net-(D4-K)*%
X236677827Y-72939173D03*
%TD*%
D14*
%TO.P,D4,1,K*%
%TO.N,Net-(D4-K)*%
X217452327Y-49571173D03*
%TO.P,D4,2,A*%
%TO.N,+5V*%
X219502327Y-49571173D03*
%TD*%
D13*
%TO.P,R8,1*%
%TO.N,Net-(D9-K)*%
X214884000Y-71602000D03*
%TO.P,R8,2*%
%TO.N,Net-(D16-A)*%
X214884000Y-74702000D03*
%TD*%
D16*
%TO.P,R6,1*%
%TO.N,Net-(D6-K)*%
X206756000Y-66574000D03*
%TO.P,R6,2*%
%TO.N,Net-(D13-A)*%
X206756000Y-63474000D03*
%TD*%
D17*
%TO.P,D10,1,K*%
%TO.N,Net-(D10-K)*%
X228431827Y-62788173D03*
%TO.P,D10,2,A*%
%TO.N,Net-(D10-A)*%
X228431827Y-60738173D03*
%TD*%
D18*
%TO.P,C2,1*%
%TO.N,Net-(IC1-~{[Oslash]O})*%
X195537500Y-57404000D03*
%TO.P,C2,2*%
%TO.N,Net-(C2-Pad2)*%
X193462500Y-57404000D03*
%TD*%
D15*
%TO.P,D5,1,K*%
%TO.N,Net-(D5-K)*%
X219677827Y-61763173D03*
%TO.P,D5,2,A*%
%TO.N,Net-(D15-K)*%
X217627827Y-61763173D03*
%TD*%
D19*
%TO.P,R7,1*%
%TO.N,Net-(D10-K)*%
X213894000Y-67564000D03*
%TO.P,R7,2*%
%TO.N,Net-(D14-K)*%
X210794000Y-67564000D03*
%TD*%
D20*
%TO.P,D15,1,K*%
%TO.N,Net-(D15-K)*%
X209000000Y-71250000D03*
%TO.P,D15,2,A*%
%TO.N,Net-(D14-A)*%
X209000000Y-74750000D03*
%TD*%
D19*
%TO.P,R3,1*%
%TO.N,Net-(IC1-[Oslash]O)*%
X196550000Y-54864000D03*
%TO.P,R3,2*%
%TO.N,Net-(C2-Pad2)*%
X193450000Y-54864000D03*
%TD*%
%TO.P,R4,1*%
%TO.N,GND*%
X196550000Y-52070000D03*
%TO.P,R4,2*%
%TO.N,Net-(C2-Pad2)*%
X193450000Y-52070000D03*
%TD*%
D13*
%TO.P,R5,1*%
%TO.N,Net-(D13-A)*%
X214884000Y-50950000D03*
%TO.P,R5,2*%
%TO.N,Net-(D8-K)*%
X214884000Y-54050000D03*
%TD*%
D20*
%TO.P,D16,1,K*%
%TO.N,Net-(D15-K)*%
X211507969Y-71269008D03*
%TO.P,D16,2,A*%
%TO.N,Net-(D16-A)*%
X211507969Y-74769008D03*
%TD*%
D15*
%TO.P,D8,1,K*%
%TO.N,Net-(D8-K)*%
X238727827Y-61763173D03*
%TO.P,D8,2,A*%
%TO.N,Net-(D5-K)*%
X236677827Y-61763173D03*
%TD*%
%TO.P,D7,1,K*%
%TO.N,Net-(D6-A)*%
X238727827Y-49571173D03*
%TO.P,D7,2,A*%
%TO.N,+5V*%
X236677827Y-49571173D03*
%TD*%
D16*
%TO.P,R2,1*%
%TO.N,+5V*%
X202000000Y-74550000D03*
%TO.P,R2,2*%
%TO.N,Net-(D14-A)*%
X202000000Y-71450000D03*
%TD*%
D21*
%TO.P,D13,1,K*%
%TO.N,Net-(D10-A)*%
X208506000Y-59944000D03*
%TO.P,D13,2,A*%
%TO.N,Net-(D13-A)*%
X205006000Y-59944000D03*
%TD*%
D20*
%TO.P,D14,1,K*%
%TO.N,Net-(D14-K)*%
X206000000Y-71250000D03*
%TO.P,D14,2,A*%
%TO.N,Net-(D14-A)*%
X206000000Y-74750000D03*
%TD*%
D22*
%TO.P,J1,1*%
%TO.N,+5V*%
X193040000Y-65532000D03*
D23*
%TO.P,J1,2*%
%TO.N,GND*%
X193040000Y-62992000D03*
%TD*%
D24*
%TO.P,C1,1*%
%TO.N,+5V*%
X195962500Y-71000000D03*
%TO.P,C1,2*%
%TO.N,GND*%
X198037500Y-71000000D03*
%TD*%
D21*
%TO.P,D17,1,K*%
%TO.N,Net-(D13-A)*%
X205204000Y-56134000D03*
%TO.P,D17,2,A*%
%TO.N,Net-(D16-A)*%
X201704000Y-56134000D03*
%TD*%
D25*
%TO.N,GND*%
X203000000Y-58000000D03*
X200000000Y-71162000D03*
%TD*%
D26*
%TO.N,GND*%
X207038000Y-48038000D02*
X208280000Y-49280000D01*
X208280000Y-49280000D02*
X208280000Y-52324000D01*
X195404000Y-48038000D02*
X207038000Y-48038000D01*
X204470000Y-54102000D02*
X203454000Y-55118000D01*
X195000000Y-56202834D02*
X195000000Y-48442000D01*
X193000000Y-62952000D02*
X193000000Y-61000000D01*
X194550000Y-58450000D02*
X194550000Y-56652834D01*
X194000000Y-59000000D02*
X194550000Y-58450000D01*
X208280000Y-52324000D02*
X206502000Y-54102000D01*
X195000000Y-48442000D02*
X195404000Y-48038000D01*
X194550000Y-56652834D02*
X195000000Y-56202834D01*
X194000000Y-60000000D02*
X194000000Y-59000000D01*
X193000000Y-61000000D02*
X194000000Y-60000000D01*
X193040000Y-62992000D02*
X193000000Y-62952000D01*
X206502000Y-54102000D02*
X204470000Y-54102000D01*
X203454000Y-55118000D02*
X203454000Y-57957000D01*
%TO.N,+5V*%
X196424000Y-68453000D02*
X196403500Y-68432500D01*
X196403500Y-68432500D02*
X194670500Y-68432500D01*
X194670500Y-68432500D02*
X193040000Y-66802000D01*
X193040000Y-66802000D02*
X193040000Y-65532000D01*
%TO.N,GND*%
X199175009Y-53250000D02*
X205175009Y-53250000D01*
X196550000Y-52070000D02*
X196550000Y-52550000D01*
X196550000Y-52550000D02*
X197250000Y-53250000D01*
X197250000Y-53250000D02*
X199175009Y-53250000D01*
X196424000Y-62103000D02*
X197993000Y-62103000D01*
X197993000Y-62103000D02*
X198882000Y-61214000D01*
X198882000Y-61214000D02*
X198882000Y-53543009D01*
X198882000Y-53543009D02*
X199175009Y-53250000D01*
X201848000Y-59152000D02*
X203000000Y-58000000D01*
X201848000Y-59563000D02*
X201848000Y-59152000D01*
X199838000Y-71000000D02*
X200000000Y-71162000D01*
X198037500Y-71000000D02*
X199838000Y-71000000D01*
%TO.N,Net-(D14-A)*%
X202000000Y-71450000D02*
X203425306Y-71450000D01*
X203425306Y-71450000D02*
X204000000Y-72024694D01*
X204000000Y-72024694D02*
X204000000Y-74152000D01*
X204000000Y-74152000D02*
X204598000Y-74750000D01*
X204598000Y-74750000D02*
X206000000Y-74750000D01*
X196424000Y-63373000D02*
X197993000Y-63373000D01*
X197993000Y-63373000D02*
X199136000Y-64516000D01*
X199136000Y-64516000D02*
X199136000Y-69723000D01*
X199136000Y-69723000D02*
X199375000Y-69962000D01*
X199375000Y-69962000D02*
X200512000Y-69962000D01*
X200512000Y-69962000D02*
X202000000Y-71450000D01*
%TO.N,Net-(D13-A)*%
X205204000Y-56134000D02*
X206756000Y-56134000D01*
X217452421Y-51369500D02*
X214884000Y-51369500D01*
X206756000Y-56134000D02*
X210000000Y-52890000D01*
X210000000Y-52890000D02*
X210000000Y-50350000D01*
X218486570Y-50335351D02*
X217452421Y-51369500D01*
X210000000Y-50350000D02*
X212174000Y-48176000D01*
X218142190Y-48176000D02*
X218486570Y-48520380D01*
X212174000Y-48176000D02*
X218142190Y-48176000D01*
X218486570Y-48520380D02*
X218486570Y-50335351D01*
%TO.N,+5V*%
X208661500Y-47138000D02*
X194162000Y-47138000D01*
X194162000Y-47138000D02*
X191516000Y-49784000D01*
X191516000Y-49784000D02*
X191516000Y-64008000D01*
X191516000Y-64008000D02*
X193040000Y-65532000D01*
%TO.N,Net-(D9-K)*%
X214884000Y-71689500D02*
X215199500Y-71374000D01*
X215199500Y-71374000D02*
X229374000Y-71374000D01*
X237540327Y-74039173D02*
X238640327Y-72939173D01*
X229374000Y-71374000D02*
X232039173Y-74039173D01*
X232039173Y-74039173D02*
X237540327Y-74039173D01*
%TO.N,+5V*%
X219414827Y-49571173D02*
X219414827Y-51585173D01*
X214200000Y-52500000D02*
X213281500Y-53418500D01*
X219414827Y-51585173D02*
X218500000Y-52500000D01*
X213281500Y-53418500D02*
X213281500Y-55946000D01*
X218500000Y-52500000D02*
X214200000Y-52500000D01*
X219139457Y-47139457D02*
X219414827Y-47414827D01*
X208704543Y-47139457D02*
X219139457Y-47139457D01*
X219414827Y-47414827D02*
X219414827Y-49571173D01*
%TO.N,Net-(D6-K)*%
X206756000Y-66574000D02*
X207652000Y-67470000D01*
X207652000Y-67470000D02*
X207652000Y-72240083D01*
X207652000Y-72240083D02*
X208351090Y-72939173D01*
X208351090Y-72939173D02*
X217461327Y-72939173D01*
%TO.N,Net-(D16-A)*%
X201704000Y-56134000D02*
X201704000Y-56360000D01*
X206363007Y-73539173D02*
X210278134Y-73539173D01*
X201704000Y-56360000D02*
X199828000Y-58236000D01*
X199828000Y-58236000D02*
X199828000Y-68764000D01*
X199828000Y-68764000D02*
X200426000Y-69362000D01*
X204000000Y-71176166D02*
X206363007Y-73539173D01*
X200426000Y-69362000D02*
X203362000Y-69362000D01*
X203362000Y-69362000D02*
X204000000Y-70000000D01*
X204000000Y-70000000D02*
X204000000Y-71176166D01*
X210278134Y-73539173D02*
X211507969Y-74769008D01*
%TO.N,Net-(D14-K)*%
X204724000Y-65278000D02*
X207772000Y-65278000D01*
X210881500Y-65881500D02*
X210881500Y-67564000D01*
X207772000Y-65278000D02*
X207926000Y-65124000D01*
X207926000Y-65124000D02*
X210124000Y-65124000D01*
X210124000Y-65124000D02*
X210881500Y-65881500D01*
X206000000Y-71250000D02*
X206000000Y-70600000D01*
X206000000Y-70600000D02*
X204724000Y-69324000D01*
X204724000Y-69324000D02*
X204724000Y-65278000D01*
%TO.N,Net-(D14-A)*%
X208848000Y-74750000D02*
X209000000Y-74902000D01*
X206000000Y-74750000D02*
X208848000Y-74750000D01*
%TO.N,Net-(D15-K)*%
X209000000Y-71250000D02*
X211734000Y-71250000D01*
X211734000Y-71250000D02*
X211844000Y-71140000D01*
X211844000Y-71140000D02*
X211844000Y-64700500D01*
X211844000Y-64700500D02*
X212090000Y-64454500D01*
%TO.N,+5V*%
X231606827Y-49571173D02*
X234654827Y-49571173D01*
X234654827Y-49571173D02*
X236765327Y-49571173D01*
X219414827Y-49571173D02*
X231606827Y-49571173D01*
%TO.N,Net-(IC1-~{[Oslash]O})*%
X195260000Y-57404000D02*
X196424000Y-58568000D01*
X196424000Y-58568000D02*
X196424000Y-59563000D01*
%TO.N,Net-(C2-Pad2)*%
X193355500Y-52070000D02*
X193548000Y-52262500D01*
X193548000Y-57216000D02*
X193360000Y-57404000D01*
X193548000Y-52262500D02*
X193548000Y-57216000D01*
%TO.N,Net-(D4-K)*%
X211328000Y-51562000D02*
X211328000Y-53340000D01*
X217539827Y-49571173D02*
X217244654Y-49276000D01*
X211328000Y-53340000D02*
X206756000Y-57912000D01*
X212852000Y-69342000D02*
X233168154Y-69342000D01*
X215556900Y-65532000D02*
X213614000Y-65532000D01*
X206756000Y-57912000D02*
X206756000Y-60706000D01*
X213484239Y-62992000D02*
X215813066Y-60663173D01*
X212844000Y-69334000D02*
X212852000Y-69342000D01*
X212844000Y-66302000D02*
X212844000Y-69334000D01*
X206756000Y-60706000D02*
X209042000Y-62992000D01*
X217244654Y-49276000D02*
X213614000Y-49276000D01*
X218225727Y-60663173D02*
X218602827Y-61040273D01*
X209042000Y-62992000D02*
X213484239Y-62992000D01*
X233168154Y-69342000D02*
X236765327Y-72939173D01*
X218602827Y-61040273D02*
X218602827Y-62486073D01*
X215813066Y-60663173D02*
X218225727Y-60663173D01*
X213614000Y-49276000D02*
X211328000Y-51562000D01*
X213614000Y-65532000D02*
X212844000Y-66302000D01*
X218602827Y-62486073D02*
X215556900Y-65532000D01*
%TO.N,Net-(D5-K)*%
X219590327Y-61763173D02*
X233638827Y-61763173D01*
X233638827Y-61763173D02*
X236765327Y-61763173D01*
%TO.N,Net-(D15-K)*%
X212090000Y-64454500D02*
X212020500Y-64524000D01*
X212020500Y-64524000D02*
X204986000Y-64524000D01*
X203835000Y-63373000D02*
X201848000Y-63373000D01*
X217715327Y-61763173D02*
X216366827Y-61763173D01*
X204986000Y-64524000D02*
X203835000Y-63373000D01*
X213675500Y-64454500D02*
X212090000Y-64454500D01*
X216366827Y-61763173D02*
X213675500Y-64454500D01*
%TO.N,Net-(D6-A)*%
X238640327Y-49571173D02*
X239776000Y-50706846D01*
X239776000Y-73660000D02*
X238760000Y-74676000D01*
X239776000Y-50706846D02*
X239776000Y-73660000D01*
X221073154Y-74676000D02*
X219336327Y-72939173D01*
X238760000Y-74676000D02*
X221073154Y-74676000D01*
%TO.N,Net-(D8-K)*%
X214884000Y-54294500D02*
X232815327Y-54294500D01*
X232815327Y-54294500D02*
X238640327Y-60119500D01*
X238640327Y-60119500D02*
X238640327Y-61763173D01*
%TO.N,Net-(D10-K)*%
X228383327Y-62700673D02*
X228431827Y-62700673D01*
X223520000Y-67564000D02*
X228383327Y-62700673D01*
X213806500Y-67564000D02*
X223520000Y-67564000D01*
%TO.N,Net-(D10-A)*%
X210058000Y-56896000D02*
X211406500Y-56896000D01*
X208506000Y-59944000D02*
X208506000Y-58448000D01*
X208506000Y-58448000D02*
X210058000Y-56896000D01*
X228211673Y-60825673D02*
X228431827Y-60825673D01*
X224282000Y-56896000D02*
X228211673Y-60825673D01*
X211406500Y-56896000D02*
X224282000Y-56896000D01*
%TO.N,Net-(D13-A)*%
X203327000Y-60833000D02*
X201848000Y-60833000D01*
X206563500Y-63561500D02*
X204470000Y-61468000D01*
X204470000Y-58166000D02*
X204470000Y-60833000D01*
X204470000Y-61468000D02*
X204470000Y-60833000D01*
X204470000Y-60833000D02*
X203327000Y-60833000D01*
X205204000Y-57432000D02*
X204470000Y-58166000D01*
X206756000Y-63561500D02*
X206563500Y-63561500D01*
X205204000Y-56134000D02*
X205204000Y-57432000D01*
%TO.N,Net-(D14-K)*%
X201848000Y-64643000D02*
X204089000Y-64643000D01*
X204089000Y-64643000D02*
X204724000Y-65278000D01*
%TO.N,Net-(D16-A)*%
X214568500Y-74930000D02*
X214884000Y-74614500D01*
X212118000Y-74930000D02*
X214568500Y-74930000D01*
X211482000Y-75002000D02*
X211836000Y-74648000D01*
X211836000Y-74648000D02*
X212118000Y-74930000D01*
%TO.N,Net-(IC1-[Oslash]O)*%
X198120000Y-60198000D02*
X197485000Y-60833000D01*
X198120000Y-56703500D02*
X198120000Y-60198000D01*
X197485000Y-60833000D02*
X196424000Y-60833000D01*
X196280500Y-54864000D02*
X198120000Y-56703500D01*
%TO.N,Net-(Q1-B)*%
X212090000Y-61529500D02*
X212090000Y-58420000D01*
X212664000Y-57846000D02*
X213281500Y-57846000D01*
X212090000Y-58420000D02*
X212664000Y-57846000D01*
%TD*%
%TA.AperFunction,Conductor*%
%TO.N,GND*%
G36*
X197118048Y-48019685D02*
G01*
X197163803Y-48072489D01*
X197175009Y-48124000D01*
X197175009Y-48500000D01*
X201175009Y-48500000D01*
X201175009Y-48124000D01*
X201194694Y-48056961D01*
X201247498Y-48011206D01*
X201299009Y-48000000D01*
X203051009Y-48000000D01*
X203118048Y-48019685D01*
X203163803Y-48072489D01*
X203175009Y-48124000D01*
X203175009Y-48500000D01*
X207175009Y-48500000D01*
X207175009Y-48124000D01*
X207194694Y-48056961D01*
X207247498Y-48011206D01*
X207299009Y-48000000D01*
X211059981Y-48000000D01*
X211127020Y-48019685D01*
X211172775Y-48072489D01*
X211182719Y-48141647D01*
X211153694Y-48205203D01*
X211147662Y-48211681D01*
X209455888Y-49903453D01*
X209455887Y-49903454D01*
X209379222Y-50018192D01*
X209326421Y-50145667D01*
X209326418Y-50145677D01*
X209299500Y-50281004D01*
X209299500Y-52548481D01*
X209279815Y-52615520D01*
X209263181Y-52636162D01*
X206529493Y-55369849D01*
X206468170Y-55403334D01*
X206398478Y-55398350D01*
X206342545Y-55356478D01*
X206324107Y-55321175D01*
X206288814Y-55214666D01*
X206196712Y-55065344D01*
X206072656Y-54941288D01*
X205923334Y-54849186D01*
X205756797Y-54794001D01*
X205756795Y-54794000D01*
X205654010Y-54783500D01*
X204753998Y-54783500D01*
X204753980Y-54783501D01*
X204651203Y-54794000D01*
X204651200Y-54794001D01*
X204484668Y-54849185D01*
X204484663Y-54849187D01*
X204335342Y-54941289D01*
X204211289Y-55065342D01*
X204119187Y-55214663D01*
X204119186Y-55214666D01*
X204064001Y-55381203D01*
X204064001Y-55381204D01*
X204064000Y-55381204D01*
X204053500Y-55483983D01*
X204053500Y-56784001D01*
X204053501Y-56784018D01*
X204064000Y-56886796D01*
X204064001Y-56886799D01*
X204119185Y-57053331D01*
X204119187Y-57053336D01*
X204211289Y-57202657D01*
X204239306Y-57230674D01*
X204272791Y-57291997D01*
X204267807Y-57361689D01*
X204239306Y-57406036D01*
X203925888Y-57719454D01*
X203925882Y-57719462D01*
X203887433Y-57777006D01*
X203887433Y-57777007D01*
X203868329Y-57805598D01*
X203849225Y-57834188D01*
X203849221Y-57834195D01*
X203796421Y-57961667D01*
X203796418Y-57961677D01*
X203769500Y-58097004D01*
X203769500Y-60008500D01*
X203749815Y-60075539D01*
X203697011Y-60121294D01*
X203645500Y-60132500D01*
X203227401Y-60132500D01*
X203160362Y-60112815D01*
X203114607Y-60060011D01*
X203104112Y-59995243D01*
X203110499Y-59935841D01*
X203110500Y-59935827D01*
X203110500Y-59813000D01*
X201722000Y-59813000D01*
X201654961Y-59793315D01*
X201609206Y-59740511D01*
X201598000Y-59689000D01*
X201598000Y-58738000D01*
X202098000Y-58738000D01*
X202098000Y-59313000D01*
X203110500Y-59313000D01*
X203110500Y-59190172D01*
X203110499Y-59190155D01*
X203104098Y-59130627D01*
X203104096Y-59130620D01*
X203053854Y-58995913D01*
X203053850Y-58995906D01*
X202967690Y-58880812D01*
X202967687Y-58880809D01*
X202852593Y-58794649D01*
X202852586Y-58794645D01*
X202717879Y-58744403D01*
X202717872Y-58744401D01*
X202658344Y-58738000D01*
X202098000Y-58738000D01*
X201598000Y-58738000D01*
X201037655Y-58738000D01*
X200978127Y-58744401D01*
X200978120Y-58744403D01*
X200843413Y-58794645D01*
X200843411Y-58794646D01*
X200726811Y-58881934D01*
X200661347Y-58906351D01*
X200593074Y-58891500D01*
X200543668Y-58842095D01*
X200528500Y-58782667D01*
X200528500Y-58577518D01*
X200548185Y-58510479D01*
X200564814Y-58489841D01*
X201533838Y-57520817D01*
X201595161Y-57487333D01*
X201621519Y-57484499D01*
X202154002Y-57484499D01*
X202154008Y-57484499D01*
X202256797Y-57473999D01*
X202423334Y-57418814D01*
X202572656Y-57326712D01*
X202696712Y-57202656D01*
X202788814Y-57053334D01*
X202843999Y-56886797D01*
X202854500Y-56784009D01*
X202854499Y-55483992D01*
X202843999Y-55381203D01*
X202788814Y-55214666D01*
X202696712Y-55065344D01*
X202572656Y-54941288D01*
X202423334Y-54849186D01*
X202256797Y-54794001D01*
X202256795Y-54794000D01*
X202154010Y-54783500D01*
X201253998Y-54783500D01*
X201253980Y-54783501D01*
X201151203Y-54794000D01*
X201151200Y-54794001D01*
X200984668Y-54849185D01*
X200984663Y-54849187D01*
X200835342Y-54941289D01*
X200711289Y-55065342D01*
X200619187Y-55214663D01*
X200619186Y-55214666D01*
X200564001Y-55381203D01*
X200564001Y-55381204D01*
X200564000Y-55381204D01*
X200553500Y-55483983D01*
X200553500Y-56468480D01*
X200533815Y-56535519D01*
X200517181Y-56556161D01*
X199283888Y-57789453D01*
X199283887Y-57789454D01*
X199207222Y-57904192D01*
X199154421Y-58031667D01*
X199154418Y-58031679D01*
X199136561Y-58121455D01*
X199136561Y-58121458D01*
X199127500Y-58167006D01*
X199127500Y-63217480D01*
X199107815Y-63284519D01*
X199055011Y-63330274D01*
X198985853Y-63340218D01*
X198922297Y-63311193D01*
X198915819Y-63305161D01*
X198439545Y-62828887D01*
X198324807Y-62752222D01*
X198197332Y-62699421D01*
X198197322Y-62699418D01*
X198061996Y-62672500D01*
X198061994Y-62672500D01*
X198061993Y-62672500D01*
X197803401Y-62672500D01*
X197736362Y-62652815D01*
X197690607Y-62600011D01*
X197680112Y-62535243D01*
X197686499Y-62475841D01*
X197686500Y-62475827D01*
X197686500Y-62353000D01*
X195161500Y-62353000D01*
X195161500Y-62475844D01*
X195167901Y-62535372D01*
X195167903Y-62535379D01*
X195218145Y-62670086D01*
X195222397Y-62677872D01*
X195219179Y-62679628D01*
X195237477Y-62728976D01*
X195222493Y-62797220D01*
X195221335Y-62799018D01*
X195217702Y-62805671D01*
X195167410Y-62940513D01*
X195167409Y-62940517D01*
X195161000Y-63000127D01*
X195161000Y-63000134D01*
X195161000Y-63000135D01*
X195161000Y-63745870D01*
X195161001Y-63745876D01*
X195167408Y-63805483D01*
X195217702Y-63940328D01*
X195221954Y-63948114D01*
X195218780Y-63949846D01*
X195237159Y-63999302D01*
X195222225Y-64067557D01*
X195221617Y-64068502D01*
X195217702Y-64075671D01*
X195175841Y-64187909D01*
X195167409Y-64210517D01*
X195161000Y-64270127D01*
X195161000Y-64270134D01*
X195161000Y-64270135D01*
X195161000Y-65015870D01*
X195161001Y-65015876D01*
X195167409Y-65075484D01*
X195219748Y-65215815D01*
X195224732Y-65285506D01*
X195191246Y-65346829D01*
X195129923Y-65380313D01*
X195109578Y-65383001D01*
X194520511Y-65411595D01*
X194452596Y-65395184D01*
X194404335Y-65344661D01*
X194390499Y-65287741D01*
X194390499Y-64634129D01*
X194390498Y-64634123D01*
X194384091Y-64574516D01*
X194333797Y-64439671D01*
X194333793Y-64439664D01*
X194247547Y-64324455D01*
X194247544Y-64324452D01*
X194132335Y-64238206D01*
X194132328Y-64238202D01*
X194000401Y-64188997D01*
X193944467Y-64147126D01*
X193920050Y-64081662D01*
X193934902Y-64013389D01*
X193956053Y-63985133D01*
X194078108Y-63863078D01*
X194213600Y-63669578D01*
X194313429Y-63455492D01*
X194313432Y-63455486D01*
X194370636Y-63242000D01*
X193473012Y-63242000D01*
X193505925Y-63184993D01*
X193540000Y-63057826D01*
X193540000Y-62926174D01*
X193505925Y-62799007D01*
X193473012Y-62742000D01*
X194370636Y-62742000D01*
X194370635Y-62741999D01*
X194313432Y-62528513D01*
X194313429Y-62528507D01*
X194213600Y-62314422D01*
X194213599Y-62314420D01*
X194078113Y-62120926D01*
X194078108Y-62120920D01*
X193911082Y-61953894D01*
X193717578Y-61818399D01*
X193503492Y-61718570D01*
X193503486Y-61718567D01*
X193290000Y-61661364D01*
X193290000Y-62558988D01*
X193232993Y-62526075D01*
X193105826Y-62492000D01*
X192974174Y-62492000D01*
X192847007Y-62526075D01*
X192790000Y-62558988D01*
X192790000Y-61661364D01*
X192789999Y-61661364D01*
X192576513Y-61718567D01*
X192576507Y-61718570D01*
X192427758Y-61787933D01*
X192358680Y-61798425D01*
X192294896Y-61769905D01*
X192256657Y-61711429D01*
X192251538Y-61668776D01*
X192423348Y-58531105D01*
X192446667Y-58465248D01*
X192501894Y-58422449D01*
X192571492Y-58416302D01*
X192633366Y-58448758D01*
X192634842Y-58450210D01*
X192656344Y-58471712D01*
X192805666Y-58563814D01*
X192972203Y-58618999D01*
X193074991Y-58629500D01*
X193850008Y-58629499D01*
X193850016Y-58629498D01*
X193850019Y-58629498D01*
X193906302Y-58623748D01*
X193952797Y-58618999D01*
X194119334Y-58563814D01*
X194268656Y-58471712D01*
X194392712Y-58347656D01*
X194394461Y-58344819D01*
X194396169Y-58343283D01*
X194397193Y-58341989D01*
X194397414Y-58342163D01*
X194446406Y-58298096D01*
X194515368Y-58286872D01*
X194579451Y-58314713D01*
X194605537Y-58344817D01*
X194607288Y-58347656D01*
X194731344Y-58471712D01*
X194880666Y-58563814D01*
X195047203Y-58618999D01*
X195149991Y-58629500D01*
X195266630Y-58629499D01*
X195333668Y-58649183D01*
X195379423Y-58701987D01*
X195389367Y-58771145D01*
X195360343Y-58834701D01*
X195340941Y-58852765D01*
X195303952Y-58880455D01*
X195217706Y-58995664D01*
X195217702Y-58995671D01*
X195167410Y-59130513D01*
X195167409Y-59130517D01*
X195161000Y-59190127D01*
X195161000Y-59190134D01*
X195161000Y-59190135D01*
X195161000Y-59935870D01*
X195161001Y-59935876D01*
X195167408Y-59995483D01*
X195217702Y-60130328D01*
X195221954Y-60138114D01*
X195218780Y-60139846D01*
X195237159Y-60189302D01*
X195222225Y-60257557D01*
X195221617Y-60258502D01*
X195217702Y-60265671D01*
X195183570Y-60357186D01*
X195167409Y-60400517D01*
X195161000Y-60460127D01*
X195161000Y-60460134D01*
X195161000Y-60460135D01*
X195161000Y-61205870D01*
X195161001Y-61205876D01*
X195167408Y-61265483D01*
X195217702Y-61400327D01*
X195221952Y-61408109D01*
X195218894Y-61409778D01*
X195237463Y-61459594D01*
X195222598Y-61527864D01*
X195222217Y-61528457D01*
X195218145Y-61535913D01*
X195167903Y-61670620D01*
X195167901Y-61670627D01*
X195161500Y-61730155D01*
X195161500Y-61853000D01*
X197686500Y-61853000D01*
X197686500Y-61730172D01*
X197686499Y-61730155D01*
X197680098Y-61670627D01*
X197680096Y-61670620D01*
X197670149Y-61643949D01*
X197665165Y-61574258D01*
X197698650Y-61512935D01*
X197738876Y-61486056D01*
X197816811Y-61453775D01*
X197931543Y-61377114D01*
X198664114Y-60644543D01*
X198740775Y-60529811D01*
X198793580Y-60402328D01*
X198815107Y-60294105D01*
X198820500Y-60266996D01*
X198820500Y-56634510D01*
X198820500Y-56634507D01*
X198819877Y-56631377D01*
X198793580Y-56499172D01*
X198780867Y-56468480D01*
X198740777Y-56371692D01*
X198664112Y-56256954D01*
X197736818Y-55329660D01*
X197703333Y-55268337D01*
X197700499Y-55241979D01*
X197700499Y-54624000D01*
X197720184Y-54556961D01*
X197772988Y-54511206D01*
X197824499Y-54500000D01*
X198925009Y-54500000D01*
X198925009Y-53500000D01*
X199425009Y-53500000D01*
X199425009Y-54500000D01*
X200722837Y-54500000D01*
X200722853Y-54499999D01*
X200782381Y-54493598D01*
X200782388Y-54493596D01*
X200917095Y-54443354D01*
X200917102Y-54443350D01*
X201032196Y-54357190D01*
X201032199Y-54357187D01*
X201118359Y-54242093D01*
X201118363Y-54242086D01*
X201168605Y-54107379D01*
X201168607Y-54107372D01*
X201175008Y-54047844D01*
X201175009Y-54047827D01*
X201175009Y-53500000D01*
X203175009Y-53500000D01*
X203175009Y-54047844D01*
X203181410Y-54107372D01*
X203181412Y-54107379D01*
X203231654Y-54242086D01*
X203231658Y-54242093D01*
X203317818Y-54357187D01*
X203317821Y-54357190D01*
X203432915Y-54443350D01*
X203432922Y-54443354D01*
X203567629Y-54493596D01*
X203567636Y-54493598D01*
X203627164Y-54499999D01*
X203627181Y-54500000D01*
X204925009Y-54500000D01*
X204925009Y-53500000D01*
X205425009Y-53500000D01*
X205425009Y-54500000D01*
X206722837Y-54500000D01*
X206722853Y-54499999D01*
X206782381Y-54493598D01*
X206782388Y-54493596D01*
X206917095Y-54443354D01*
X206917102Y-54443350D01*
X207032196Y-54357190D01*
X207032199Y-54357187D01*
X207118359Y-54242093D01*
X207118363Y-54242086D01*
X207168605Y-54107379D01*
X207168607Y-54107372D01*
X207175008Y-54047844D01*
X207175009Y-54047827D01*
X207175009Y-53500000D01*
X205425009Y-53500000D01*
X204925009Y-53500000D01*
X203175009Y-53500000D01*
X201175009Y-53500000D01*
X199425009Y-53500000D01*
X198925009Y-53500000D01*
X198925009Y-52000000D01*
X199425009Y-52000000D01*
X199425009Y-53000000D01*
X201175009Y-53000000D01*
X203175009Y-53000000D01*
X204925009Y-53000000D01*
X204925009Y-52000000D01*
X205425009Y-52000000D01*
X205425009Y-53000000D01*
X207175009Y-53000000D01*
X207175009Y-52452172D01*
X207175008Y-52452155D01*
X207168607Y-52392627D01*
X207168605Y-52392620D01*
X207118363Y-52257913D01*
X207118359Y-52257906D01*
X207032199Y-52142812D01*
X207032196Y-52142809D01*
X206917102Y-52056649D01*
X206917095Y-52056645D01*
X206782388Y-52006403D01*
X206782381Y-52006401D01*
X206722853Y-52000000D01*
X205425009Y-52000000D01*
X204925009Y-52000000D01*
X203627164Y-52000000D01*
X203567636Y-52006401D01*
X203567629Y-52006403D01*
X203432922Y-52056645D01*
X203432915Y-52056649D01*
X203317821Y-52142809D01*
X203317818Y-52142812D01*
X203231658Y-52257906D01*
X203231654Y-52257913D01*
X203181412Y-52392620D01*
X203181410Y-52392627D01*
X203175009Y-52452155D01*
X203175009Y-53000000D01*
X201175009Y-53000000D01*
X201175009Y-52452172D01*
X201175008Y-52452155D01*
X201168607Y-52392627D01*
X201168605Y-52392620D01*
X201118363Y-52257913D01*
X201118359Y-52257906D01*
X201032199Y-52142812D01*
X201032196Y-52142809D01*
X200917102Y-52056649D01*
X200917095Y-52056645D01*
X200782388Y-52006403D01*
X200782381Y-52006401D01*
X200722853Y-52000000D01*
X199425009Y-52000000D01*
X198925009Y-52000000D01*
X197823999Y-52000000D01*
X197756960Y-51980315D01*
X197711205Y-51927511D01*
X197699999Y-51876000D01*
X197699999Y-51395028D01*
X197699998Y-51395013D01*
X197689505Y-51292302D01*
X197634358Y-51125880D01*
X197634356Y-51125875D01*
X197542315Y-50976654D01*
X197418345Y-50852684D01*
X197269124Y-50760643D01*
X197269119Y-50760641D01*
X197102697Y-50705494D01*
X197102690Y-50705493D01*
X196999986Y-50695000D01*
X196800000Y-50695000D01*
X196800000Y-52196000D01*
X196780315Y-52263039D01*
X196727511Y-52308794D01*
X196676000Y-52320000D01*
X195400001Y-52320000D01*
X195400001Y-52744986D01*
X195410494Y-52847697D01*
X195465641Y-53014119D01*
X195465643Y-53014124D01*
X195557684Y-53163345D01*
X195681654Y-53287315D01*
X195801387Y-53361167D01*
X195848111Y-53413115D01*
X195859334Y-53482078D01*
X195831490Y-53546160D01*
X195801387Y-53572245D01*
X195681342Y-53646289D01*
X195557289Y-53770342D01*
X195465187Y-53919663D01*
X195465186Y-53919666D01*
X195410001Y-54086203D01*
X195410001Y-54086204D01*
X195410000Y-54086204D01*
X195399500Y-54188983D01*
X195399500Y-55539001D01*
X195399501Y-55539018D01*
X195410000Y-55641796D01*
X195410001Y-55641799D01*
X195465185Y-55808331D01*
X195465187Y-55808336D01*
X195557289Y-55957657D01*
X195566451Y-55966819D01*
X195599936Y-56028142D01*
X195594952Y-56097834D01*
X195553080Y-56153767D01*
X195487616Y-56178184D01*
X195478770Y-56178500D01*
X195149999Y-56178500D01*
X195149980Y-56178501D01*
X195047203Y-56189000D01*
X195047200Y-56189001D01*
X194880668Y-56244185D01*
X194880663Y-56244187D01*
X194731342Y-56336289D01*
X194607285Y-56460346D01*
X194605537Y-56463182D01*
X194603829Y-56464717D01*
X194602807Y-56466011D01*
X194602585Y-56465836D01*
X194553589Y-56509905D01*
X194484626Y-56521126D01*
X194420544Y-56493282D01*
X194394463Y-56463182D01*
X194392714Y-56460347D01*
X194392713Y-56460346D01*
X194392712Y-56460344D01*
X194284818Y-56352450D01*
X194251334Y-56291127D01*
X194248500Y-56264769D01*
X194248500Y-56194190D01*
X194268185Y-56127151D01*
X194307403Y-56088652D01*
X194318656Y-56081712D01*
X194442712Y-55957656D01*
X194534814Y-55808334D01*
X194589999Y-55641797D01*
X194600500Y-55539009D01*
X194600499Y-54188992D01*
X194589999Y-54086203D01*
X194534814Y-53919666D01*
X194442712Y-53770344D01*
X194318656Y-53646288D01*
X194318652Y-53646285D01*
X194307401Y-53639345D01*
X194260677Y-53587396D01*
X194248500Y-53533808D01*
X194248500Y-53400190D01*
X194268185Y-53333151D01*
X194307403Y-53294652D01*
X194318656Y-53287712D01*
X194442712Y-53163656D01*
X194534814Y-53014334D01*
X194589999Y-52847797D01*
X194600500Y-52745009D01*
X194600499Y-51820000D01*
X195400000Y-51820000D01*
X196300000Y-51820000D01*
X196300000Y-50695000D01*
X196100029Y-50695000D01*
X196100012Y-50695001D01*
X195997302Y-50705494D01*
X195830880Y-50760641D01*
X195830875Y-50760643D01*
X195681654Y-50852684D01*
X195557684Y-50976654D01*
X195465643Y-51125875D01*
X195465641Y-51125880D01*
X195410494Y-51292302D01*
X195410493Y-51292309D01*
X195400000Y-51395013D01*
X195400000Y-51820000D01*
X194600499Y-51820000D01*
X194600499Y-51394992D01*
X194589999Y-51292203D01*
X194534814Y-51125666D01*
X194442712Y-50976344D01*
X194318656Y-50852288D01*
X194169334Y-50760186D01*
X194002797Y-50705001D01*
X194002795Y-50705000D01*
X193900010Y-50694500D01*
X192999998Y-50694500D01*
X192999977Y-50694502D01*
X192995974Y-50694911D01*
X192927281Y-50682140D01*
X192876397Y-50634259D01*
X192859478Y-50566469D01*
X192859547Y-50565013D01*
X192922640Y-49412778D01*
X192945960Y-49346920D01*
X192958761Y-49331895D01*
X193290656Y-49000000D01*
X197175009Y-49000000D01*
X197175009Y-49547844D01*
X197181410Y-49607372D01*
X197181412Y-49607379D01*
X197231654Y-49742086D01*
X197231658Y-49742093D01*
X197317818Y-49857187D01*
X197317821Y-49857190D01*
X197432915Y-49943350D01*
X197432922Y-49943354D01*
X197567629Y-49993596D01*
X197567636Y-49993598D01*
X197627164Y-49999999D01*
X197627181Y-50000000D01*
X198925009Y-50000000D01*
X198925009Y-49000000D01*
X199425009Y-49000000D01*
X199425009Y-50000000D01*
X200722837Y-50000000D01*
X200722853Y-49999999D01*
X200782381Y-49993598D01*
X200782388Y-49993596D01*
X200917095Y-49943354D01*
X200917102Y-49943350D01*
X201032196Y-49857190D01*
X201032199Y-49857187D01*
X201118359Y-49742093D01*
X201118363Y-49742086D01*
X201168605Y-49607379D01*
X201168607Y-49607372D01*
X201175008Y-49547844D01*
X201175009Y-49547827D01*
X201175009Y-49000000D01*
X203175009Y-49000000D01*
X203175009Y-49547844D01*
X203181410Y-49607372D01*
X203181412Y-49607379D01*
X203231654Y-49742086D01*
X203231658Y-49742093D01*
X203317818Y-49857187D01*
X203317821Y-49857190D01*
X203432915Y-49943350D01*
X203432922Y-49943354D01*
X203567629Y-49993596D01*
X203567636Y-49993598D01*
X203627164Y-49999999D01*
X203627181Y-50000000D01*
X204925009Y-50000000D01*
X204925009Y-49000000D01*
X205425009Y-49000000D01*
X205425009Y-50000000D01*
X206722837Y-50000000D01*
X206722853Y-49999999D01*
X206782381Y-49993598D01*
X206782388Y-49993596D01*
X206917095Y-49943354D01*
X206917102Y-49943350D01*
X207032196Y-49857190D01*
X207032199Y-49857187D01*
X207118359Y-49742093D01*
X207118363Y-49742086D01*
X207168605Y-49607379D01*
X207168607Y-49607372D01*
X207175008Y-49547844D01*
X207175009Y-49547827D01*
X207175009Y-49000000D01*
X205425009Y-49000000D01*
X204925009Y-49000000D01*
X203175009Y-49000000D01*
X201175009Y-49000000D01*
X199425009Y-49000000D01*
X198925009Y-49000000D01*
X197175009Y-49000000D01*
X193290656Y-49000000D01*
X194254338Y-48036319D01*
X194315661Y-48002834D01*
X194342019Y-48000000D01*
X197051009Y-48000000D01*
X197118048Y-48019685D01*
G37*
%TD.AperFunction*%
%TD*%
%TA.AperFunction,Conductor*%
%TO.N,+5V*%
G36*
X240735039Y-46247685D02*
G01*
X240780794Y-46300489D01*
X240792000Y-46352000D01*
X240792000Y-76076000D01*
X240772315Y-76143039D01*
X240719511Y-76188794D01*
X240668000Y-76200000D01*
X190878000Y-76200000D01*
X190810961Y-76180315D01*
X190765206Y-76127511D01*
X190754000Y-76076000D01*
X190754000Y-74800000D01*
X200625001Y-74800000D01*
X200625001Y-74999986D01*
X200635494Y-75102697D01*
X200690641Y-75269119D01*
X200690643Y-75269124D01*
X200782684Y-75418345D01*
X200906654Y-75542315D01*
X201055875Y-75634356D01*
X201055880Y-75634358D01*
X201222302Y-75689505D01*
X201222309Y-75689506D01*
X201325019Y-75699999D01*
X201749999Y-75699999D01*
X201750000Y-75699998D01*
X201750000Y-74800000D01*
X200625001Y-74800000D01*
X190754000Y-74800000D01*
X190754000Y-74300000D01*
X200625000Y-74300000D01*
X201750000Y-74300000D01*
X201750000Y-73400000D01*
X201325028Y-73400000D01*
X201325012Y-73400001D01*
X201222302Y-73410494D01*
X201055880Y-73465641D01*
X201055875Y-73465643D01*
X200906654Y-73557684D01*
X200782684Y-73681654D01*
X200690643Y-73830875D01*
X200690641Y-73830880D01*
X200635494Y-73997302D01*
X200635493Y-73997309D01*
X200625000Y-74100013D01*
X200625000Y-74300000D01*
X190754000Y-74300000D01*
X190754000Y-71250000D01*
X194875001Y-71250000D01*
X194875001Y-71524986D01*
X194885494Y-71627697D01*
X194940641Y-71794119D01*
X194940643Y-71794124D01*
X195032684Y-71943345D01*
X195156654Y-72067315D01*
X195305875Y-72159356D01*
X195305880Y-72159358D01*
X195472302Y-72214505D01*
X195472309Y-72214506D01*
X195575019Y-72224999D01*
X195712499Y-72224999D01*
X195712500Y-72224998D01*
X195712500Y-71250000D01*
X194875001Y-71250000D01*
X190754000Y-71250000D01*
X190754000Y-70750000D01*
X194875000Y-70750000D01*
X195712500Y-70750000D01*
X195712500Y-69775000D01*
X195575027Y-69775000D01*
X195575012Y-69775001D01*
X195472302Y-69785494D01*
X195305880Y-69840641D01*
X195305875Y-69840643D01*
X195156654Y-69932684D01*
X195032684Y-70056654D01*
X194940643Y-70205875D01*
X194940641Y-70205880D01*
X194885494Y-70372302D01*
X194885493Y-70372309D01*
X194875000Y-70475013D01*
X194875000Y-70750000D01*
X190754000Y-70750000D01*
X190754000Y-68703000D01*
X195161500Y-68703000D01*
X195161500Y-68825844D01*
X195167901Y-68885372D01*
X195167903Y-68885379D01*
X195218145Y-69020086D01*
X195218149Y-69020093D01*
X195304309Y-69135187D01*
X195304312Y-69135190D01*
X195419406Y-69221350D01*
X195419413Y-69221354D01*
X195554120Y-69271596D01*
X195554127Y-69271598D01*
X195613655Y-69277999D01*
X195613672Y-69278000D01*
X196174000Y-69278000D01*
X196174000Y-68703000D01*
X196674000Y-68703000D01*
X196674000Y-69278000D01*
X197234328Y-69278000D01*
X197234344Y-69277999D01*
X197293872Y-69271598D01*
X197293879Y-69271596D01*
X197428586Y-69221354D01*
X197428593Y-69221350D01*
X197543687Y-69135190D01*
X197543690Y-69135187D01*
X197629850Y-69020093D01*
X197629854Y-69020086D01*
X197680096Y-68885379D01*
X197680098Y-68885372D01*
X197686499Y-68825844D01*
X197686500Y-68825827D01*
X197686500Y-68703000D01*
X196674000Y-68703000D01*
X196174000Y-68703000D01*
X195161500Y-68703000D01*
X190754000Y-68703000D01*
X190754000Y-62992000D01*
X191684341Y-62992000D01*
X191704936Y-63227403D01*
X191704938Y-63227413D01*
X191766094Y-63455655D01*
X191766096Y-63455659D01*
X191766097Y-63455663D01*
X191824930Y-63581830D01*
X191865965Y-63669830D01*
X191865967Y-63669834D01*
X192001501Y-63863395D01*
X192001506Y-63863402D01*
X192123818Y-63985714D01*
X192157303Y-64047037D01*
X192152319Y-64116729D01*
X192110447Y-64172662D01*
X192079471Y-64189577D01*
X191947912Y-64238646D01*
X191947906Y-64238649D01*
X191832812Y-64324809D01*
X191832809Y-64324812D01*
X191746649Y-64439906D01*
X191746645Y-64439913D01*
X191696403Y-64574620D01*
X191696401Y-64574627D01*
X191690000Y-64634155D01*
X191690000Y-65282000D01*
X192606988Y-65282000D01*
X192574075Y-65339007D01*
X192540000Y-65466174D01*
X192540000Y-65597826D01*
X192574075Y-65724993D01*
X192606988Y-65782000D01*
X191690000Y-65782000D01*
X191690000Y-66429844D01*
X191696401Y-66489372D01*
X191696403Y-66489379D01*
X191746645Y-66624086D01*
X191746649Y-66624093D01*
X191832809Y-66739187D01*
X191832812Y-66739190D01*
X191947906Y-66825350D01*
X191947913Y-66825354D01*
X192082620Y-66875596D01*
X192082627Y-66875598D01*
X192142155Y-66881999D01*
X192142172Y-66882000D01*
X192790000Y-66882000D01*
X192790000Y-65965012D01*
X192847007Y-65997925D01*
X192974174Y-66032000D01*
X193105826Y-66032000D01*
X193232993Y-65997925D01*
X193290000Y-65965012D01*
X193290000Y-66882000D01*
X193937828Y-66882000D01*
X193937844Y-66881999D01*
X193997372Y-66875598D01*
X193997379Y-66875596D01*
X194132086Y-66825354D01*
X194132093Y-66825350D01*
X194247187Y-66739190D01*
X194247190Y-66739187D01*
X194333350Y-66624093D01*
X194333354Y-66624086D01*
X194383596Y-66489379D01*
X194383598Y-66489372D01*
X194389999Y-66429844D01*
X194390000Y-66429827D01*
X194390000Y-66038120D01*
X194409685Y-65971081D01*
X194462489Y-65925326D01*
X194525675Y-65914671D01*
X194545020Y-65916501D01*
X195030989Y-65892911D01*
X195098903Y-65909322D01*
X195147164Y-65959845D01*
X195161000Y-66016765D01*
X195161000Y-66285869D01*
X195161001Y-66285876D01*
X195167408Y-66345483D01*
X195217702Y-66480328D01*
X195221954Y-66488114D01*
X195218780Y-66489846D01*
X195237159Y-66539302D01*
X195222225Y-66607557D01*
X195221617Y-66608502D01*
X195217702Y-66615671D01*
X195167410Y-66750513D01*
X195167409Y-66750517D01*
X195161000Y-66810127D01*
X195161000Y-66810134D01*
X195161000Y-66810135D01*
X195161000Y-67555870D01*
X195161001Y-67555876D01*
X195167408Y-67615483D01*
X195217702Y-67750327D01*
X195221952Y-67758109D01*
X195218894Y-67759778D01*
X195237463Y-67809594D01*
X195222598Y-67877864D01*
X195222217Y-67878457D01*
X195218145Y-67885913D01*
X195167903Y-68020620D01*
X195167901Y-68020627D01*
X195161500Y-68080155D01*
X195161500Y-68203000D01*
X197686500Y-68203000D01*
X197686500Y-68080172D01*
X197686499Y-68080155D01*
X197680098Y-68020627D01*
X197680097Y-68020623D01*
X197629849Y-67885904D01*
X197625601Y-67878123D01*
X197628860Y-67876343D01*
X197610546Y-67827374D01*
X197625336Y-67759087D01*
X197626523Y-67757239D01*
X197630293Y-67750335D01*
X197630292Y-67750335D01*
X197630296Y-67750331D01*
X197680591Y-67615483D01*
X197687000Y-67555873D01*
X197686999Y-66810128D01*
X197680591Y-66750517D01*
X197680590Y-66750513D01*
X197630297Y-66615670D01*
X197626047Y-66607888D01*
X197629257Y-66606134D01*
X197610861Y-66557001D01*
X197625627Y-66488709D01*
X197626252Y-66487736D01*
X197630297Y-66480329D01*
X197649133Y-66429827D01*
X197680591Y-66345483D01*
X197687000Y-66285873D01*
X197686999Y-65880712D01*
X197706683Y-65813674D01*
X197759487Y-65767919D01*
X197819206Y-65757849D01*
X197819220Y-65757255D01*
X197822313Y-65757325D01*
X197822677Y-65757264D01*
X197823645Y-65757356D01*
X198305488Y-65733967D01*
X198373403Y-65750378D01*
X198421664Y-65800901D01*
X198435500Y-65857821D01*
X198435500Y-69650500D01*
X198415815Y-69717539D01*
X198363011Y-69763294D01*
X198311500Y-69774500D01*
X197649998Y-69774500D01*
X197649980Y-69774501D01*
X197547203Y-69785000D01*
X197547200Y-69785001D01*
X197380668Y-69840185D01*
X197380663Y-69840187D01*
X197231342Y-69932289D01*
X197107288Y-70056343D01*
X197107283Y-70056349D01*
X197105241Y-70059661D01*
X197103247Y-70061453D01*
X197102807Y-70062011D01*
X197102711Y-70061935D01*
X197053291Y-70106383D01*
X196984328Y-70117602D01*
X196920247Y-70089755D01*
X196894168Y-70059656D01*
X196892319Y-70056659D01*
X196892316Y-70056655D01*
X196768345Y-69932684D01*
X196619124Y-69840643D01*
X196619119Y-69840641D01*
X196452697Y-69785494D01*
X196452690Y-69785493D01*
X196349986Y-69775000D01*
X196212500Y-69775000D01*
X196212500Y-72224999D01*
X196349972Y-72224999D01*
X196349986Y-72224998D01*
X196452697Y-72214505D01*
X196619119Y-72159358D01*
X196619124Y-72159356D01*
X196768345Y-72067315D01*
X196892318Y-71943342D01*
X196894165Y-71940348D01*
X196895969Y-71938724D01*
X196896798Y-71937677D01*
X196896976Y-71937818D01*
X196946110Y-71893621D01*
X197015073Y-71882396D01*
X197079156Y-71910236D01*
X197105243Y-71940341D01*
X197107288Y-71943656D01*
X197231344Y-72067712D01*
X197380666Y-72159814D01*
X197547203Y-72214999D01*
X197649991Y-72225500D01*
X198425008Y-72225499D01*
X198425016Y-72225498D01*
X198425019Y-72225498D01*
X198488747Y-72218988D01*
X198527797Y-72214999D01*
X198694334Y-72159814D01*
X198833652Y-72073881D01*
X198901041Y-72055443D01*
X198958977Y-72071033D01*
X199301802Y-72261546D01*
X199312683Y-72268352D01*
X199347266Y-72292568D01*
X199407706Y-72320751D01*
X199415478Y-72324716D01*
X199436854Y-72336596D01*
X199462174Y-72349745D01*
X199463362Y-72350320D01*
X199504760Y-72366318D01*
X199512435Y-72369587D01*
X199553504Y-72388739D01*
X199773308Y-72447635D01*
X199935230Y-72461801D01*
X199999998Y-72467468D01*
X200000000Y-72467468D01*
X200000002Y-72467468D01*
X200056673Y-72462509D01*
X200226692Y-72447635D01*
X200446496Y-72388739D01*
X200644607Y-72296357D01*
X200713682Y-72285866D01*
X200777466Y-72314385D01*
X200784691Y-72321059D01*
X200906344Y-72442712D01*
X201055666Y-72534814D01*
X201222203Y-72589999D01*
X201324991Y-72600500D01*
X202675008Y-72600499D01*
X202777797Y-72589999D01*
X202944334Y-72534814D01*
X203093656Y-72442712D01*
X203093663Y-72442704D01*
X203098587Y-72438812D01*
X203163382Y-72412671D01*
X203232025Y-72425710D01*
X203282721Y-72473789D01*
X203299500Y-72536077D01*
X203299500Y-73464564D01*
X203279815Y-73531603D01*
X203227011Y-73577358D01*
X203157853Y-73587302D01*
X203098591Y-73561832D01*
X203093345Y-73557684D01*
X202944124Y-73465643D01*
X202944119Y-73465641D01*
X202777697Y-73410494D01*
X202777690Y-73410493D01*
X202674986Y-73400000D01*
X202250000Y-73400000D01*
X202250000Y-75699999D01*
X202674972Y-75699999D01*
X202674986Y-75699998D01*
X202777697Y-75689505D01*
X202944119Y-75634358D01*
X202944124Y-75634356D01*
X203093345Y-75542315D01*
X203217315Y-75418345D01*
X203309356Y-75269124D01*
X203309358Y-75269119D01*
X203364505Y-75102697D01*
X203364506Y-75102690D01*
X203374999Y-74999986D01*
X203374999Y-74817020D01*
X203394683Y-74749980D01*
X203447487Y-74704225D01*
X203516645Y-74694281D01*
X203580201Y-74723306D01*
X203586680Y-74729338D01*
X204151454Y-75294112D01*
X204266192Y-75370777D01*
X204388254Y-75421336D01*
X204393672Y-75423580D01*
X204393676Y-75423580D01*
X204393677Y-75423581D01*
X204529003Y-75450500D01*
X204529006Y-75450500D01*
X204529007Y-75450500D01*
X204634362Y-75450500D01*
X204701401Y-75470185D01*
X204739899Y-75509401D01*
X204807288Y-75618656D01*
X204931344Y-75742712D01*
X205080666Y-75834814D01*
X205247203Y-75889999D01*
X205349991Y-75900500D01*
X206650008Y-75900499D01*
X206752797Y-75889999D01*
X206919334Y-75834814D01*
X207068656Y-75742712D01*
X207192712Y-75618656D01*
X207260099Y-75509402D01*
X207312047Y-75462679D01*
X207365638Y-75450500D01*
X207634362Y-75450500D01*
X207701401Y-75470185D01*
X207739899Y-75509401D01*
X207807288Y-75618656D01*
X207931344Y-75742712D01*
X208080666Y-75834814D01*
X208247203Y-75889999D01*
X208349991Y-75900500D01*
X209650008Y-75900499D01*
X209752797Y-75889999D01*
X209919334Y-75834814D01*
X210068656Y-75742712D01*
X210156802Y-75654565D01*
X210218121Y-75621083D01*
X210287813Y-75626067D01*
X210332161Y-75654568D01*
X210439313Y-75761720D01*
X210588635Y-75853822D01*
X210755172Y-75909007D01*
X210857960Y-75919508D01*
X212157977Y-75919507D01*
X212260766Y-75909007D01*
X212427303Y-75853822D01*
X212576625Y-75761720D01*
X212671527Y-75666818D01*
X212732851Y-75633334D01*
X212759208Y-75630500D01*
X213674770Y-75630500D01*
X213741809Y-75650185D01*
X213762450Y-75666818D01*
X213790344Y-75694712D01*
X213939666Y-75786814D01*
X214106203Y-75841999D01*
X214208991Y-75852500D01*
X215559008Y-75852499D01*
X215661797Y-75841999D01*
X215828334Y-75786814D01*
X215977656Y-75694712D01*
X216101712Y-75570656D01*
X216193814Y-75421334D01*
X216248999Y-75254797D01*
X216259500Y-75152009D01*
X216259499Y-74251992D01*
X216257201Y-74229500D01*
X216248999Y-74149203D01*
X216248998Y-74149200D01*
X216242361Y-74129171D01*
X216193814Y-73982666D01*
X216101712Y-73833344D01*
X216101710Y-73833342D01*
X216098890Y-73828770D01*
X216080450Y-73761377D01*
X216101373Y-73694714D01*
X216155015Y-73649944D01*
X216204429Y-73639673D01*
X216252919Y-73639673D01*
X216319958Y-73659358D01*
X216358463Y-73703444D01*
X216360222Y-73702360D01*
X216364012Y-73708505D01*
X216364013Y-73708507D01*
X216456115Y-73857829D01*
X216580171Y-73981885D01*
X216729493Y-74073987D01*
X216896030Y-74129172D01*
X216998818Y-74139673D01*
X217748835Y-74139672D01*
X217748843Y-74139671D01*
X217748846Y-74139671D01*
X217805129Y-74133921D01*
X217851624Y-74129172D01*
X218018161Y-74073987D01*
X218167483Y-73981885D01*
X218291539Y-73857829D01*
X218293288Y-73854992D01*
X218294996Y-73853456D01*
X218296020Y-73852162D01*
X218296241Y-73852336D01*
X218345233Y-73808269D01*
X218414195Y-73797045D01*
X218478278Y-73824886D01*
X218504364Y-73854990D01*
X218506115Y-73857829D01*
X218630171Y-73981885D01*
X218779493Y-74073987D01*
X218946030Y-74129172D01*
X219048818Y-74139673D01*
X219494807Y-74139672D01*
X219561846Y-74159356D01*
X219582488Y-74175991D01*
X220626611Y-75220114D01*
X220672563Y-75250817D01*
X220672565Y-75250819D01*
X220672566Y-75250819D01*
X220741343Y-75296775D01*
X220741346Y-75296776D01*
X220741347Y-75296777D01*
X220830754Y-75333810D01*
X220830756Y-75333812D01*
X220868820Y-75349578D01*
X220868825Y-75349580D01*
X220868834Y-75349581D01*
X220868835Y-75349582D01*
X220895699Y-75354925D01*
X220895705Y-75354926D01*
X220895745Y-75354934D01*
X220986091Y-75372905D01*
X221004160Y-75376500D01*
X221004161Y-75376500D01*
X238828996Y-75376500D01*
X238937457Y-75354925D01*
X238964328Y-75349580D01*
X239028069Y-75323177D01*
X239091807Y-75296777D01*
X239091808Y-75296776D01*
X239091811Y-75296775D01*
X239206543Y-75220114D01*
X240320114Y-74106543D01*
X240396775Y-73991811D01*
X240400565Y-73982663D01*
X240449578Y-73864332D01*
X240449580Y-73864328D01*
X240476500Y-73728994D01*
X240476500Y-73591006D01*
X240476500Y-50637853D01*
X240476500Y-50637850D01*
X240460086Y-50555335D01*
X240449580Y-50502518D01*
X240448945Y-50500986D01*
X240448528Y-50499978D01*
X240396778Y-50375042D01*
X240396777Y-50375041D01*
X240396775Y-50375035D01*
X240320114Y-50260303D01*
X240320112Y-50260300D01*
X239839645Y-49779833D01*
X239806160Y-49718510D01*
X239803326Y-49692152D01*
X239803326Y-49071171D01*
X239803325Y-49071154D01*
X239792826Y-48968376D01*
X239792825Y-48968373D01*
X239762381Y-48876500D01*
X239737641Y-48801839D01*
X239645539Y-48652517D01*
X239521483Y-48528461D01*
X239428715Y-48471242D01*
X239372163Y-48436360D01*
X239372158Y-48436358D01*
X239370689Y-48435871D01*
X239205624Y-48381174D01*
X239205622Y-48381173D01*
X239102837Y-48370673D01*
X238352825Y-48370673D01*
X238352807Y-48370674D01*
X238250030Y-48381173D01*
X238250027Y-48381174D01*
X238083495Y-48436358D01*
X238083490Y-48436360D01*
X237934169Y-48528462D01*
X237810115Y-48652516D01*
X237810110Y-48652522D01*
X237808068Y-48655834D01*
X237806074Y-48657626D01*
X237805634Y-48658184D01*
X237805538Y-48658108D01*
X237756118Y-48702556D01*
X237687155Y-48713775D01*
X237623074Y-48685928D01*
X237596995Y-48655829D01*
X237595146Y-48652832D01*
X237595143Y-48652828D01*
X237471172Y-48528857D01*
X237321951Y-48436816D01*
X237321946Y-48436814D01*
X237155524Y-48381667D01*
X237155517Y-48381666D01*
X237052813Y-48371173D01*
X236927827Y-48371173D01*
X236927827Y-50771172D01*
X237052799Y-50771172D01*
X237052813Y-50771171D01*
X237155524Y-50760678D01*
X237321946Y-50705531D01*
X237321951Y-50705529D01*
X237471172Y-50613488D01*
X237595145Y-50489515D01*
X237596992Y-50486521D01*
X237598796Y-50484897D01*
X237599625Y-50483850D01*
X237599803Y-50483991D01*
X237648937Y-50439794D01*
X237717900Y-50428569D01*
X237781983Y-50456409D01*
X237808070Y-50486514D01*
X237810115Y-50489829D01*
X237934171Y-50613885D01*
X238083493Y-50705987D01*
X238250030Y-50761172D01*
X238352818Y-50771673D01*
X238798807Y-50771672D01*
X238865846Y-50791356D01*
X238886488Y-50807991D01*
X239039181Y-50960684D01*
X239072666Y-51022007D01*
X239075500Y-51048365D01*
X239075500Y-59264653D01*
X239055815Y-59331692D01*
X239003011Y-59377447D01*
X238933853Y-59387391D01*
X238870297Y-59358366D01*
X238863819Y-59352334D01*
X233261872Y-53750387D01*
X233147134Y-53673722D01*
X233019659Y-53620921D01*
X233019649Y-53620918D01*
X232884323Y-53594000D01*
X232884321Y-53594000D01*
X232884320Y-53594000D01*
X216369985Y-53594000D01*
X216302946Y-53574315D01*
X216257191Y-53521511D01*
X216251258Y-53503587D01*
X216251129Y-53503630D01*
X216221232Y-53413409D01*
X216193814Y-53330666D01*
X216101712Y-53181344D01*
X215977656Y-53057288D01*
X215828334Y-52965186D01*
X215661797Y-52910001D01*
X215661795Y-52910000D01*
X215559010Y-52899500D01*
X214208998Y-52899500D01*
X214208981Y-52899501D01*
X214106203Y-52910000D01*
X214106200Y-52910001D01*
X213939668Y-52965185D01*
X213939663Y-52965187D01*
X213790342Y-53057289D01*
X213666289Y-53181342D01*
X213574187Y-53330663D01*
X213574185Y-53330668D01*
X213557900Y-53379814D01*
X213519001Y-53497203D01*
X213519001Y-53497204D01*
X213519000Y-53497204D01*
X213508500Y-53599983D01*
X213508500Y-54500001D01*
X213508501Y-54500019D01*
X213519000Y-54602796D01*
X213519001Y-54602799D01*
X213574185Y-54769331D01*
X213574187Y-54769336D01*
X213666289Y-54918657D01*
X213699247Y-54951615D01*
X213732732Y-55012938D01*
X213727748Y-55082630D01*
X213685876Y-55138563D01*
X213620412Y-55162980D01*
X213611566Y-55163296D01*
X213396626Y-55163296D01*
X213396626Y-55713296D01*
X214381421Y-55713296D01*
X214381421Y-55713294D01*
X214381226Y-55710809D01*
X214335407Y-55553097D01*
X214251811Y-55411743D01*
X214247026Y-55405574D01*
X214248161Y-55404693D01*
X214218765Y-55350857D01*
X214223749Y-55281165D01*
X214265621Y-55225232D01*
X214331085Y-55200815D01*
X214339905Y-55200499D01*
X215559008Y-55200499D01*
X215661797Y-55189999D01*
X215828334Y-55134814D01*
X215977656Y-55042712D01*
X215989049Y-55031319D01*
X216050372Y-54997834D01*
X216076730Y-54995000D01*
X232473808Y-54995000D01*
X232540847Y-55014685D01*
X232561489Y-55031319D01*
X237903508Y-60373338D01*
X237936993Y-60434661D01*
X237939827Y-60461019D01*
X237939827Y-60663443D01*
X237920142Y-60730482D01*
X237903508Y-60751124D01*
X237810115Y-60844516D01*
X237810112Y-60844519D01*
X237808364Y-60847355D01*
X237806656Y-60848890D01*
X237805634Y-60850184D01*
X237805412Y-60850009D01*
X237756416Y-60894078D01*
X237687453Y-60905299D01*
X237623371Y-60877455D01*
X237597290Y-60847355D01*
X237595541Y-60844519D01*
X237471484Y-60720462D01*
X237471483Y-60720461D01*
X237322161Y-60628359D01*
X237155624Y-60573174D01*
X237155622Y-60573173D01*
X237052837Y-60562673D01*
X236302825Y-60562673D01*
X236302807Y-60562674D01*
X236200030Y-60573173D01*
X236200027Y-60573174D01*
X236033495Y-60628358D01*
X236033490Y-60628360D01*
X235884169Y-60720462D01*
X235760116Y-60844515D01*
X235748509Y-60863334D01*
X235669153Y-60991992D01*
X235664222Y-60999986D01*
X235662427Y-60998879D01*
X235623140Y-61043510D01*
X235556919Y-61062673D01*
X229756327Y-61062673D01*
X229689288Y-61042988D01*
X229643533Y-60990184D01*
X229632327Y-60938673D01*
X229632326Y-60363171D01*
X229632325Y-60363153D01*
X229621826Y-60260376D01*
X229621825Y-60260373D01*
X229601906Y-60200263D01*
X229566641Y-60093839D01*
X229474539Y-59944517D01*
X229350483Y-59820461D01*
X229201161Y-59728359D01*
X229034624Y-59673174D01*
X229034622Y-59673173D01*
X228931843Y-59662673D01*
X228931836Y-59662673D01*
X228090692Y-59662673D01*
X228023653Y-59642988D01*
X228003011Y-59626354D01*
X224728546Y-56351888D01*
X224728545Y-56351887D01*
X224613807Y-56275222D01*
X224486332Y-56222421D01*
X224486322Y-56222418D01*
X224350996Y-56195500D01*
X224350994Y-56195500D01*
X224350993Y-56195500D01*
X212210849Y-56195500D01*
X212147728Y-56178232D01*
X212119522Y-56161551D01*
X212119519Y-56161550D01*
X211961699Y-56115698D01*
X211961693Y-56115697D01*
X211924827Y-56112796D01*
X211924820Y-56112796D01*
X210618432Y-56112796D01*
X210618424Y-56112796D01*
X210581558Y-56115697D01*
X210581552Y-56115698D01*
X210423732Y-56161550D01*
X210423729Y-56161551D01*
X210395524Y-56178232D01*
X210332403Y-56195500D01*
X209989003Y-56195500D01*
X209880590Y-56217065D01*
X209880589Y-56217065D01*
X209853671Y-56222420D01*
X209812437Y-56239500D01*
X209812436Y-56239500D01*
X209720560Y-56277556D01*
X209720007Y-56276222D01*
X209658665Y-56288988D01*
X209593424Y-56263981D01*
X209552060Y-56207672D01*
X209547705Y-56137938D01*
X209580945Y-56077710D01*
X209945361Y-55713294D01*
X211911830Y-55713294D01*
X211911831Y-55713296D01*
X212896626Y-55713296D01*
X212896626Y-55163296D01*
X212493476Y-55163296D01*
X212456636Y-55166195D01*
X212456630Y-55166196D01*
X212298932Y-55212012D01*
X212298929Y-55212013D01*
X212157573Y-55295610D01*
X212157564Y-55295617D01*
X212041447Y-55411734D01*
X212041440Y-55411743D01*
X211957844Y-55553097D01*
X211912025Y-55710809D01*
X211911830Y-55713294D01*
X209945361Y-55713294D01*
X211872113Y-53786543D01*
X211883041Y-53770189D01*
X211948775Y-53671811D01*
X212001580Y-53544328D01*
X212013904Y-53482372D01*
X212028500Y-53408995D01*
X212028500Y-51903518D01*
X212048185Y-51836479D01*
X212064814Y-51815842D01*
X213296821Y-50583834D01*
X213358142Y-50550351D01*
X213427834Y-50555335D01*
X213483767Y-50597207D01*
X213508184Y-50662671D01*
X213508500Y-50671517D01*
X213508500Y-51400001D01*
X213508501Y-51400019D01*
X213519000Y-51502796D01*
X213519001Y-51502799D01*
X213574185Y-51669331D01*
X213574186Y-51669334D01*
X213666288Y-51818656D01*
X213790344Y-51942712D01*
X213939666Y-52034814D01*
X214106203Y-52089999D01*
X214208991Y-52100500D01*
X215559008Y-52100499D01*
X215661797Y-52089999D01*
X215703156Y-52076293D01*
X215742160Y-52070000D01*
X217521417Y-52070000D01*
X217612461Y-52051889D01*
X217656749Y-52043080D01*
X217720490Y-52016677D01*
X217784228Y-51990277D01*
X217784229Y-51990276D01*
X217784232Y-51990275D01*
X217898964Y-51913614D01*
X219007706Y-50804872D01*
X219069029Y-50771387D01*
X219107993Y-50769195D01*
X219127349Y-50771172D01*
X219252326Y-50771172D01*
X219252327Y-50771171D01*
X219252327Y-49821173D01*
X219752327Y-49821173D01*
X219752327Y-50771172D01*
X219877299Y-50771172D01*
X219877313Y-50771171D01*
X219980024Y-50760678D01*
X220146446Y-50705531D01*
X220146451Y-50705529D01*
X220295672Y-50613488D01*
X220419642Y-50489518D01*
X220511683Y-50340297D01*
X220511685Y-50340292D01*
X220566832Y-50173870D01*
X220566833Y-50173863D01*
X220577326Y-50071159D01*
X220577327Y-50071146D01*
X220577327Y-49821173D01*
X235602828Y-49821173D01*
X235602828Y-50071159D01*
X235613321Y-50173870D01*
X235668468Y-50340292D01*
X235668470Y-50340297D01*
X235760511Y-50489518D01*
X235884481Y-50613488D01*
X236033702Y-50705529D01*
X236033707Y-50705531D01*
X236200129Y-50760678D01*
X236200136Y-50760679D01*
X236302846Y-50771172D01*
X236427826Y-50771172D01*
X236427827Y-50771171D01*
X236427827Y-49821173D01*
X235602828Y-49821173D01*
X220577327Y-49821173D01*
X219752327Y-49821173D01*
X219252327Y-49821173D01*
X219252327Y-48371173D01*
X219752327Y-48371173D01*
X219752327Y-49321173D01*
X220577326Y-49321173D01*
X235602827Y-49321173D01*
X236427827Y-49321173D01*
X236427827Y-48371173D01*
X236302854Y-48371173D01*
X236302839Y-48371174D01*
X236200129Y-48381667D01*
X236033707Y-48436814D01*
X236033702Y-48436816D01*
X235884481Y-48528857D01*
X235760511Y-48652827D01*
X235668470Y-48802048D01*
X235668468Y-48802053D01*
X235613321Y-48968475D01*
X235613320Y-48968482D01*
X235602827Y-49071186D01*
X235602827Y-49321173D01*
X220577326Y-49321173D01*
X220577326Y-49071201D01*
X220577325Y-49071186D01*
X220566832Y-48968475D01*
X220511685Y-48802053D01*
X220511683Y-48802048D01*
X220419642Y-48652827D01*
X220295672Y-48528857D01*
X220146451Y-48436816D01*
X220146446Y-48436814D01*
X219980024Y-48381667D01*
X219980017Y-48381666D01*
X219877313Y-48371173D01*
X219752327Y-48371173D01*
X219252327Y-48371173D01*
X219246711Y-48365557D01*
X219198797Y-48351488D01*
X219153042Y-48298684D01*
X219151275Y-48294625D01*
X219107348Y-48188575D01*
X219107346Y-48188571D01*
X219107345Y-48188569D01*
X219052847Y-48107007D01*
X219052847Y-48107006D01*
X219030685Y-48073838D01*
X219030679Y-48073831D01*
X218588735Y-47631887D01*
X218473997Y-47555222D01*
X218346522Y-47502421D01*
X218346512Y-47502418D01*
X218211186Y-47475500D01*
X218211184Y-47475500D01*
X218211183Y-47475500D01*
X212105007Y-47475500D01*
X212105003Y-47475500D01*
X211996590Y-47497065D01*
X211996589Y-47497065D01*
X211969681Y-47502418D01*
X211969671Y-47502420D01*
X211933847Y-47517259D01*
X211842191Y-47555223D01*
X211842182Y-47555228D01*
X211787965Y-47591456D01*
X211727458Y-47631885D01*
X211677283Y-47682059D01*
X211615959Y-47715543D01*
X211546267Y-47710557D01*
X211508400Y-47688088D01*
X211400320Y-47594435D01*
X211400312Y-47594430D01*
X211269446Y-47534664D01*
X211269441Y-47534662D01*
X211269440Y-47534662D01*
X211202401Y-47514977D01*
X211202403Y-47514977D01*
X211202398Y-47514976D01*
X211154925Y-47508150D01*
X211059981Y-47494500D01*
X211059979Y-47494500D01*
X207523077Y-47494500D01*
X207456038Y-47474815D01*
X207454187Y-47473603D01*
X207369807Y-47417222D01*
X207242332Y-47364421D01*
X207242322Y-47364418D01*
X207106996Y-47337500D01*
X207106994Y-47337500D01*
X207106993Y-47337500D01*
X195335007Y-47337500D01*
X195335003Y-47337500D01*
X195226590Y-47359065D01*
X195226589Y-47359065D01*
X195199681Y-47364418D01*
X195199671Y-47364420D01*
X195072190Y-47417224D01*
X194987813Y-47473603D01*
X194921136Y-47494480D01*
X194918923Y-47494500D01*
X194342017Y-47494500D01*
X194287968Y-47497397D01*
X194287967Y-47497397D01*
X194261634Y-47500229D01*
X194261607Y-47500232D01*
X194208211Y-47508885D01*
X194208209Y-47508885D01*
X194073404Y-47559166D01*
X194012076Y-47592653D01*
X194012074Y-47592654D01*
X193896903Y-47678869D01*
X193896885Y-47678885D01*
X192915772Y-48659999D01*
X192601321Y-48974450D01*
X192573978Y-49004064D01*
X192561179Y-49019087D01*
X192536294Y-49050771D01*
X192536288Y-49050779D01*
X192469455Y-49178182D01*
X192469450Y-49178193D01*
X192447469Y-49240270D01*
X192446661Y-49242337D01*
X192446130Y-49244046D01*
X192446128Y-49244056D01*
X192417896Y-49385140D01*
X192354803Y-50537375D01*
X192354791Y-50537603D01*
X192354791Y-50537610D01*
X192354615Y-50541038D01*
X192354537Y-50542708D01*
X192354402Y-50545737D01*
X192354403Y-50545746D01*
X192369021Y-50688873D01*
X192369023Y-50688887D01*
X192385938Y-50756659D01*
X192385944Y-50756676D01*
X192385948Y-50756686D01*
X192443648Y-50898103D01*
X192440675Y-50899316D01*
X192453766Y-50951838D01*
X192435411Y-51011810D01*
X192365190Y-51125659D01*
X192365186Y-51125666D01*
X192310001Y-51292203D01*
X192310001Y-51292204D01*
X192310000Y-51292204D01*
X192299500Y-51394983D01*
X192299500Y-52745001D01*
X192299501Y-52745018D01*
X192310000Y-52847796D01*
X192310001Y-52847799D01*
X192348900Y-52965186D01*
X192365186Y-53014334D01*
X192457288Y-53163656D01*
X192581344Y-53287712D01*
X192700911Y-53361461D01*
X192747635Y-53413409D01*
X192758858Y-53482372D01*
X192731014Y-53546454D01*
X192700911Y-53572539D01*
X192581342Y-53646289D01*
X192457289Y-53770342D01*
X192365187Y-53919663D01*
X192365186Y-53919666D01*
X192310001Y-54086203D01*
X192310001Y-54086204D01*
X192310000Y-54086204D01*
X192299500Y-54188983D01*
X192299500Y-55539001D01*
X192299501Y-55539018D01*
X192310000Y-55641796D01*
X192310001Y-55641799D01*
X192333693Y-55713296D01*
X192365186Y-55808334D01*
X192457288Y-55957656D01*
X192581344Y-56081712D01*
X192654105Y-56126591D01*
X192700829Y-56178539D01*
X192712052Y-56247502D01*
X192684208Y-56311584D01*
X192661547Y-56331221D01*
X192662011Y-56331807D01*
X192656343Y-56336288D01*
X192532289Y-56460342D01*
X192440187Y-56609663D01*
X192440186Y-56609666D01*
X192385001Y-56776203D01*
X192385001Y-56776204D01*
X192385000Y-56776204D01*
X192374500Y-56878983D01*
X192374500Y-57847203D01*
X192354815Y-57914242D01*
X192311736Y-57955028D01*
X192192246Y-58022888D01*
X192137016Y-58065689D01*
X192036994Y-58169108D01*
X191970154Y-58296528D01*
X191947926Y-58359303D01*
X191946936Y-58361881D01*
X191918604Y-58503465D01*
X191876924Y-59264653D01*
X191766273Y-61285415D01*
X191746794Y-61641141D01*
X191749639Y-61729000D01*
X191749639Y-61729007D01*
X191749640Y-61729011D01*
X191749774Y-61730127D01*
X191754759Y-61771668D01*
X191772776Y-61857681D01*
X191772778Y-61857689D01*
X191833577Y-61988074D01*
X191833581Y-61988082D01*
X191833584Y-61988087D01*
X191837972Y-61994797D01*
X191871823Y-62046564D01*
X191871828Y-62046571D01*
X191908494Y-62088213D01*
X191938022Y-62151536D01*
X191928627Y-62220771D01*
X191917004Y-62241278D01*
X191865964Y-62314172D01*
X191766097Y-62528335D01*
X191766094Y-62528344D01*
X191704938Y-62756586D01*
X191704936Y-62756596D01*
X191684341Y-62991999D01*
X191684341Y-62992000D01*
X190754000Y-62992000D01*
X190754000Y-46352000D01*
X190773685Y-46284961D01*
X190826489Y-46239206D01*
X190878000Y-46228000D01*
X240668000Y-46228000D01*
X240735039Y-46247685D01*
G37*
%TD.AperFunction*%
%TD*%
%TA.AperFunction,Conductor*%
%TO.N,GND*%
G36*
X199692654Y-70426830D02*
G01*
X199697901Y-70432636D01*
X199999134Y-71157510D01*
X199999144Y-71166463D01*
X199999135Y-71166485D01*
X199999134Y-71166490D01*
X199698882Y-71889000D01*
X199692543Y-71895325D01*
X199683588Y-71895314D01*
X199682400Y-71894739D01*
X199268112Y-71664514D01*
X198438241Y-71203343D01*
X198432674Y-71196329D01*
X198432224Y-71193116D01*
X198432224Y-70808714D01*
X198435651Y-70800441D01*
X198440571Y-70797504D01*
X199683748Y-70425916D01*
X199692654Y-70426830D01*
G37*
%TD.AperFunction*%
%TD*%
M02*
