%TF.GenerationSoftware,KiCad,Pcbnew,8.0.1*%
%TF.CreationDate,2024-04-22T11:34:39+02:00*%
%TF.ProjectId,wuerfel,77756572-6665-46c2-9e6b-696361645f70,rev?*%
%TF.SameCoordinates,Original*%
%TF.FileFunction,Soldermask,Bot*%
%TF.FilePolarity,Negative*%
%FSLAX46Y46*%
G04 Gerber Fmt 4.6, Leading zero omitted, Abs format (unit mm)*
G04 Created by KiCad (PCBNEW 8.0.1) date 2024-04-22 11:34:39*
%MOMM*%
%LPD*%
G01*
G04 APERTURE LIST*
%ADD10C,0.000000*%
%ADD11R,1.700000X1.700000*%
%ADD12O,1.700000X1.700000*%
G04 APERTURE END LIST*
D10*
G36*
X232430000Y-53475001D02*
G01*
X231794999Y-53475001D01*
X231160000Y-53475001D01*
X231160000Y-52840001D01*
X231794999Y-52840001D01*
X232430000Y-52840001D01*
X232430000Y-53475001D01*
G37*
G36*
X229890000Y-53475001D02*
G01*
X229254999Y-53475001D01*
X228619999Y-53475001D01*
X227984999Y-53475001D01*
X227984999Y-54110001D01*
X227349999Y-54110001D01*
X227349999Y-53475001D01*
X226714999Y-53475001D01*
X226714999Y-52840001D01*
X227349999Y-52840001D01*
X227984999Y-52840001D01*
X228619999Y-52840001D01*
X229254999Y-52840001D01*
X229890000Y-52840001D01*
X229890000Y-53475001D01*
G37*
G36*
X226079999Y-53475001D02*
G01*
X226079999Y-54110001D01*
X225445000Y-54110001D01*
X225445000Y-53475001D01*
X225445000Y-52840001D01*
X226079999Y-52840001D01*
X226079999Y-53475001D01*
G37*
G36*
X224810000Y-54110001D02*
G01*
X224175000Y-54110001D01*
X224175000Y-53475001D01*
X224810000Y-53475001D01*
X224810000Y-54110001D01*
G37*
G36*
X231160000Y-54110001D02*
G01*
X231794999Y-54110001D01*
X231794999Y-54745001D01*
X231160000Y-54745001D01*
X230524999Y-54745001D01*
X230524999Y-54110001D01*
X229890000Y-54110001D01*
X229890000Y-53475001D01*
X230524999Y-53475001D01*
X231160000Y-53475001D01*
X231160000Y-54110001D01*
G37*
G36*
X227349999Y-54745001D02*
G01*
X227349999Y-55380001D01*
X226714999Y-55380001D01*
X226714999Y-54745001D01*
X226714999Y-54110001D01*
X227349999Y-54110001D01*
X227349999Y-54745001D01*
G37*
G36*
X237509999Y-53475001D02*
G01*
X237509999Y-54110001D01*
X237509999Y-54745001D01*
X237509999Y-55380001D01*
X237509999Y-56015001D01*
X237509999Y-56650001D01*
X237509999Y-57285001D01*
X236874999Y-57285001D01*
X236239999Y-57285001D01*
X235604999Y-57285001D01*
X234969999Y-57285001D01*
X234334999Y-57285001D01*
X233699999Y-57285001D01*
X233064999Y-57285001D01*
X233064999Y-56650001D01*
X233064999Y-56015001D01*
X233064999Y-55380001D01*
X233064999Y-54745001D01*
X233064999Y-54110001D01*
X233064999Y-53475001D01*
X233699999Y-53475001D01*
X233699999Y-54110001D01*
X233699999Y-54745001D01*
X233699999Y-55380001D01*
X233699999Y-56015001D01*
X233699999Y-56650001D01*
X234334999Y-56650001D01*
X234969999Y-56650001D01*
X235604999Y-56650001D01*
X236239999Y-56650001D01*
X236874999Y-56650001D01*
X236874999Y-56015001D01*
X236874999Y-55380001D01*
X236874999Y-54745001D01*
X236874999Y-54110001D01*
X236874999Y-53475001D01*
X236239999Y-53475001D01*
X235604999Y-53475001D01*
X234969999Y-53475001D01*
X234334999Y-53475001D01*
X233699999Y-53475001D01*
X233064999Y-53475001D01*
X233064999Y-52840001D01*
X233699999Y-52840001D01*
X234334999Y-52840001D01*
X234969999Y-52840001D01*
X235604999Y-52840001D01*
X236239999Y-52840001D01*
X236874999Y-52840001D01*
X237509999Y-52840001D01*
X237509999Y-53475001D01*
G37*
G36*
X236239999Y-54745001D02*
G01*
X236239999Y-55380001D01*
X236239999Y-56015001D01*
X235604999Y-56015001D01*
X234969999Y-56015001D01*
X234334999Y-56015001D01*
X234334999Y-55380001D01*
X234334999Y-54745001D01*
X234334999Y-54110001D01*
X234969999Y-54110001D01*
X235604999Y-54110001D01*
X236239999Y-54110001D01*
X236239999Y-54745001D01*
G37*
G36*
X228619999Y-57285001D02*
G01*
X227984999Y-57285001D01*
X227984999Y-56650001D01*
X228619999Y-56650001D01*
X228619999Y-57285001D01*
G37*
G36*
X227349999Y-56650001D02*
G01*
X227349999Y-57285001D01*
X226714999Y-57285001D01*
X226714999Y-56650001D01*
X226079999Y-56650001D01*
X226079999Y-56015001D01*
X226714999Y-56015001D01*
X227349999Y-56015001D01*
X227349999Y-56650001D01*
G37*
G36*
X226079999Y-55380001D02*
G01*
X225445000Y-55380001D01*
X225445000Y-56015001D01*
X225445000Y-56650001D01*
X224810000Y-56650001D01*
X224810000Y-57285001D01*
X224175000Y-57285001D01*
X224175000Y-56650001D01*
X224175000Y-56015001D01*
X224810000Y-56015001D01*
X224810000Y-55380001D01*
X224175000Y-55380001D01*
X224175000Y-54745001D01*
X224810000Y-54745001D01*
X225445000Y-54745001D01*
X226079999Y-54745001D01*
X226079999Y-55380001D01*
G37*
G36*
X223540000Y-53475001D02*
G01*
X223540000Y-54110001D01*
X223540000Y-54745001D01*
X223540000Y-55380001D01*
X223540000Y-56015001D01*
X223540000Y-56650001D01*
X223540000Y-57285001D01*
X222905000Y-57285001D01*
X222270000Y-57285001D01*
X221635000Y-57285001D01*
X221000000Y-57285001D01*
X220365000Y-57285001D01*
X219730000Y-57285001D01*
X219095000Y-57285001D01*
X219095000Y-56650001D01*
X219095000Y-56015001D01*
X219095000Y-55380001D01*
X219095000Y-54745001D01*
X219095000Y-54110001D01*
X219095000Y-53475001D01*
X219730000Y-53475001D01*
X219730000Y-54110001D01*
X219730000Y-54745001D01*
X219730000Y-55380001D01*
X219730000Y-56015001D01*
X219730000Y-56650001D01*
X220365000Y-56650001D01*
X221000000Y-56650001D01*
X221635000Y-56650001D01*
X222270000Y-56650001D01*
X222905000Y-56650001D01*
X222905000Y-56015001D01*
X222905000Y-55380001D01*
X222905000Y-54745001D01*
X222905000Y-54110001D01*
X222905000Y-53475001D01*
X222270000Y-53475001D01*
X221635000Y-53475001D01*
X221000000Y-53475001D01*
X220365000Y-53475001D01*
X219730000Y-53475001D01*
X219095000Y-53475001D01*
X219095000Y-52840001D01*
X219730000Y-52840001D01*
X220365000Y-52840001D01*
X221000000Y-52840001D01*
X221635000Y-52840001D01*
X222270000Y-52840001D01*
X222905000Y-52840001D01*
X223540000Y-52840001D01*
X223540000Y-53475001D01*
G37*
G36*
X222270000Y-54745001D02*
G01*
X222270000Y-55380001D01*
X222270000Y-56015001D01*
X221635000Y-56015001D01*
X221000000Y-56015001D01*
X220365000Y-56015001D01*
X220365000Y-55380001D01*
X220365000Y-54745001D01*
X220365000Y-54110001D01*
X221000000Y-54110001D01*
X221635000Y-54110001D01*
X222270000Y-54110001D01*
X222270000Y-54745001D01*
G37*
G36*
X229254999Y-54745001D02*
G01*
X229254999Y-55380001D01*
X229254999Y-56015001D01*
X229890000Y-56015001D01*
X229890000Y-55380001D01*
X229890000Y-54745001D01*
X230524999Y-54745001D01*
X230524999Y-55380001D01*
X231794999Y-55380001D01*
X231794999Y-54745001D01*
X232430000Y-54745001D01*
X232430000Y-55380001D01*
X232430000Y-56015001D01*
X232430000Y-56650001D01*
X232430000Y-57285001D01*
X232430000Y-57920001D01*
X231794999Y-57920001D01*
X231794999Y-57285001D01*
X231794999Y-56650001D01*
X231794999Y-56015001D01*
X231160000Y-56015001D01*
X231160000Y-56650001D01*
X231160000Y-57285001D01*
X230524999Y-57285001D01*
X230524999Y-56650001D01*
X230524999Y-56015001D01*
X229890000Y-56015001D01*
X229890000Y-56650001D01*
X229890000Y-57285001D01*
X229254999Y-57285001D01*
X229254999Y-56650001D01*
X228619999Y-56650001D01*
X228619999Y-56015001D01*
X227984999Y-56015001D01*
X227349999Y-56015001D01*
X227349999Y-55380001D01*
X227984999Y-55380001D01*
X227984999Y-54745001D01*
X228619999Y-54745001D01*
X228619999Y-54110001D01*
X229254999Y-54110001D01*
X229254999Y-54745001D01*
G37*
G36*
X229254999Y-57920001D02*
G01*
X228619999Y-57920001D01*
X228619999Y-57285001D01*
X229254999Y-57285001D01*
X229254999Y-57920001D01*
G37*
G36*
X227984999Y-57920001D02*
G01*
X227349999Y-57920001D01*
X227349999Y-57285001D01*
X227984999Y-57285001D01*
X227984999Y-57920001D01*
G37*
G36*
X236874999Y-58555001D02*
G01*
X236239999Y-58555001D01*
X236239999Y-57920001D01*
X236874999Y-57920001D01*
X236874999Y-58555001D01*
G37*
G36*
X235604999Y-58555001D02*
G01*
X234969999Y-58555001D01*
X234969999Y-57920001D01*
X235604999Y-57920001D01*
X235604999Y-58555001D01*
G37*
G36*
X233064999Y-58555001D02*
G01*
X232430000Y-58555001D01*
X232430000Y-57920001D01*
X233064999Y-57920001D01*
X233064999Y-58555001D01*
G37*
G36*
X230524999Y-58555001D02*
G01*
X229890000Y-58555001D01*
X229890000Y-57920001D01*
X230524999Y-57920001D01*
X230524999Y-58555001D01*
G37*
G36*
X237509999Y-59190001D02*
G01*
X236874999Y-59190001D01*
X236874999Y-58555001D01*
X237509999Y-58555001D01*
X237509999Y-59190001D01*
G37*
G36*
X234334999Y-58555001D02*
G01*
X234969999Y-58555001D01*
X234969999Y-59190001D01*
X234969999Y-59825000D01*
X234334999Y-59825000D01*
X234334999Y-59190001D01*
X233699999Y-59190001D01*
X233064999Y-59190001D01*
X233064999Y-58555001D01*
X233699999Y-58555001D01*
X233699999Y-57920001D01*
X234334999Y-57920001D01*
X234334999Y-58555001D01*
G37*
G36*
X226079999Y-59190001D02*
G01*
X226079999Y-59825000D01*
X225445000Y-59825000D01*
X225445000Y-59190001D01*
X225445000Y-58555001D01*
X226079999Y-58555001D01*
X226079999Y-59190001D01*
G37*
G36*
X236874999Y-60460000D02*
G01*
X236239999Y-60460000D01*
X236239999Y-59825000D01*
X236874999Y-59825000D01*
X236874999Y-60460000D01*
G37*
G36*
X232430000Y-59190001D02*
G01*
X232430000Y-59825000D01*
X232430000Y-60460000D01*
X231794999Y-60460000D01*
X231160000Y-60460000D01*
X230524999Y-60460000D01*
X230524999Y-59825000D01*
X231160000Y-59825000D01*
X231794999Y-59825000D01*
X231794999Y-59190001D01*
X231160000Y-59190001D01*
X231160000Y-58555001D01*
X231794999Y-58555001D01*
X232430000Y-58555001D01*
X232430000Y-59190001D01*
G37*
G36*
X235604999Y-60460000D02*
G01*
X236239999Y-60460000D01*
X236239999Y-61095000D01*
X235604999Y-61095000D01*
X234969999Y-61095000D01*
X234969999Y-60460000D01*
X234969999Y-59825000D01*
X235604999Y-59825000D01*
X235604999Y-60460000D01*
G37*
G36*
X237509999Y-61730000D02*
G01*
X236874999Y-61730000D01*
X236874999Y-61095000D01*
X237509999Y-61095000D01*
X237509999Y-61730000D01*
G37*
G36*
X226079999Y-57285001D02*
G01*
X226714999Y-57285001D01*
X226714999Y-57920001D01*
X227349999Y-57920001D01*
X227349999Y-58555001D01*
X227984999Y-58555001D01*
X227984999Y-57920001D01*
X228619999Y-57920001D01*
X228619999Y-58555001D01*
X229254999Y-58555001D01*
X229254999Y-59190001D01*
X229890000Y-59190001D01*
X229890000Y-59825000D01*
X229890000Y-60460000D01*
X229890000Y-61095000D01*
X230524999Y-61095000D01*
X231160000Y-61095000D01*
X231160000Y-61730000D01*
X230524999Y-61730000D01*
X229890000Y-61730000D01*
X229254999Y-61730000D01*
X229254999Y-61095000D01*
X229254999Y-60460000D01*
X228619999Y-60460000D01*
X228619999Y-61095000D01*
X227984999Y-61095000D01*
X227984999Y-60460000D01*
X227984999Y-59825000D01*
X228619999Y-59825000D01*
X228619999Y-59190001D01*
X227984999Y-59190001D01*
X227349999Y-59190001D01*
X227349999Y-59825000D01*
X227349999Y-60460000D01*
X226714999Y-60460000D01*
X226714999Y-59825000D01*
X226714999Y-59190001D01*
X226714999Y-58555001D01*
X226079999Y-58555001D01*
X226079999Y-57920001D01*
X225445000Y-57920001D01*
X225445000Y-58555001D01*
X224810000Y-58555001D01*
X224175000Y-58555001D01*
X224175000Y-59190001D01*
X224175000Y-59825000D01*
X223540000Y-59825000D01*
X222905000Y-59825000D01*
X222905000Y-59190001D01*
X223540000Y-59190001D01*
X223540000Y-58555001D01*
X222905000Y-58555001D01*
X222905000Y-57920001D01*
X223540000Y-57920001D01*
X224175000Y-57920001D01*
X224810000Y-57920001D01*
X224810000Y-57285001D01*
X225445000Y-57285001D01*
X225445000Y-56650001D01*
X226079999Y-56650001D01*
X226079999Y-57285001D01*
G37*
G36*
X226079999Y-62365000D02*
G01*
X225445000Y-62365000D01*
X224810000Y-62365000D01*
X224810000Y-61730000D01*
X225445000Y-61730000D01*
X226079999Y-61730000D01*
X226079999Y-62365000D01*
G37*
G36*
X236874999Y-63000000D02*
G01*
X236239999Y-63000000D01*
X236239999Y-62365000D01*
X236874999Y-62365000D01*
X236874999Y-63000000D01*
G37*
G36*
X224810000Y-63000000D02*
G01*
X224175000Y-63000000D01*
X224175000Y-62365000D01*
X224810000Y-62365000D01*
X224810000Y-63000000D01*
G37*
G36*
X225445000Y-63635001D02*
G01*
X224810000Y-63635001D01*
X224810000Y-63000000D01*
X225445000Y-63000000D01*
X225445000Y-63635001D01*
G37*
G36*
X237509999Y-64270000D02*
G01*
X236874999Y-64270000D01*
X236874999Y-63635001D01*
X237509999Y-63635001D01*
X237509999Y-64270000D01*
G37*
G36*
X227349999Y-63635001D02*
G01*
X227349999Y-64270000D01*
X227349999Y-64905001D01*
X226714999Y-64905001D01*
X226714999Y-65540000D01*
X226079999Y-65540000D01*
X226079999Y-64905001D01*
X225445000Y-64905001D01*
X225445000Y-64270000D01*
X226079999Y-64270000D01*
X226714999Y-64270000D01*
X226714999Y-63635001D01*
X226714999Y-63000000D01*
X227349999Y-63000000D01*
X227349999Y-63635001D01*
G37*
G36*
X221000000Y-66175001D02*
G01*
X220365000Y-66175001D01*
X220365000Y-65540000D01*
X221000000Y-65540000D01*
X221000000Y-66175001D01*
G37*
G36*
X221000000Y-63000000D02*
G01*
X221000000Y-63635001D01*
X220365000Y-63635001D01*
X220365000Y-64270000D01*
X219730000Y-64270000D01*
X219730000Y-64905001D01*
X219730000Y-65540000D01*
X219730000Y-66175001D01*
X219095000Y-66175001D01*
X219095000Y-65540000D01*
X219095000Y-64905001D01*
X219095000Y-64270000D01*
X219095000Y-63635001D01*
X219730000Y-63635001D01*
X219730000Y-63000000D01*
X219730000Y-62365000D01*
X220365000Y-62365000D01*
X221000000Y-62365000D01*
X221000000Y-63000000D01*
G37*
G36*
X222270000Y-58555001D02*
G01*
X222270000Y-59190001D01*
X222270000Y-59825000D01*
X221635000Y-59825000D01*
X221635000Y-60460000D01*
X222270000Y-60460000D01*
X222905000Y-60460000D01*
X223540000Y-60460000D01*
X224175000Y-60460000D01*
X224175000Y-59825000D01*
X224810000Y-59825000D01*
X224810000Y-60460000D01*
X225445000Y-60460000D01*
X226079999Y-60460000D01*
X226714999Y-60460000D01*
X226714999Y-61095000D01*
X227349999Y-61095000D01*
X227984999Y-61095000D01*
X227984999Y-61730000D01*
X227349999Y-61730000D01*
X227349999Y-62365000D01*
X226714999Y-62365000D01*
X226714999Y-61730000D01*
X226079999Y-61730000D01*
X226079999Y-61095000D01*
X225445000Y-61095000D01*
X224810000Y-61095000D01*
X224175000Y-61095000D01*
X223540000Y-61095000D01*
X222905000Y-61095000D01*
X222270000Y-61095000D01*
X222270000Y-61730000D01*
X222905000Y-61730000D01*
X223540000Y-61730000D01*
X224175000Y-61730000D01*
X224175000Y-62365000D01*
X223540000Y-62365000D01*
X222905000Y-62365000D01*
X222905000Y-63000000D01*
X223540000Y-63000000D01*
X224175000Y-63000000D01*
X224175000Y-63635001D01*
X224175000Y-64270000D01*
X224175000Y-64905001D01*
X224810000Y-64905001D01*
X224810000Y-65540000D01*
X225445000Y-65540000D01*
X226079999Y-65540000D01*
X226079999Y-66175001D01*
X226079999Y-66810000D01*
X226079999Y-67445000D01*
X225445000Y-67445000D01*
X225445000Y-66810000D01*
X225445000Y-66175001D01*
X224810000Y-66175001D01*
X224810000Y-66810000D01*
X224810000Y-67445000D01*
X224175000Y-67445000D01*
X224175000Y-66810000D01*
X224175000Y-66175001D01*
X223540000Y-66175001D01*
X222905000Y-66175001D01*
X222905000Y-65540000D01*
X222270000Y-65540000D01*
X221635000Y-65540000D01*
X221000000Y-65540000D01*
X221000000Y-64905001D01*
X221635000Y-64905001D01*
X221635000Y-64270000D01*
X221635000Y-63635001D01*
X222270000Y-63635001D01*
X222270000Y-64270000D01*
X222270000Y-64905001D01*
X222905000Y-64905001D01*
X222905000Y-65540000D01*
X223540000Y-65540000D01*
X223540000Y-64905001D01*
X222905000Y-64905001D01*
X222905000Y-64270000D01*
X223540000Y-64270000D01*
X223540000Y-63635001D01*
X222905000Y-63635001D01*
X222270000Y-63635001D01*
X221635000Y-63635001D01*
X221635000Y-63000000D01*
X221635000Y-62365000D01*
X221000000Y-62365000D01*
X221000000Y-61730000D01*
X220365000Y-61730000D01*
X220365000Y-61095000D01*
X221000000Y-61095000D01*
X221000000Y-61730000D01*
X221635000Y-61730000D01*
X221635000Y-61095000D01*
X221000000Y-61095000D01*
X220365000Y-61095000D01*
X220365000Y-60460000D01*
X219730000Y-60460000D01*
X219730000Y-61095000D01*
X219730000Y-61730000D01*
X219730000Y-62365000D01*
X219095000Y-62365000D01*
X219095000Y-61730000D01*
X219095000Y-61095000D01*
X219095000Y-60460000D01*
X219095000Y-59825000D01*
X219730000Y-59825000D01*
X220365000Y-59825000D01*
X221000000Y-59825000D01*
X221000000Y-59190001D01*
X221000000Y-58555001D01*
X220365000Y-58555001D01*
X220365000Y-59190001D01*
X219730000Y-59190001D01*
X219730000Y-58555001D01*
X219095000Y-58555001D01*
X219095000Y-57920001D01*
X219730000Y-57920001D01*
X220365000Y-57920001D01*
X221000000Y-57920001D01*
X221635000Y-57920001D01*
X222270000Y-57920001D01*
X222270000Y-58555001D01*
G37*
G36*
X227984999Y-66810000D02*
G01*
X228619999Y-66810000D01*
X228619999Y-67445000D01*
X228619999Y-68080000D01*
X227984999Y-68080000D01*
X227984999Y-67445000D01*
X227349999Y-67445000D01*
X227349999Y-66810000D01*
X226714999Y-66810000D01*
X226714999Y-66175001D01*
X227349999Y-66175001D01*
X227984999Y-66175001D01*
X227984999Y-66810000D01*
G37*
G36*
X227349999Y-68080000D02*
G01*
X226714999Y-68080000D01*
X226714999Y-67445000D01*
X227349999Y-67445000D01*
X227349999Y-68080000D01*
G37*
G36*
X237509999Y-68715000D02*
G01*
X236874999Y-68715000D01*
X236874999Y-68080000D01*
X237509999Y-68080000D01*
X237509999Y-68715000D01*
G37*
G36*
X236239999Y-71255000D02*
G01*
X235604999Y-71255000D01*
X235604999Y-70620000D01*
X236239999Y-70620000D01*
X236239999Y-71255000D01*
G37*
G36*
X234969999Y-61730000D02*
G01*
X235604999Y-61730000D01*
X236239999Y-61730000D01*
X236239999Y-62365000D01*
X235604999Y-62365000D01*
X234969999Y-62365000D01*
X234969999Y-63000000D01*
X234334999Y-63000000D01*
X234334999Y-63635001D01*
X234969999Y-63635001D01*
X234969999Y-63000000D01*
X235604999Y-63000000D01*
X236239999Y-63000000D01*
X236239999Y-63635001D01*
X236239999Y-64270000D01*
X236239999Y-64905001D01*
X235604999Y-64905001D01*
X235604999Y-64270000D01*
X235604999Y-63635001D01*
X234969999Y-63635001D01*
X234969999Y-64270000D01*
X234969999Y-64905001D01*
X234334999Y-64905001D01*
X233699999Y-64905001D01*
X233699999Y-65540000D01*
X234334999Y-65540000D01*
X234969999Y-65540000D01*
X234969999Y-66175001D01*
X235604999Y-66175001D01*
X235604999Y-65540000D01*
X236239999Y-65540000D01*
X236239999Y-64905001D01*
X236874999Y-64905001D01*
X236874999Y-65540000D01*
X237509999Y-65540000D01*
X237509999Y-66175001D01*
X237509999Y-66810000D01*
X236874999Y-66810000D01*
X236239999Y-66810000D01*
X236239999Y-67445000D01*
X235604999Y-67445000D01*
X234969999Y-67445000D01*
X234969999Y-68080000D01*
X234969999Y-68715000D01*
X235604999Y-68715000D01*
X235604999Y-68080000D01*
X236239999Y-68080000D01*
X236239999Y-68715000D01*
X236239999Y-69350000D01*
X236874999Y-69350000D01*
X236874999Y-69985000D01*
X236874999Y-70620000D01*
X236239999Y-70620000D01*
X236239999Y-69985000D01*
X235604999Y-69985000D01*
X235604999Y-70620000D01*
X234969999Y-70620000D01*
X234969999Y-71255000D01*
X234334999Y-71255000D01*
X233699999Y-71255000D01*
X233064999Y-71255000D01*
X233064999Y-70620000D01*
X232430000Y-70620000D01*
X231794999Y-70620000D01*
X231794999Y-69985000D01*
X233064999Y-69985000D01*
X233064999Y-70620000D01*
X233699999Y-70620000D01*
X233699999Y-69985000D01*
X234334999Y-69985000D01*
X234334999Y-70620000D01*
X234969999Y-70620000D01*
X234969999Y-69985000D01*
X234334999Y-69985000D01*
X233699999Y-69985000D01*
X233064999Y-69985000D01*
X231794999Y-69985000D01*
X231160000Y-69985000D01*
X231160000Y-69350000D01*
X231160000Y-68715000D01*
X231794999Y-68715000D01*
X232430000Y-68715000D01*
X232430000Y-69350000D01*
X233064999Y-69350000D01*
X233699999Y-69350000D01*
X234334999Y-69350000D01*
X234969999Y-69350000D01*
X234969999Y-68715000D01*
X234334999Y-68715000D01*
X233699999Y-68715000D01*
X233064999Y-68715000D01*
X232430000Y-68715000D01*
X231794999Y-68715000D01*
X231794999Y-68080000D01*
X231160000Y-68080000D01*
X230524999Y-68080000D01*
X230524999Y-68715000D01*
X229890000Y-68715000D01*
X229254999Y-68715000D01*
X228619999Y-68715000D01*
X228619999Y-68080000D01*
X229254999Y-68080000D01*
X229254999Y-67445000D01*
X229254999Y-66810000D01*
X229890000Y-66810000D01*
X229890000Y-67445000D01*
X229890000Y-68080000D01*
X230524999Y-68080000D01*
X230524999Y-67445000D01*
X230524999Y-66810000D01*
X229890000Y-66810000D01*
X229890000Y-66175001D01*
X229890000Y-65540000D01*
X230524999Y-65540000D01*
X230524999Y-66175001D01*
X231160000Y-66175001D01*
X231160000Y-66810000D01*
X231794999Y-66810000D01*
X231794999Y-66175001D01*
X232430000Y-66175001D01*
X232430000Y-66810000D01*
X232430000Y-67445000D01*
X232430000Y-68080000D01*
X233064999Y-68080000D01*
X233699999Y-68080000D01*
X234334999Y-68080000D01*
X234334999Y-67445000D01*
X234334999Y-66810000D01*
X234334999Y-66175001D01*
X233699999Y-66175001D01*
X233064999Y-66175001D01*
X232430000Y-66175001D01*
X231794999Y-66175001D01*
X231160000Y-66175001D01*
X231160000Y-65540000D01*
X231794999Y-65540000D01*
X231794999Y-64905001D01*
X231794999Y-64270000D01*
X232430000Y-64270000D01*
X232430000Y-64905001D01*
X233064999Y-64905001D01*
X233064999Y-64270000D01*
X232430000Y-64270000D01*
X232430000Y-63635001D01*
X232430000Y-63000000D01*
X233064999Y-63000000D01*
X233064999Y-63635001D01*
X233699999Y-63635001D01*
X233699999Y-63000000D01*
X233064999Y-63000000D01*
X232430000Y-63000000D01*
X231794999Y-63000000D01*
X231794999Y-63635001D01*
X231794999Y-64270000D01*
X231160000Y-64270000D01*
X231160000Y-64905001D01*
X230524999Y-64905001D01*
X230524999Y-64270000D01*
X229890000Y-64270000D01*
X229254999Y-64270000D01*
X229254999Y-64905001D01*
X229890000Y-64905001D01*
X229890000Y-65540000D01*
X229254999Y-65540000D01*
X229254999Y-66175001D01*
X228619999Y-66175001D01*
X227984999Y-66175001D01*
X227984999Y-65540000D01*
X227349999Y-65540000D01*
X227349999Y-64905001D01*
X227984999Y-64905001D01*
X227984999Y-64270000D01*
X227984999Y-63635001D01*
X228619999Y-63635001D01*
X228619999Y-63000000D01*
X228619999Y-62365000D01*
X228619999Y-61730000D01*
X229254999Y-61730000D01*
X229254999Y-62365000D01*
X229254999Y-63000000D01*
X229890000Y-63000000D01*
X230524999Y-63000000D01*
X230524999Y-63635001D01*
X231160000Y-63635001D01*
X231160000Y-63000000D01*
X231160000Y-62365000D01*
X231794999Y-62365000D01*
X231794999Y-61730000D01*
X233064999Y-61730000D01*
X233064999Y-62365000D01*
X233699999Y-62365000D01*
X234334999Y-62365000D01*
X234334999Y-61730000D01*
X233699999Y-61730000D01*
X233064999Y-61730000D01*
X231794999Y-61730000D01*
X231794999Y-61095000D01*
X232430000Y-61095000D01*
X233064999Y-61095000D01*
X233699999Y-61095000D01*
X234334999Y-61095000D01*
X234969999Y-61095000D01*
X234969999Y-61730000D01*
G37*
G36*
X233699999Y-67445000D02*
G01*
X233064999Y-67445000D01*
X233064999Y-66810000D01*
X233699999Y-66810000D01*
X233699999Y-67445000D01*
G37*
G36*
X231794999Y-71255000D02*
G01*
X231160000Y-71255000D01*
X230524999Y-71255000D01*
X229890000Y-71255000D01*
X229890000Y-70620000D01*
X230524999Y-70620000D01*
X231160000Y-70620000D01*
X231794999Y-70620000D01*
X231794999Y-71255000D01*
G37*
G36*
X225445000Y-68080000D02*
G01*
X225445000Y-68715000D01*
X226079999Y-68715000D01*
X226079999Y-68080000D01*
X226714999Y-68080000D01*
X226714999Y-68715000D01*
X227349999Y-68715000D01*
X227349999Y-69350000D01*
X227984999Y-69350000D01*
X228619999Y-69350000D01*
X229254999Y-69350000D01*
X229254999Y-69985000D01*
X229254999Y-70620000D01*
X229254999Y-71255000D01*
X228619999Y-71255000D01*
X228619999Y-70620000D01*
X228619999Y-69985000D01*
X227984999Y-69985000D01*
X227349999Y-69985000D01*
X227349999Y-70620000D01*
X227984999Y-70620000D01*
X227984999Y-71255000D01*
X227349999Y-71255000D01*
X226714999Y-71255000D01*
X226079999Y-71255000D01*
X226079999Y-70620000D01*
X225445000Y-70620000D01*
X225445000Y-71255000D01*
X224810000Y-71255000D01*
X224175000Y-71255000D01*
X224175000Y-70620000D01*
X224175000Y-69985000D01*
X224175000Y-69350000D01*
X224175000Y-68715000D01*
X224810000Y-68715000D01*
X224810000Y-69350000D01*
X224810000Y-69985000D01*
X225445000Y-69985000D01*
X225445000Y-69350000D01*
X226079999Y-69350000D01*
X226079999Y-69985000D01*
X226714999Y-69985000D01*
X226714999Y-69350000D01*
X226079999Y-69350000D01*
X225445000Y-69350000D01*
X225445000Y-68715000D01*
X224810000Y-68715000D01*
X224175000Y-68715000D01*
X224175000Y-68080000D01*
X224810000Y-68080000D01*
X224810000Y-67445000D01*
X225445000Y-67445000D01*
X225445000Y-68080000D01*
G37*
G36*
X223540000Y-67445000D02*
G01*
X223540000Y-68080000D01*
X223540000Y-68715000D01*
X223540000Y-69350000D01*
X223540000Y-69985000D01*
X223540000Y-70620000D01*
X223540000Y-71255000D01*
X222905000Y-71255000D01*
X222270000Y-71255000D01*
X221635000Y-71255000D01*
X221000000Y-71255000D01*
X220365000Y-71255000D01*
X219730000Y-71255000D01*
X219095000Y-71255000D01*
X219095000Y-70620000D01*
X219095000Y-69985000D01*
X219095000Y-69350000D01*
X219095000Y-68715000D01*
X219095000Y-68080000D01*
X219095000Y-67445000D01*
X219730000Y-67445000D01*
X219730000Y-68080000D01*
X219730000Y-68715000D01*
X219730000Y-69350000D01*
X219730000Y-69985000D01*
X219730000Y-70620000D01*
X220365000Y-70620000D01*
X221000000Y-70620000D01*
X221635000Y-70620000D01*
X222270000Y-70620000D01*
X222905000Y-70620000D01*
X222905000Y-69985000D01*
X222905000Y-69350000D01*
X222905000Y-68715000D01*
X222905000Y-68080000D01*
X222905000Y-67445000D01*
X222270000Y-67445000D01*
X221635000Y-67445000D01*
X221000000Y-67445000D01*
X220365000Y-67445000D01*
X219730000Y-67445000D01*
X219095000Y-67445000D01*
X219095000Y-66810000D01*
X219730000Y-66810000D01*
X220365000Y-66810000D01*
X221000000Y-66810000D01*
X221635000Y-66810000D01*
X222270000Y-66810000D01*
X222905000Y-66810000D01*
X223540000Y-66810000D01*
X223540000Y-67445000D01*
G37*
G36*
X222270000Y-68715000D02*
G01*
X222270000Y-69350000D01*
X222270000Y-69985000D01*
X221635000Y-69985000D01*
X221000000Y-69985000D01*
X220365000Y-69985000D01*
X220365000Y-69350000D01*
X220365000Y-68715000D01*
X220365000Y-68080000D01*
X221000000Y-68080000D01*
X221635000Y-68080000D01*
X222270000Y-68080000D01*
X222270000Y-68715000D01*
G37*
D11*
%TO.C,J1*%
X193040000Y-65532000D03*
D12*
X193040000Y-62992000D03*
%TD*%
M02*
