%TF.GenerationSoftware,KiCad,Pcbnew,8.0.1*%
%TF.CreationDate,2024-04-22T11:34:39+02:00*%
%TF.ProjectId,wuerfel,77756572-6665-46c2-9e6b-696361645f70,rev?*%
%TF.SameCoordinates,Original*%
%TF.FileFunction,Copper,L2,Bot*%
%TF.FilePolarity,Positive*%
%FSLAX46Y46*%
G04 Gerber Fmt 4.6, Leading zero omitted, Abs format (unit mm)*
G04 Created by KiCad (PCBNEW 8.0.1) date 2024-04-22 11:34:39*
%MOMM*%
%LPD*%
G01*
G04 APERTURE LIST*
%ADD10C,0.300000*%
%TA.AperFunction,ComponentPad*%
%ADD11R,1.700000X1.700000*%
%TD*%
%TA.AperFunction,ComponentPad*%
%ADD12O,1.700000X1.700000*%
%TD*%
%TA.AperFunction,ViaPad*%
%ADD13C,1.600000*%
%TD*%
G04 APERTURE END LIST*
D10*
G36*
X196890977Y-50491681D02*
G01*
X196929641Y-50528671D01*
X196982255Y-50630005D01*
X197047432Y-50881196D01*
X197049821Y-51201432D01*
X196989222Y-51453335D01*
X196935085Y-51565867D01*
X196898096Y-51604530D01*
X196807883Y-51651369D01*
X196735186Y-51652586D01*
X196646612Y-51609975D01*
X196607950Y-51572987D01*
X196555335Y-51471650D01*
X196490156Y-51220458D01*
X196487767Y-50900224D01*
X196548367Y-50648320D01*
X196602503Y-50535789D01*
X196639495Y-50497124D01*
X196729706Y-50450286D01*
X196802402Y-50449069D01*
X196890977Y-50491681D01*
G37*
G36*
X212533834Y-48576764D02*
G01*
X212572500Y-48613755D01*
X212618995Y-48703306D01*
X212621246Y-49060939D01*
X212577943Y-49150951D01*
X212540952Y-49189616D01*
X212451225Y-49236203D01*
X212236227Y-49238170D01*
X212203635Y-49222491D01*
X212202076Y-48549717D01*
X212229226Y-48535620D01*
X212444222Y-48533653D01*
X212533834Y-48576764D01*
G37*
G36*
X210916280Y-48378561D02*
G01*
X211086510Y-48489594D01*
X211199660Y-48655678D01*
X211258352Y-48881872D01*
X211204717Y-49104826D01*
X211093687Y-49275053D01*
X210927603Y-49388203D01*
X210701406Y-49446896D01*
X210478452Y-49393261D01*
X210364427Y-49318888D01*
X210369489Y-49318744D01*
X210400762Y-49305790D01*
X210409952Y-49301983D01*
X210416000Y-49305790D01*
X210540524Y-49365696D01*
X210542603Y-49367775D01*
X210558734Y-49374456D01*
X210586320Y-49387728D01*
X210591694Y-49388109D01*
X210596675Y-49390173D01*
X210625939Y-49393055D01*
X210747464Y-49391020D01*
X210750035Y-49391877D01*
X210766599Y-49390699D01*
X210798060Y-49390173D01*
X210803040Y-49388109D01*
X210808415Y-49387728D01*
X210835878Y-49377219D01*
X210978424Y-49303207D01*
X210994987Y-49296347D01*
X211000756Y-49291612D01*
X211003621Y-49290125D01*
X211006218Y-49287130D01*
X211017718Y-49277693D01*
X211089619Y-49202539D01*
X211101581Y-49192165D01*
X211105498Y-49185941D01*
X211107802Y-49183534D01*
X211109317Y-49179874D01*
X211117246Y-49167280D01*
X211177152Y-49042754D01*
X211179230Y-49040677D01*
X211185908Y-49024554D01*
X211199184Y-48996959D01*
X211199565Y-48991583D01*
X211201628Y-48986605D01*
X211204510Y-48957341D01*
X211202475Y-48835817D01*
X211203332Y-48833247D01*
X211202154Y-48816677D01*
X211201628Y-48785220D01*
X211199565Y-48780241D01*
X211199184Y-48774866D01*
X211188675Y-48747403D01*
X211114661Y-48604850D01*
X211107802Y-48588290D01*
X211103068Y-48582522D01*
X211101582Y-48579659D01*
X211098586Y-48577061D01*
X211089147Y-48565559D01*
X211014000Y-48493666D01*
X211003621Y-48481699D01*
X210997392Y-48477778D01*
X210994987Y-48475477D01*
X210991330Y-48473962D01*
X210978735Y-48466034D01*
X210854210Y-48406127D01*
X210852132Y-48404049D01*
X210836000Y-48397367D01*
X210808415Y-48384096D01*
X210803040Y-48383714D01*
X210798060Y-48381651D01*
X210768796Y-48378769D01*
X210647270Y-48380803D01*
X210644700Y-48379947D01*
X210628135Y-48381124D01*
X210596675Y-48381651D01*
X210591694Y-48383714D01*
X210586320Y-48384096D01*
X210558856Y-48394605D01*
X210510600Y-48419660D01*
X210494989Y-48404049D01*
X210459017Y-48389148D01*
X210467133Y-48383619D01*
X210693328Y-48324927D01*
X210916280Y-48378561D01*
G37*
G36*
X210819548Y-48719621D02*
G01*
X210858214Y-48756613D01*
X210905051Y-48846821D01*
X210906268Y-48919520D01*
X210863657Y-49008094D01*
X210826669Y-49046756D01*
X210736455Y-49093596D01*
X210663759Y-49094813D01*
X210575185Y-49052202D01*
X210561359Y-49038974D01*
X210559894Y-48733608D01*
X210568066Y-48725066D01*
X210658279Y-48678227D01*
X210730975Y-48677010D01*
X210819548Y-48719621D01*
G37*
G36*
X210263927Y-49002848D02*
G01*
X210237882Y-48990318D01*
X210204273Y-48925587D01*
X210202205Y-48648312D01*
X210261788Y-48556962D01*
X210263927Y-49002848D01*
G37*
G36*
X194942567Y-48995791D02*
G01*
X194976480Y-49061108D01*
X194977697Y-49133805D01*
X194944630Y-49202541D01*
X194879902Y-49236148D01*
X194593606Y-49238284D01*
X194561076Y-49222634D01*
X194560163Y-48964441D01*
X194872558Y-48962111D01*
X194942567Y-48995791D01*
G37*
G36*
X198299710Y-48995791D02*
G01*
X198333623Y-49061108D01*
X198334840Y-49133805D01*
X198301773Y-49202541D01*
X198237045Y-49236148D01*
X197950749Y-49238284D01*
X197918219Y-49222634D01*
X197917306Y-48964441D01*
X198229701Y-48962111D01*
X198299710Y-48995791D01*
G37*
G36*
X202371138Y-48567219D02*
G01*
X202404661Y-48631786D01*
X202405006Y-48703748D01*
X201995470Y-48623459D01*
X202021532Y-48569283D01*
X202086368Y-48535620D01*
X202301365Y-48533653D01*
X202371138Y-48567219D01*
G37*
G36*
X216585464Y-52117495D02*
G01*
X193026440Y-52117495D01*
X193026440Y-51330092D01*
X193264535Y-51330092D01*
X193286933Y-51384164D01*
X193328317Y-51425548D01*
X193382389Y-51447946D01*
X193411653Y-51450828D01*
X193477758Y-51450629D01*
X193478821Y-51830092D01*
X193501219Y-51884164D01*
X193542603Y-51925548D01*
X193596675Y-51947946D01*
X193655203Y-51947946D01*
X193709275Y-51925548D01*
X193750659Y-51884164D01*
X193773057Y-51830092D01*
X193775939Y-51800828D01*
X193774955Y-51449734D01*
X194336407Y-51448045D01*
X194358984Y-51449650D01*
X194364046Y-51447962D01*
X194369488Y-51447946D01*
X194391704Y-51438743D01*
X194414509Y-51431142D01*
X194418580Y-51427610D01*
X194423560Y-51425548D01*
X194440565Y-51408542D01*
X194458723Y-51392794D01*
X194461132Y-51387975D01*
X194464944Y-51384164D01*
X194474147Y-51361946D01*
X194484897Y-51340447D01*
X194485278Y-51335072D01*
X194487342Y-51330092D01*
X194487342Y-51306043D01*
X194489046Y-51282067D01*
X194487342Y-51274573D01*
X194487342Y-51271564D01*
X194485825Y-51267902D01*
X194482526Y-51253393D01*
X194258398Y-50586542D01*
X194761652Y-50586542D01*
X194764066Y-50730758D01*
X194762830Y-50748161D01*
X194764479Y-50755415D01*
X194764534Y-50758664D01*
X194766050Y-50762325D01*
X194769350Y-50776835D01*
X194835963Y-50969394D01*
X194835963Y-50972948D01*
X194843421Y-50990954D01*
X194852767Y-51017970D01*
X194856297Y-51022040D01*
X194858360Y-51027020D01*
X194877015Y-51049751D01*
X195481971Y-51651905D01*
X194882388Y-51653710D01*
X194828316Y-51676108D01*
X194786932Y-51717492D01*
X194764534Y-51771564D01*
X194764534Y-51830092D01*
X194786932Y-51884164D01*
X194828316Y-51925548D01*
X194882388Y-51947946D01*
X194911652Y-51950828D01*
X195869488Y-51947946D01*
X195900761Y-51934992D01*
X195923559Y-51925549D01*
X195964945Y-51884163D01*
X195987342Y-51830091D01*
X195987342Y-51771565D01*
X195984223Y-51764036D01*
X195980781Y-51755727D01*
X195964945Y-51717492D01*
X195946290Y-51694762D01*
X195119957Y-50872257D01*
X196190223Y-50872257D01*
X196192819Y-51220430D01*
X196190400Y-51236691D01*
X196193076Y-51254786D01*
X196193105Y-51258664D01*
X196193951Y-51260708D01*
X196194702Y-51265781D01*
X196265960Y-51540401D01*
X196266979Y-51554733D01*
X196275367Y-51576653D01*
X196276024Y-51579185D01*
X196276668Y-51580055D01*
X196277488Y-51582196D01*
X196351499Y-51724742D01*
X196358360Y-51741305D01*
X196363094Y-51747074D01*
X196364582Y-51749939D01*
X196367576Y-51752536D01*
X196377014Y-51764036D01*
X196452167Y-51835937D01*
X196462542Y-51847899D01*
X196468765Y-51851816D01*
X196471173Y-51854120D01*
X196474832Y-51855635D01*
X196487427Y-51863564D01*
X196611952Y-51923470D01*
X196614030Y-51925548D01*
X196630152Y-51932226D01*
X196657748Y-51945502D01*
X196663123Y-51945883D01*
X196668102Y-51947946D01*
X196697366Y-51950828D01*
X196818890Y-51948793D01*
X196821461Y-51949650D01*
X196838030Y-51948472D01*
X196869487Y-51947946D01*
X196874465Y-51945883D01*
X196879841Y-51945502D01*
X196907304Y-51934992D01*
X197049844Y-51860984D01*
X197066417Y-51854120D01*
X197072187Y-51849384D01*
X197075048Y-51847899D01*
X197077642Y-51844907D01*
X197089148Y-51835465D01*
X197161043Y-51760315D01*
X197173008Y-51749939D01*
X197176926Y-51743713D01*
X197179230Y-51741306D01*
X197180745Y-51737646D01*
X197188673Y-51725053D01*
X197253815Y-51589645D01*
X197261566Y-51579185D01*
X197269409Y-51557230D01*
X197270611Y-51554733D01*
X197270687Y-51553652D01*
X197271459Y-51551494D01*
X197338327Y-51273525D01*
X197344484Y-51258664D01*
X197346272Y-51240498D01*
X197347189Y-51236691D01*
X197346863Y-51234503D01*
X197347366Y-51229400D01*
X197344769Y-50881226D01*
X197347189Y-50864966D01*
X197344512Y-50846871D01*
X197344484Y-50842993D01*
X197343636Y-50840948D01*
X197342887Y-50835877D01*
X197278190Y-50586542D01*
X197618794Y-50586542D01*
X197621208Y-50730758D01*
X197619972Y-50748161D01*
X197621621Y-50755415D01*
X197621676Y-50758664D01*
X197623192Y-50762325D01*
X197626492Y-50776835D01*
X197693105Y-50969394D01*
X197693105Y-50972948D01*
X197700563Y-50990954D01*
X197709909Y-51017970D01*
X197713439Y-51022040D01*
X197715502Y-51027020D01*
X197734157Y-51049751D01*
X198339113Y-51651905D01*
X197739530Y-51653710D01*
X197685458Y-51676108D01*
X197644074Y-51717492D01*
X197621676Y-51771564D01*
X197621676Y-51830092D01*
X197644074Y-51884164D01*
X197685458Y-51925548D01*
X197739530Y-51947946D01*
X197768794Y-51950828D01*
X198726630Y-51947946D01*
X198757903Y-51934992D01*
X198780701Y-51925549D01*
X198822087Y-51884163D01*
X198844484Y-51830091D01*
X198844484Y-51771565D01*
X198841365Y-51764036D01*
X198837923Y-51755727D01*
X198822087Y-51717492D01*
X198803432Y-51694762D01*
X197972715Y-50867893D01*
X197918488Y-50711137D01*
X197917035Y-50624362D01*
X197959646Y-50535789D01*
X197996636Y-50497125D01*
X198086262Y-50450591D01*
X198372556Y-50448455D01*
X198462404Y-50491679D01*
X198542601Y-50568406D01*
X198596674Y-50590802D01*
X198655200Y-50590802D01*
X198709272Y-50568406D01*
X198750658Y-50527020D01*
X198773054Y-50472948D01*
X198773054Y-50414422D01*
X198750658Y-50360349D01*
X198732003Y-50337619D01*
X198656853Y-50265722D01*
X198646477Y-50253758D01*
X198640251Y-50249839D01*
X198637844Y-50247536D01*
X198634184Y-50246020D01*
X198621591Y-50238093D01*
X198497066Y-50178186D01*
X198494988Y-50176108D01*
X198478856Y-50169426D01*
X198451271Y-50156155D01*
X198445896Y-50155773D01*
X198440916Y-50153710D01*
X198411652Y-50150828D01*
X198077219Y-50153322D01*
X198073270Y-50152006D01*
X198052112Y-50153509D01*
X198025245Y-50153710D01*
X198020264Y-50155773D01*
X198014890Y-50156155D01*
X197987426Y-50166664D01*
X197844882Y-50240674D01*
X197828317Y-50247536D01*
X197822546Y-50252271D01*
X197819684Y-50253758D01*
X197817087Y-50256751D01*
X197805587Y-50266190D01*
X197733689Y-50341339D01*
X197721724Y-50351717D01*
X197717805Y-50357942D01*
X197715503Y-50360349D01*
X197713987Y-50364007D01*
X197706059Y-50376603D01*
X197646152Y-50501127D01*
X197644074Y-50503206D01*
X197637392Y-50519337D01*
X197624121Y-50546923D01*
X197623739Y-50552297D01*
X197621676Y-50557278D01*
X197618794Y-50586542D01*
X197278190Y-50586542D01*
X197271629Y-50561255D01*
X197270611Y-50546923D01*
X197262222Y-50524999D01*
X197261566Y-50522471D01*
X197260921Y-50521601D01*
X197260102Y-50519459D01*
X197186091Y-50376916D01*
X197179230Y-50360349D01*
X197174493Y-50354577D01*
X197173008Y-50351717D01*
X197170015Y-50349121D01*
X197160575Y-50337619D01*
X197085425Y-50265722D01*
X197075049Y-50253758D01*
X197068823Y-50249839D01*
X197066416Y-50247536D01*
X197062756Y-50246020D01*
X197050163Y-50238093D01*
X196925635Y-50178184D01*
X196923559Y-50176108D01*
X196907441Y-50169431D01*
X196879842Y-50156154D01*
X196874464Y-50155771D01*
X196869487Y-50153710D01*
X196840223Y-50150828D01*
X196718697Y-50152862D01*
X196716127Y-50152006D01*
X196699562Y-50153183D01*
X196668102Y-50153710D01*
X196663121Y-50155773D01*
X196657747Y-50156155D01*
X196630283Y-50166664D01*
X196487740Y-50240674D01*
X196471173Y-50247536D01*
X196465401Y-50252272D01*
X196462541Y-50253758D01*
X196459945Y-50256750D01*
X196448443Y-50266191D01*
X196376546Y-50341340D01*
X196364582Y-50351717D01*
X196360663Y-50357942D01*
X196358360Y-50360350D01*
X196356844Y-50364009D01*
X196348917Y-50376603D01*
X196283774Y-50512010D01*
X196276024Y-50522471D01*
X196268180Y-50544425D01*
X196266979Y-50546923D01*
X196266902Y-50548003D01*
X196266131Y-50550162D01*
X196199261Y-50828130D01*
X196193105Y-50842993D01*
X196191316Y-50861158D01*
X196190400Y-50864966D01*
X196190725Y-50867153D01*
X196190223Y-50872257D01*
X195119957Y-50872257D01*
X195115573Y-50867893D01*
X195061346Y-50711137D01*
X195059893Y-50624362D01*
X195102504Y-50535789D01*
X195139494Y-50497125D01*
X195229120Y-50450591D01*
X195515414Y-50448455D01*
X195605262Y-50491679D01*
X195685459Y-50568406D01*
X195739532Y-50590802D01*
X195798058Y-50590802D01*
X195852130Y-50568406D01*
X195893516Y-50527020D01*
X195915912Y-50472948D01*
X195915912Y-50414422D01*
X195893516Y-50360349D01*
X195874861Y-50337619D01*
X195799711Y-50265722D01*
X195789335Y-50253758D01*
X195783109Y-50249839D01*
X195780702Y-50247536D01*
X195777042Y-50246020D01*
X195764449Y-50238093D01*
X195639924Y-50178186D01*
X195637846Y-50176108D01*
X195621714Y-50169426D01*
X195594129Y-50156155D01*
X195588754Y-50155773D01*
X195583774Y-50153710D01*
X195554510Y-50150828D01*
X195220077Y-50153322D01*
X195216128Y-50152006D01*
X195194970Y-50153509D01*
X195168103Y-50153710D01*
X195163122Y-50155773D01*
X195157748Y-50156155D01*
X195130284Y-50166664D01*
X194987740Y-50240674D01*
X194971175Y-50247536D01*
X194965404Y-50252271D01*
X194962542Y-50253758D01*
X194959945Y-50256751D01*
X194948445Y-50266190D01*
X194876547Y-50341339D01*
X194864582Y-50351717D01*
X194860663Y-50357942D01*
X194858361Y-50360349D01*
X194856845Y-50364007D01*
X194848917Y-50376603D01*
X194789010Y-50501127D01*
X194786932Y-50503206D01*
X194780250Y-50519337D01*
X194766979Y-50546923D01*
X194766597Y-50552297D01*
X194764534Y-50557278D01*
X194761652Y-50586542D01*
X194258398Y-50586542D01*
X194113395Y-50155115D01*
X194075048Y-50110901D01*
X194022701Y-50084727D01*
X193964320Y-50080578D01*
X193908796Y-50099086D01*
X193864582Y-50137433D01*
X193838408Y-50189780D01*
X193834259Y-50248161D01*
X193840779Y-50276834D01*
X194134735Y-51151446D01*
X193774123Y-51152531D01*
X193773057Y-50771564D01*
X193750659Y-50717492D01*
X193709275Y-50676108D01*
X193655203Y-50653710D01*
X193596675Y-50653710D01*
X193542603Y-50676108D01*
X193501219Y-50717492D01*
X193478821Y-50771564D01*
X193475939Y-50800828D01*
X193476926Y-51153425D01*
X193382389Y-51153710D01*
X193328317Y-51176108D01*
X193286933Y-51217492D01*
X193264535Y-51271564D01*
X193264535Y-51330092D01*
X193026440Y-51330092D01*
X193026440Y-49415176D01*
X193193107Y-49415176D01*
X193215505Y-49469248D01*
X193256889Y-49510632D01*
X193310961Y-49533030D01*
X193340225Y-49535912D01*
X193461749Y-49533877D01*
X193464320Y-49534734D01*
X193480889Y-49533556D01*
X193512346Y-49533030D01*
X193517324Y-49530967D01*
X193522700Y-49530586D01*
X193550164Y-49520076D01*
X193686054Y-49449521D01*
X193700223Y-49444798D01*
X193707788Y-49438236D01*
X193717907Y-49432983D01*
X193730229Y-49418774D01*
X193744438Y-49406452D01*
X193753760Y-49391642D01*
X193756253Y-49388768D01*
X193757022Y-49386460D01*
X193760103Y-49381566D01*
X193820011Y-49257038D01*
X193822088Y-49254962D01*
X193828764Y-49238844D01*
X193842042Y-49211245D01*
X193842424Y-49205867D01*
X193844486Y-49200890D01*
X193847368Y-49171626D01*
X193846115Y-48600198D01*
X194261654Y-48600198D01*
X194264179Y-49314284D01*
X194262832Y-49333246D01*
X194264261Y-49337534D01*
X194264536Y-49415176D01*
X194286934Y-49469248D01*
X194328318Y-49510632D01*
X194382390Y-49533030D01*
X194440918Y-49533030D01*
X194483082Y-49515564D01*
X194487297Y-49517310D01*
X194514893Y-49530586D01*
X194520268Y-49530967D01*
X194525247Y-49533030D01*
X194554511Y-49535912D01*
X194888943Y-49533417D01*
X194892892Y-49534734D01*
X194914054Y-49533230D01*
X194940918Y-49533030D01*
X194945896Y-49530967D01*
X194951272Y-49530586D01*
X194978736Y-49520076D01*
X195114625Y-49449521D01*
X195128796Y-49444798D01*
X195136362Y-49438235D01*
X195146479Y-49432983D01*
X195158800Y-49418775D01*
X195173011Y-49406451D01*
X195182331Y-49391643D01*
X195184825Y-49388768D01*
X195185594Y-49386458D01*
X195188675Y-49381565D01*
X195206868Y-49343748D01*
X195550250Y-49343748D01*
X195554851Y-49354856D01*
X195572647Y-49397819D01*
X195572648Y-49397820D01*
X195591303Y-49420551D01*
X195685461Y-49510632D01*
X195685462Y-49510633D01*
X195708260Y-49520076D01*
X195739533Y-49533030D01*
X195739534Y-49533030D01*
X195739535Y-49533030D01*
X195798060Y-49533030D01*
X195798061Y-49533030D01*
X195829334Y-49520076D01*
X195852132Y-49510633D01*
X195874863Y-49491978D01*
X195964946Y-49397820D01*
X195987342Y-49343747D01*
X195987342Y-49333246D01*
X196262832Y-49333246D01*
X196281340Y-49388768D01*
X196319687Y-49432983D01*
X196344572Y-49448648D01*
X196469097Y-49508554D01*
X196471175Y-49510632D01*
X196487297Y-49517310D01*
X196514893Y-49530586D01*
X196520268Y-49530967D01*
X196525247Y-49533030D01*
X196554511Y-49535912D01*
X196817770Y-49533503D01*
X196821463Y-49534734D01*
X196841891Y-49533282D01*
X196869489Y-49533030D01*
X196874467Y-49530967D01*
X196879843Y-49530586D01*
X196907307Y-49520076D01*
X197049848Y-49446067D01*
X197066417Y-49439205D01*
X197072187Y-49434469D01*
X197075050Y-49432983D01*
X197077646Y-49429989D01*
X197089148Y-49420550D01*
X197161049Y-49345394D01*
X197173010Y-49335022D01*
X197176927Y-49328798D01*
X197179232Y-49326390D01*
X197180748Y-49322728D01*
X197188675Y-49310137D01*
X197248581Y-49185611D01*
X197250659Y-49183534D01*
X197257337Y-49167411D01*
X197270613Y-49139816D01*
X197270994Y-49134440D01*
X197273057Y-49129462D01*
X197275939Y-49100198D01*
X197273385Y-48694515D01*
X197274761Y-48690388D01*
X197273223Y-48668742D01*
X197273057Y-48642362D01*
X197270994Y-48637383D01*
X197270613Y-48632008D01*
X197260103Y-48604545D01*
X197257846Y-48600198D01*
X197618797Y-48600198D01*
X197621322Y-49314284D01*
X197619975Y-49333246D01*
X197621404Y-49337534D01*
X197621679Y-49415176D01*
X197644077Y-49469248D01*
X197685461Y-49510632D01*
X197739533Y-49533030D01*
X197798061Y-49533030D01*
X197840225Y-49515564D01*
X197844440Y-49517310D01*
X197872036Y-49530586D01*
X197877411Y-49530967D01*
X197882390Y-49533030D01*
X197911654Y-49535912D01*
X198246086Y-49533417D01*
X198250035Y-49534734D01*
X198271197Y-49533230D01*
X198298061Y-49533030D01*
X198303039Y-49530967D01*
X198308415Y-49530586D01*
X198335879Y-49520076D01*
X198471768Y-49449521D01*
X198485939Y-49444798D01*
X198493505Y-49438235D01*
X198503622Y-49432983D01*
X198515943Y-49418775D01*
X198530154Y-49406451D01*
X198539474Y-49391643D01*
X198541968Y-49388768D01*
X198542737Y-49386458D01*
X198545818Y-49381565D01*
X198564011Y-49343748D01*
X198907393Y-49343748D01*
X198911994Y-49354856D01*
X198929790Y-49397819D01*
X198929791Y-49397820D01*
X198948446Y-49420551D01*
X199042604Y-49510632D01*
X199042605Y-49510633D01*
X199065403Y-49520076D01*
X199096676Y-49533030D01*
X199096677Y-49533030D01*
X199096678Y-49533030D01*
X199155203Y-49533030D01*
X199155204Y-49533030D01*
X199186477Y-49520076D01*
X199209275Y-49510633D01*
X199232006Y-49491978D01*
X199322089Y-49397820D01*
X199344485Y-49343747D01*
X199344485Y-49316300D01*
X199344486Y-49285222D01*
X199322089Y-49231149D01*
X199303435Y-49208419D01*
X199209276Y-49118335D01*
X199209275Y-49118334D01*
X199177601Y-49105214D01*
X199155204Y-49095937D01*
X199096676Y-49095937D01*
X199074279Y-49105214D01*
X199042605Y-49118334D01*
X199019874Y-49136989D01*
X198929790Y-49231149D01*
X198910512Y-49277693D01*
X198907393Y-49285222D01*
X198907393Y-49343748D01*
X198564011Y-49343748D01*
X198605724Y-49257039D01*
X198607802Y-49254962D01*
X198614480Y-49238839D01*
X198627756Y-49211244D01*
X198628137Y-49205868D01*
X198630200Y-49200890D01*
X198633082Y-49171626D01*
X198631047Y-49050101D01*
X198631904Y-49047531D01*
X198630726Y-49030961D01*
X198630200Y-48999505D01*
X198628137Y-48994526D01*
X198627756Y-48989151D01*
X198617246Y-48961688D01*
X198546691Y-48825799D01*
X198541968Y-48811628D01*
X198535405Y-48804060D01*
X198530153Y-48793945D01*
X198515946Y-48781624D01*
X198503622Y-48767413D01*
X198488811Y-48758090D01*
X198485938Y-48755598D01*
X198483630Y-48754828D01*
X198478736Y-48751748D01*
X198354210Y-48691841D01*
X198352133Y-48689764D01*
X198336010Y-48683085D01*
X198308415Y-48669810D01*
X198303039Y-48669428D01*
X198298061Y-48667366D01*
X198268797Y-48664484D01*
X197950749Y-48666856D01*
X197916195Y-48650232D01*
X197916158Y-48639846D01*
X197950104Y-48569283D01*
X198014940Y-48535620D01*
X198229937Y-48533653D01*
X198372035Y-48602014D01*
X198430415Y-48606163D01*
X198485937Y-48587656D01*
X198530153Y-48549309D01*
X198556327Y-48496960D01*
X198560476Y-48438580D01*
X198552675Y-48415176D01*
X199478821Y-48415176D01*
X199501219Y-48469248D01*
X199542603Y-48510632D01*
X199596675Y-48533030D01*
X199625939Y-48535912D01*
X199730975Y-48534153D01*
X199819550Y-48576765D01*
X199858214Y-48613755D01*
X199905403Y-48704641D01*
X199907393Y-49415176D01*
X199929791Y-49469248D01*
X199971175Y-49510632D01*
X200025247Y-49533030D01*
X200083775Y-49533030D01*
X200137847Y-49510632D01*
X200179231Y-49469248D01*
X200201629Y-49415176D01*
X200204511Y-49385912D01*
X200202569Y-48692676D01*
X200203333Y-48690387D01*
X200202531Y-48679115D01*
X200201772Y-48407834D01*
X200477549Y-48407834D01*
X200484678Y-48436362D01*
X200835647Y-49410944D01*
X200835618Y-49413379D01*
X200837464Y-49419745D01*
X200837599Y-49422445D01*
X200839272Y-49425978D01*
X200843810Y-49441621D01*
X201000212Y-49824864D01*
X201000861Y-49825529D01*
X201001218Y-49826390D01*
X201019873Y-49849121D01*
X201095028Y-49921022D01*
X201105401Y-49932983D01*
X201111624Y-49936900D01*
X201114033Y-49939205D01*
X201117694Y-49940721D01*
X201130286Y-49948648D01*
X201300607Y-50030586D01*
X201358987Y-50034734D01*
X201414510Y-50016226D01*
X201458725Y-49977879D01*
X201484899Y-49925530D01*
X201489047Y-49867150D01*
X201470539Y-49811628D01*
X201432193Y-49767413D01*
X201407307Y-49751748D01*
X201289471Y-49695059D01*
X201254835Y-49661923D01*
X201142203Y-49385932D01*
X201369946Y-48742898D01*
X201690225Y-48742898D01*
X201692835Y-48756093D01*
X201693107Y-48772319D01*
X201698731Y-48785896D01*
X201701583Y-48800313D01*
X201709821Y-48812670D01*
X201715505Y-48826391D01*
X201725897Y-48836783D01*
X201734048Y-48849009D01*
X201746386Y-48857272D01*
X201756889Y-48867775D01*
X201770465Y-48873398D01*
X201782677Y-48881577D01*
X201810808Y-48890142D01*
X201810956Y-48890171D01*
X201810961Y-48890173D01*
X201810966Y-48890173D01*
X202406461Y-49006918D01*
X202407062Y-49132156D01*
X202373201Y-49202541D01*
X202308368Y-49236203D01*
X202093369Y-49238170D01*
X201951271Y-49169810D01*
X201892891Y-49165662D01*
X201837369Y-49184170D01*
X201793154Y-49222517D01*
X201766979Y-49274866D01*
X201762831Y-49333246D01*
X201781339Y-49388768D01*
X201819686Y-49432983D01*
X201844571Y-49448648D01*
X201969096Y-49508554D01*
X201971174Y-49510632D01*
X201987296Y-49517310D01*
X202014892Y-49530586D01*
X202020267Y-49530967D01*
X202025246Y-49533030D01*
X202054510Y-49535912D01*
X202317770Y-49533503D01*
X202321463Y-49534734D01*
X202341891Y-49533282D01*
X202369489Y-49533030D01*
X202374467Y-49530967D01*
X202379843Y-49530586D01*
X202407307Y-49520076D01*
X202543196Y-49449521D01*
X202557367Y-49444798D01*
X202564933Y-49438235D01*
X202575050Y-49432983D01*
X202587371Y-49418775D01*
X202591521Y-49415176D01*
X202835964Y-49415176D01*
X202858362Y-49469248D01*
X202899746Y-49510632D01*
X202953818Y-49533030D01*
X202983082Y-49535912D01*
X203104606Y-49533877D01*
X203107177Y-49534734D01*
X203123746Y-49533556D01*
X203155203Y-49533030D01*
X203160181Y-49530967D01*
X203165557Y-49530586D01*
X203193021Y-49520076D01*
X203328911Y-49449521D01*
X203343080Y-49444798D01*
X203350645Y-49438236D01*
X203360764Y-49432983D01*
X203373086Y-49418774D01*
X203387295Y-49406452D01*
X203396617Y-49391642D01*
X203399110Y-49388768D01*
X203399879Y-49386460D01*
X203402960Y-49381566D01*
X203462868Y-49257038D01*
X203464945Y-49254962D01*
X203471621Y-49238844D01*
X203484899Y-49211245D01*
X203485281Y-49205867D01*
X203487343Y-49200890D01*
X203490225Y-49171626D01*
X203490068Y-49100198D01*
X203833082Y-49100198D01*
X203834563Y-49151953D01*
X203834260Y-49152864D01*
X203834811Y-49160627D01*
X203835964Y-49200890D01*
X203838025Y-49205867D01*
X203838408Y-49211245D01*
X203848918Y-49238708D01*
X203919474Y-49374599D01*
X203924197Y-49388768D01*
X203930758Y-49396333D01*
X203936012Y-49406452D01*
X203950223Y-49418776D01*
X203962544Y-49432983D01*
X203977351Y-49442304D01*
X203980227Y-49444798D01*
X203982535Y-49445567D01*
X203987429Y-49448648D01*
X204111954Y-49508554D01*
X204114032Y-49510632D01*
X204130154Y-49517310D01*
X204157750Y-49530586D01*
X204163125Y-49530967D01*
X204168104Y-49533030D01*
X204197368Y-49535912D01*
X204460627Y-49533503D01*
X204464320Y-49534734D01*
X204484748Y-49533282D01*
X204512346Y-49533030D01*
X204517324Y-49530967D01*
X204522700Y-49530586D01*
X204550164Y-49520076D01*
X204717907Y-49432983D01*
X204756253Y-49388768D01*
X204763459Y-49367150D01*
X206834260Y-49367150D01*
X206838408Y-49425530D01*
X206864583Y-49477879D01*
X206908798Y-49516226D01*
X206964320Y-49534734D01*
X207022700Y-49530586D01*
X207050164Y-49520076D01*
X207186054Y-49449521D01*
X207200223Y-49444798D01*
X207207788Y-49438236D01*
X207217907Y-49432983D01*
X207230229Y-49418774D01*
X207234378Y-49415176D01*
X207550250Y-49415176D01*
X207572648Y-49469248D01*
X207614032Y-49510632D01*
X207668104Y-49533030D01*
X207697368Y-49535912D01*
X207818892Y-49533877D01*
X207821463Y-49534734D01*
X207838032Y-49533556D01*
X207869489Y-49533030D01*
X207874467Y-49530967D01*
X207879843Y-49530586D01*
X207907307Y-49520076D01*
X208043197Y-49449521D01*
X208057366Y-49444798D01*
X208064931Y-49438236D01*
X208075050Y-49432983D01*
X208087372Y-49418774D01*
X208101581Y-49406452D01*
X208110903Y-49391642D01*
X208113396Y-49388768D01*
X208114165Y-49386460D01*
X208117246Y-49381566D01*
X208177154Y-49257038D01*
X208179231Y-49254962D01*
X208185907Y-49238844D01*
X208199185Y-49211245D01*
X208199567Y-49205867D01*
X208201629Y-49200890D01*
X208204511Y-49171626D01*
X208203258Y-48600198D01*
X208618797Y-48600198D01*
X208621679Y-49415176D01*
X208644077Y-49469248D01*
X208685461Y-49510632D01*
X208739533Y-49533030D01*
X208798061Y-49533030D01*
X208852133Y-49510632D01*
X208893517Y-49469248D01*
X208915915Y-49415176D01*
X208918797Y-49385912D01*
X208916158Y-48639846D01*
X208950104Y-48569283D01*
X209015109Y-48535533D01*
X209158879Y-48533831D01*
X209248120Y-48576764D01*
X209262982Y-48590982D01*
X209264536Y-49415176D01*
X209286934Y-49469248D01*
X209328318Y-49510632D01*
X209382390Y-49533030D01*
X209440918Y-49533030D01*
X209494990Y-49510632D01*
X209536374Y-49469248D01*
X209558772Y-49415176D01*
X209561654Y-49385912D01*
X209560174Y-48600355D01*
X209904510Y-48600355D01*
X209904511Y-48600361D01*
X209907004Y-48934630D01*
X209905688Y-48938580D01*
X209907191Y-48959737D01*
X209907392Y-48986605D01*
X209909455Y-48991585D01*
X209909837Y-48996960D01*
X209920346Y-49024423D01*
X209990902Y-49160314D01*
X209995625Y-49174482D01*
X210002186Y-49182047D01*
X210007440Y-49192166D01*
X210021651Y-49204490D01*
X210033972Y-49218697D01*
X210048779Y-49228018D01*
X210051655Y-49230512D01*
X210053963Y-49231281D01*
X210058857Y-49234362D01*
X210117294Y-49262475D01*
X210091191Y-49279956D01*
X210058726Y-49328655D01*
X210047368Y-49386069D01*
X210058846Y-49443459D01*
X210091412Y-49492089D01*
X210114163Y-49510719D01*
X210331450Y-49652444D01*
X210347581Y-49664397D01*
X210352432Y-49666130D01*
X210354396Y-49667411D01*
X210358029Y-49668129D01*
X210375273Y-49674290D01*
X210641752Y-49738395D01*
X210646769Y-49741406D01*
X210666422Y-49744330D01*
X210690076Y-49750021D01*
X210697367Y-49748935D01*
X210704659Y-49750021D01*
X210733749Y-49745719D01*
X211020131Y-49671408D01*
X211040339Y-49667411D01*
X211044891Y-49664983D01*
X211047153Y-49664397D01*
X211050130Y-49662190D01*
X211066287Y-49653577D01*
X211303324Y-49492089D01*
X211303413Y-49491954D01*
X211303545Y-49491867D01*
X211322176Y-49469117D01*
X211463913Y-49251811D01*
X211475853Y-49235697D01*
X211477584Y-49230851D01*
X211478868Y-49228883D01*
X211479588Y-49225241D01*
X211485746Y-49208006D01*
X211549850Y-48941528D01*
X211552861Y-48936511D01*
X211555786Y-48916855D01*
X211561476Y-48893203D01*
X211560390Y-48885912D01*
X211561476Y-48878621D01*
X211557174Y-48849532D01*
X211482867Y-48563160D01*
X211478868Y-48542941D01*
X211476438Y-48538385D01*
X211475853Y-48536127D01*
X211473648Y-48533152D01*
X211465033Y-48516993D01*
X211375730Y-48385912D01*
X211904511Y-48385912D01*
X211906674Y-49319377D01*
X211905689Y-49333246D01*
X211906713Y-49336319D01*
X211907270Y-49576691D01*
X211905689Y-49581436D01*
X211907335Y-49604607D01*
X211907393Y-49629462D01*
X211909455Y-49634440D01*
X211909837Y-49639816D01*
X211920347Y-49667280D01*
X211994355Y-49809821D01*
X212001218Y-49826390D01*
X212005953Y-49832160D01*
X212007440Y-49835023D01*
X212010433Y-49837619D01*
X212019873Y-49849121D01*
X212095028Y-49921022D01*
X212105401Y-49932983D01*
X212111624Y-49936900D01*
X212114033Y-49939205D01*
X212117694Y-49940721D01*
X212130286Y-49948648D01*
X212254811Y-50008554D01*
X212256889Y-50010632D01*
X212273011Y-50017310D01*
X212300607Y-50030586D01*
X212305982Y-50030967D01*
X212310961Y-50033030D01*
X212340225Y-50035912D01*
X212532458Y-50033637D01*
X212535749Y-50034734D01*
X212554927Y-50033371D01*
X212583775Y-50033030D01*
X212588753Y-50030967D01*
X212594129Y-50030586D01*
X212621593Y-50020076D01*
X212789336Y-49932983D01*
X212827682Y-49888768D01*
X212846190Y-49833246D01*
X212842042Y-49774866D01*
X212815868Y-49722517D01*
X212771653Y-49684170D01*
X212716130Y-49665662D01*
X212657750Y-49669810D01*
X212630287Y-49680320D01*
X212522485Y-49736290D01*
X212378713Y-49737992D01*
X212289471Y-49695059D01*
X212250806Y-49658068D01*
X212204438Y-49568762D01*
X212204361Y-49535848D01*
X212460627Y-49533503D01*
X212464320Y-49534734D01*
X212484748Y-49533282D01*
X212512346Y-49533030D01*
X212517324Y-49530967D01*
X212522700Y-49530586D01*
X212550164Y-49520076D01*
X212692705Y-49446067D01*
X212709274Y-49439205D01*
X212715044Y-49434469D01*
X212717907Y-49432983D01*
X212720503Y-49429989D01*
X212732005Y-49420550D01*
X212737146Y-49415176D01*
X213050250Y-49415176D01*
X213072648Y-49469248D01*
X213114032Y-49510632D01*
X213168104Y-49533030D01*
X213197368Y-49535912D01*
X213318892Y-49533877D01*
X213321463Y-49534734D01*
X213338032Y-49533556D01*
X213369489Y-49533030D01*
X213374467Y-49530967D01*
X213379843Y-49530586D01*
X213407307Y-49520076D01*
X213543197Y-49449521D01*
X213557366Y-49444798D01*
X213564931Y-49438236D01*
X213575050Y-49432983D01*
X213587372Y-49418774D01*
X213601581Y-49406452D01*
X213610903Y-49391642D01*
X213613396Y-49388768D01*
X213614165Y-49386460D01*
X213617246Y-49381566D01*
X213677154Y-49257038D01*
X213679231Y-49254962D01*
X213685907Y-49238844D01*
X213699185Y-49211245D01*
X213699567Y-49205867D01*
X213701629Y-49200890D01*
X213704511Y-49171626D01*
X213703112Y-48533485D01*
X213798060Y-48533030D01*
X213852132Y-48510632D01*
X213893516Y-48469248D01*
X213915914Y-48415176D01*
X213915914Y-48385912D01*
X214118797Y-48385912D01*
X214121679Y-49415176D01*
X214144077Y-49469248D01*
X214185461Y-49510632D01*
X214239533Y-49533030D01*
X214298061Y-49533030D01*
X214352133Y-49510632D01*
X214393517Y-49469248D01*
X214415915Y-49415176D01*
X214418797Y-49385912D01*
X214416597Y-48600198D01*
X214833082Y-48600198D01*
X214835964Y-49415176D01*
X214858362Y-49469248D01*
X214899746Y-49510632D01*
X214953818Y-49533030D01*
X215012346Y-49533030D01*
X215066418Y-49510632D01*
X215107802Y-49469248D01*
X215130200Y-49415176D01*
X215133082Y-49385912D01*
X215130443Y-48639846D01*
X215164390Y-48569284D01*
X215229395Y-48535533D01*
X215373165Y-48533831D01*
X215442567Y-48567220D01*
X215476051Y-48631709D01*
X215478822Y-49415176D01*
X215501220Y-49469248D01*
X215542604Y-49510632D01*
X215596676Y-49533030D01*
X215655204Y-49533030D01*
X215709276Y-49510632D01*
X215750660Y-49469248D01*
X215773058Y-49415176D01*
X215775940Y-49385912D01*
X215773301Y-48639846D01*
X215807247Y-48569283D01*
X215872252Y-48535533D01*
X216016022Y-48533831D01*
X216105263Y-48576764D01*
X216119369Y-48590258D01*
X216121679Y-49415176D01*
X216144077Y-49469248D01*
X216185461Y-49510632D01*
X216239533Y-49533030D01*
X216298061Y-49533030D01*
X216352133Y-49510632D01*
X216393517Y-49469248D01*
X216415915Y-49415176D01*
X216418797Y-49385912D01*
X216415915Y-48356648D01*
X216393517Y-48302576D01*
X216352133Y-48261192D01*
X216298061Y-48238794D01*
X216239533Y-48238794D01*
X216185461Y-48261192D01*
X216169266Y-48277386D01*
X216139925Y-48263270D01*
X216137847Y-48261192D01*
X216121715Y-48254510D01*
X216094130Y-48241239D01*
X216088755Y-48240857D01*
X216083775Y-48238794D01*
X216054511Y-48235912D01*
X215862276Y-48238186D01*
X215858986Y-48237090D01*
X215839813Y-48238452D01*
X215810961Y-48238794D01*
X215805980Y-48240857D01*
X215800606Y-48241239D01*
X215773142Y-48251748D01*
X215637251Y-48322304D01*
X215626107Y-48326018D01*
X215621593Y-48323177D01*
X215497068Y-48263270D01*
X215494990Y-48261192D01*
X215478858Y-48254510D01*
X215451273Y-48241239D01*
X215445898Y-48240857D01*
X215440918Y-48238794D01*
X215411654Y-48235912D01*
X215219419Y-48238186D01*
X215216129Y-48237090D01*
X215196956Y-48238452D01*
X215168104Y-48238794D01*
X215163123Y-48240857D01*
X215157749Y-48241239D01*
X215130285Y-48251748D01*
X214994393Y-48322304D01*
X214980227Y-48327027D01*
X214972661Y-48333588D01*
X214962543Y-48338842D01*
X214950219Y-48353051D01*
X214936012Y-48365373D01*
X214926692Y-48380178D01*
X214924196Y-48383057D01*
X214923425Y-48385368D01*
X214920347Y-48390259D01*
X214860440Y-48514783D01*
X214858362Y-48516862D01*
X214851680Y-48532993D01*
X214838409Y-48560579D01*
X214838027Y-48565953D01*
X214835964Y-48570934D01*
X214833082Y-48600198D01*
X214416597Y-48600198D01*
X214415915Y-48356648D01*
X214393517Y-48302576D01*
X214352133Y-48261192D01*
X214298061Y-48238794D01*
X214239533Y-48238794D01*
X214185461Y-48261192D01*
X214144077Y-48302576D01*
X214121679Y-48356648D01*
X214118797Y-48385912D01*
X213915914Y-48385912D01*
X213915914Y-48356648D01*
X213893516Y-48302576D01*
X213852132Y-48261192D01*
X213798060Y-48238794D01*
X213768796Y-48235912D01*
X213702460Y-48236230D01*
X213701914Y-47986605D01*
X214050250Y-47986605D01*
X214055594Y-47999505D01*
X214072647Y-48040676D01*
X214072648Y-48040677D01*
X214091303Y-48063408D01*
X214185461Y-48153489D01*
X214185462Y-48153490D01*
X214211645Y-48164335D01*
X214239533Y-48175887D01*
X214239534Y-48175887D01*
X214239535Y-48175887D01*
X214298060Y-48175887D01*
X214298061Y-48175887D01*
X214325949Y-48164335D01*
X214352132Y-48153490D01*
X214374863Y-48134835D01*
X214464946Y-48040677D01*
X214487342Y-47986604D01*
X214487342Y-47969246D01*
X214487343Y-47928079D01*
X214464946Y-47874006D01*
X214446292Y-47851276D01*
X214352133Y-47761192D01*
X214352132Y-47761191D01*
X214320458Y-47748071D01*
X214298061Y-47738794D01*
X214239533Y-47738794D01*
X214217136Y-47748071D01*
X214185462Y-47761191D01*
X214162731Y-47779846D01*
X214072647Y-47874006D01*
X214067716Y-47885912D01*
X214050250Y-47928079D01*
X214050250Y-47986605D01*
X213701914Y-47986605D01*
X213701629Y-47856648D01*
X213679231Y-47802576D01*
X213637847Y-47761192D01*
X213583775Y-47738794D01*
X213525247Y-47738794D01*
X213471175Y-47761192D01*
X213429791Y-47802576D01*
X213407393Y-47856648D01*
X213404511Y-47885912D01*
X213405281Y-48237656D01*
X213168104Y-48238794D01*
X213114032Y-48261192D01*
X213072648Y-48302576D01*
X213050250Y-48356648D01*
X213050250Y-48415176D01*
X213072648Y-48469248D01*
X213114032Y-48510632D01*
X213168104Y-48533030D01*
X213197368Y-48535912D01*
X213405933Y-48534911D01*
X213407241Y-49131785D01*
X213373201Y-49202541D01*
X213307886Y-49236453D01*
X213168104Y-49238794D01*
X213114032Y-49261192D01*
X213072648Y-49302576D01*
X213050250Y-49356648D01*
X213050250Y-49415176D01*
X212737146Y-49415176D01*
X212803906Y-49345394D01*
X212815867Y-49335022D01*
X212819784Y-49328798D01*
X212822089Y-49326390D01*
X212823605Y-49322728D01*
X212831532Y-49310137D01*
X212891438Y-49185611D01*
X212893516Y-49183534D01*
X212900194Y-49167411D01*
X212913470Y-49139816D01*
X212913851Y-49134440D01*
X212915914Y-49129462D01*
X212918796Y-49100198D01*
X212916242Y-48694515D01*
X212917618Y-48690388D01*
X212916080Y-48668742D01*
X212915914Y-48642362D01*
X212913851Y-48637383D01*
X212913470Y-48632008D01*
X212902960Y-48604545D01*
X212828951Y-48462002D01*
X212822088Y-48445433D01*
X212817352Y-48439662D01*
X212815867Y-48436802D01*
X212812875Y-48434207D01*
X212803433Y-48422702D01*
X212728286Y-48350809D01*
X212717907Y-48338842D01*
X212711678Y-48334921D01*
X212709273Y-48332620D01*
X212705616Y-48331105D01*
X212693021Y-48323177D01*
X212568496Y-48263270D01*
X212566418Y-48261192D01*
X212550286Y-48254510D01*
X212522701Y-48241239D01*
X212517326Y-48240857D01*
X212512346Y-48238794D01*
X212483082Y-48235912D01*
X212219821Y-48238320D01*
X212216129Y-48237090D01*
X212195705Y-48238541D01*
X212168104Y-48238794D01*
X212163123Y-48240857D01*
X212157749Y-48241239D01*
X212130285Y-48251748D01*
X212123523Y-48255258D01*
X212083775Y-48238794D01*
X212025247Y-48238794D01*
X211971175Y-48261192D01*
X211929791Y-48302576D01*
X211907393Y-48356648D01*
X211904511Y-48385912D01*
X211375730Y-48385912D01*
X211303545Y-48279957D01*
X211303413Y-48279869D01*
X211303324Y-48279735D01*
X211280573Y-48261105D01*
X211063278Y-48119375D01*
X211047153Y-48107427D01*
X211042303Y-48105694D01*
X211040339Y-48104413D01*
X211036703Y-48103693D01*
X211019462Y-48097534D01*
X210752982Y-48033428D01*
X210747966Y-48030418D01*
X210728312Y-48027493D01*
X210704659Y-48021803D01*
X210697367Y-48022888D01*
X210690076Y-48021803D01*
X210660987Y-48026105D01*
X210374599Y-48100416D01*
X210354396Y-48104413D01*
X210349844Y-48106839D01*
X210347581Y-48107427D01*
X210344600Y-48109635D01*
X210328448Y-48118247D01*
X210091412Y-48279735D01*
X210091323Y-48279867D01*
X210091191Y-48279956D01*
X210072561Y-48302707D01*
X209938668Y-48507983D01*
X209929790Y-48516862D01*
X209924417Y-48529833D01*
X209915868Y-48542940D01*
X209913016Y-48557356D01*
X209907392Y-48570934D01*
X209904510Y-48600198D01*
X209904511Y-48600349D01*
X209904510Y-48600355D01*
X209560174Y-48600355D01*
X209558772Y-47856648D01*
X209536374Y-47802576D01*
X209494990Y-47761192D01*
X209440918Y-47738794D01*
X209382390Y-47738794D01*
X209328318Y-47761192D01*
X209286934Y-47802576D01*
X209264536Y-47856648D01*
X209261654Y-47885912D01*
X209262346Y-48253439D01*
X209236987Y-48241239D01*
X209231612Y-48240857D01*
X209226632Y-48238794D01*
X209197368Y-48235912D01*
X209005133Y-48238186D01*
X209001843Y-48237090D01*
X208982670Y-48238452D01*
X208953818Y-48238794D01*
X208948837Y-48240857D01*
X208943463Y-48241239D01*
X208915999Y-48251748D01*
X208780108Y-48322304D01*
X208765941Y-48327027D01*
X208758375Y-48333588D01*
X208748257Y-48338842D01*
X208735933Y-48353051D01*
X208721726Y-48365373D01*
X208712406Y-48380178D01*
X208709910Y-48383057D01*
X208709139Y-48385368D01*
X208706061Y-48390259D01*
X208646154Y-48514784D01*
X208644077Y-48516862D01*
X208637398Y-48532984D01*
X208624123Y-48560580D01*
X208623741Y-48565955D01*
X208621679Y-48570934D01*
X208618797Y-48600198D01*
X208203258Y-48600198D01*
X208203112Y-48533485D01*
X208298060Y-48533030D01*
X208352132Y-48510632D01*
X208393516Y-48469248D01*
X208415914Y-48415176D01*
X208415914Y-48356648D01*
X208393516Y-48302576D01*
X208352132Y-48261192D01*
X208298060Y-48238794D01*
X208268796Y-48235912D01*
X208202460Y-48236230D01*
X208201629Y-47856648D01*
X208179231Y-47802576D01*
X208137847Y-47761192D01*
X208083775Y-47738794D01*
X208025247Y-47738794D01*
X207971175Y-47761192D01*
X207929791Y-47802576D01*
X207907393Y-47856648D01*
X207904511Y-47885912D01*
X207905281Y-48237656D01*
X207668104Y-48238794D01*
X207614032Y-48261192D01*
X207572648Y-48302576D01*
X207550250Y-48356648D01*
X207550250Y-48415176D01*
X207572648Y-48469248D01*
X207614032Y-48510632D01*
X207668104Y-48533030D01*
X207697368Y-48535912D01*
X207905933Y-48534911D01*
X207907241Y-49131785D01*
X207873201Y-49202541D01*
X207807886Y-49236453D01*
X207668104Y-49238794D01*
X207614032Y-49261192D01*
X207572648Y-49302576D01*
X207550250Y-49356648D01*
X207550250Y-49415176D01*
X207234378Y-49415176D01*
X207244438Y-49406452D01*
X207253760Y-49391642D01*
X207256253Y-49388768D01*
X207257022Y-49386460D01*
X207260103Y-49381566D01*
X207320011Y-49257038D01*
X207322088Y-49254962D01*
X207328764Y-49238844D01*
X207342042Y-49211245D01*
X207342424Y-49205867D01*
X207344486Y-49200890D01*
X207347368Y-49171626D01*
X207344486Y-47856648D01*
X207322088Y-47802576D01*
X207280704Y-47761192D01*
X207226632Y-47738794D01*
X207168104Y-47738794D01*
X207114032Y-47761192D01*
X207072648Y-47802576D01*
X207050250Y-47856648D01*
X207047368Y-47885912D01*
X207050098Y-49131785D01*
X207016058Y-49202541D01*
X206891115Y-49267413D01*
X206852768Y-49311628D01*
X206834260Y-49367150D01*
X204763459Y-49367150D01*
X204774761Y-49333246D01*
X204770613Y-49274866D01*
X204744439Y-49222517D01*
X204700224Y-49184170D01*
X204644701Y-49165662D01*
X204586321Y-49169810D01*
X204558858Y-49180320D01*
X204451225Y-49236203D01*
X204236227Y-49238170D01*
X204166453Y-49204604D01*
X204132133Y-49138503D01*
X204132075Y-49136455D01*
X204164390Y-49069284D01*
X204229395Y-49035533D01*
X204389601Y-49033637D01*
X204392892Y-49034734D01*
X204412070Y-49033371D01*
X204440918Y-49033030D01*
X204445896Y-49030967D01*
X204451272Y-49030586D01*
X204478736Y-49020076D01*
X204614625Y-48949521D01*
X204628796Y-48944798D01*
X204636362Y-48938235D01*
X204646479Y-48932983D01*
X204658800Y-48918775D01*
X204673011Y-48906451D01*
X204682331Y-48891643D01*
X204684825Y-48888768D01*
X204685594Y-48886458D01*
X204688675Y-48881565D01*
X204706868Y-48843748D01*
X205121679Y-48843748D01*
X205144077Y-48897820D01*
X205185461Y-48939204D01*
X205239533Y-48961602D01*
X205268797Y-48964484D01*
X206440918Y-48961602D01*
X206494990Y-48939204D01*
X206536374Y-48897820D01*
X206558772Y-48843748D01*
X206558772Y-48785220D01*
X206536374Y-48731148D01*
X206494990Y-48689764D01*
X206440918Y-48667366D01*
X206411654Y-48664484D01*
X205239533Y-48667366D01*
X205185461Y-48689764D01*
X205144077Y-48731148D01*
X205121679Y-48785220D01*
X205121679Y-48843748D01*
X204706868Y-48843748D01*
X204748581Y-48757039D01*
X204750659Y-48754962D01*
X204757337Y-48738839D01*
X204770613Y-48711244D01*
X204770994Y-48705868D01*
X204773057Y-48700890D01*
X204775939Y-48671626D01*
X204774457Y-48619870D01*
X204774761Y-48618960D01*
X204774209Y-48611196D01*
X204773057Y-48570934D01*
X204770994Y-48565955D01*
X204770613Y-48560580D01*
X204760103Y-48533117D01*
X204689548Y-48397227D01*
X204684825Y-48383057D01*
X204678262Y-48375489D01*
X204673010Y-48365374D01*
X204658803Y-48353053D01*
X204646479Y-48338842D01*
X204631668Y-48329519D01*
X204628795Y-48327027D01*
X204626487Y-48326257D01*
X204621593Y-48323177D01*
X204497068Y-48263270D01*
X204494990Y-48261192D01*
X204478858Y-48254510D01*
X204451273Y-48241239D01*
X204445898Y-48240857D01*
X204440918Y-48238794D01*
X204411654Y-48235912D01*
X204219419Y-48238186D01*
X204216129Y-48237090D01*
X204196956Y-48238452D01*
X204168104Y-48238794D01*
X204163123Y-48240857D01*
X204157749Y-48241239D01*
X204130285Y-48251748D01*
X203962543Y-48338842D01*
X203924196Y-48383057D01*
X203905689Y-48438580D01*
X203909838Y-48496960D01*
X203936012Y-48549309D01*
X203980227Y-48587656D01*
X204035750Y-48606163D01*
X204094130Y-48602014D01*
X204121593Y-48591505D01*
X204229395Y-48535533D01*
X204373165Y-48533831D01*
X204442567Y-48567219D01*
X204476887Y-48633320D01*
X204476945Y-48635369D01*
X204444630Y-48702541D01*
X204379628Y-48736290D01*
X204219419Y-48738186D01*
X204216129Y-48737090D01*
X204196956Y-48738452D01*
X204168104Y-48738794D01*
X204163123Y-48740857D01*
X204157749Y-48741239D01*
X204130285Y-48751748D01*
X203994393Y-48822304D01*
X203980227Y-48827027D01*
X203972661Y-48833588D01*
X203962543Y-48838842D01*
X203950219Y-48853051D01*
X203936012Y-48865373D01*
X203926692Y-48880178D01*
X203924196Y-48883057D01*
X203923425Y-48885368D01*
X203920347Y-48890259D01*
X203860440Y-49014783D01*
X203858362Y-49016862D01*
X203851680Y-49032993D01*
X203838409Y-49060579D01*
X203838027Y-49065953D01*
X203835964Y-49070934D01*
X203833082Y-49100198D01*
X203490068Y-49100198D01*
X203488826Y-48533485D01*
X203583774Y-48533030D01*
X203637846Y-48510632D01*
X203679230Y-48469248D01*
X203701628Y-48415176D01*
X203701628Y-48356648D01*
X203679230Y-48302576D01*
X203637846Y-48261192D01*
X203583774Y-48238794D01*
X203554510Y-48235912D01*
X203488174Y-48236230D01*
X203487343Y-47856648D01*
X203464945Y-47802576D01*
X203423561Y-47761192D01*
X203369489Y-47738794D01*
X203310961Y-47738794D01*
X203256889Y-47761192D01*
X203215505Y-47802576D01*
X203193107Y-47856648D01*
X203190225Y-47885912D01*
X203190995Y-48237656D01*
X202953818Y-48238794D01*
X202899746Y-48261192D01*
X202858362Y-48302576D01*
X202835964Y-48356648D01*
X202835964Y-48415176D01*
X202858362Y-48469248D01*
X202899746Y-48510632D01*
X202953818Y-48533030D01*
X202983082Y-48535912D01*
X203191647Y-48534911D01*
X203192955Y-49131785D01*
X203158915Y-49202541D01*
X203093600Y-49236453D01*
X202953818Y-49238794D01*
X202899746Y-49261192D01*
X202858362Y-49302576D01*
X202835964Y-49356648D01*
X202835964Y-49415176D01*
X202591521Y-49415176D01*
X202601582Y-49406451D01*
X202610902Y-49391643D01*
X202613396Y-49388768D01*
X202614165Y-49386458D01*
X202617246Y-49381565D01*
X202677152Y-49257039D01*
X202679230Y-49254962D01*
X202685908Y-49238839D01*
X202699184Y-49211244D01*
X202699565Y-49205868D01*
X202701628Y-49200890D01*
X202704510Y-49171626D01*
X202703172Y-48892763D01*
X202704511Y-48886069D01*
X202703105Y-48878966D01*
X202701879Y-48623317D01*
X202703332Y-48618960D01*
X202701751Y-48596718D01*
X202701628Y-48570934D01*
X202699565Y-48565955D01*
X202699184Y-48560580D01*
X202688674Y-48533117D01*
X202618119Y-48397227D01*
X202613396Y-48383057D01*
X202606833Y-48375489D01*
X202601581Y-48365374D01*
X202587374Y-48353053D01*
X202575050Y-48338842D01*
X202560239Y-48329519D01*
X202557366Y-48327027D01*
X202555058Y-48326257D01*
X202550164Y-48323177D01*
X202425639Y-48263270D01*
X202423561Y-48261192D01*
X202407429Y-48254510D01*
X202379844Y-48241239D01*
X202374469Y-48240857D01*
X202369489Y-48238794D01*
X202340225Y-48235912D01*
X202076963Y-48238320D01*
X202073271Y-48237090D01*
X202052847Y-48238541D01*
X202025246Y-48238794D01*
X202020265Y-48240857D01*
X202014891Y-48241239D01*
X201987427Y-48251748D01*
X201851536Y-48322304D01*
X201837369Y-48327027D01*
X201829803Y-48333588D01*
X201819685Y-48338842D01*
X201807361Y-48353051D01*
X201793154Y-48365373D01*
X201783834Y-48380178D01*
X201781338Y-48383057D01*
X201780567Y-48385368D01*
X201777489Y-48390259D01*
X201717582Y-48514784D01*
X201715505Y-48516862D01*
X201708826Y-48532984D01*
X201695551Y-48560580D01*
X201695169Y-48565955D01*
X201693107Y-48570934D01*
X201690225Y-48600198D01*
X201692429Y-48731873D01*
X201690225Y-48742898D01*
X201369946Y-48742898D01*
X201488615Y-48407834D01*
X201485708Y-48349379D01*
X201460654Y-48296487D01*
X201417265Y-48257207D01*
X201362147Y-48237522D01*
X201303692Y-48240429D01*
X201250800Y-48265483D01*
X201211520Y-48308872D01*
X201198964Y-48335462D01*
X200983404Y-48944098D01*
X200754644Y-48308872D01*
X200715364Y-48265483D01*
X200662472Y-48240429D01*
X200604017Y-48237522D01*
X200548899Y-48257207D01*
X200505510Y-48296487D01*
X200480456Y-48349379D01*
X200477549Y-48407834D01*
X200201772Y-48407834D01*
X200201629Y-48356648D01*
X200179231Y-48302576D01*
X200137847Y-48261192D01*
X200083775Y-48238794D01*
X200025247Y-48238794D01*
X199971175Y-48261192D01*
X199931779Y-48300587D01*
X199854208Y-48263268D01*
X199852132Y-48261192D01*
X199836014Y-48254515D01*
X199808415Y-48241238D01*
X199803037Y-48240855D01*
X199798060Y-48238794D01*
X199768796Y-48235912D01*
X199596675Y-48238794D01*
X199542603Y-48261192D01*
X199501219Y-48302576D01*
X199478821Y-48356648D01*
X199478821Y-48415176D01*
X198552675Y-48415176D01*
X198541968Y-48383057D01*
X198503622Y-48338842D01*
X198478736Y-48323177D01*
X198354211Y-48263270D01*
X198352133Y-48261192D01*
X198336001Y-48254510D01*
X198308416Y-48241239D01*
X198303041Y-48240857D01*
X198298061Y-48238794D01*
X198268797Y-48235912D01*
X198005535Y-48238320D01*
X198001843Y-48237090D01*
X197981419Y-48238541D01*
X197953818Y-48238794D01*
X197948837Y-48240857D01*
X197943463Y-48241239D01*
X197915999Y-48251748D01*
X197780108Y-48322304D01*
X197765941Y-48327027D01*
X197758375Y-48333588D01*
X197748257Y-48338842D01*
X197735933Y-48353051D01*
X197721726Y-48365373D01*
X197712406Y-48380178D01*
X197709910Y-48383057D01*
X197709139Y-48385368D01*
X197706061Y-48390259D01*
X197646154Y-48514784D01*
X197644077Y-48516862D01*
X197637398Y-48532984D01*
X197624123Y-48560580D01*
X197623741Y-48565955D01*
X197621679Y-48570934D01*
X197618797Y-48600198D01*
X197257846Y-48600198D01*
X197186094Y-48462002D01*
X197179231Y-48445433D01*
X197174495Y-48439662D01*
X197173010Y-48436802D01*
X197170018Y-48434207D01*
X197160576Y-48422702D01*
X197085429Y-48350809D01*
X197075050Y-48338842D01*
X197068821Y-48334921D01*
X197066416Y-48332620D01*
X197062759Y-48331105D01*
X197050164Y-48323177D01*
X196925639Y-48263270D01*
X196923561Y-48261192D01*
X196907429Y-48254510D01*
X196879844Y-48241239D01*
X196874469Y-48240857D01*
X196869489Y-48238794D01*
X196840225Y-48235912D01*
X196576964Y-48238320D01*
X196573272Y-48237090D01*
X196552848Y-48238541D01*
X196525247Y-48238794D01*
X196520266Y-48240857D01*
X196514892Y-48241239D01*
X196487428Y-48251748D01*
X196319686Y-48338842D01*
X196281339Y-48383057D01*
X196262832Y-48438580D01*
X196266981Y-48496960D01*
X196293155Y-48549309D01*
X196337370Y-48587656D01*
X196392893Y-48606163D01*
X196451273Y-48602014D01*
X196478736Y-48591505D01*
X196586369Y-48535620D01*
X196801365Y-48533653D01*
X196890977Y-48576764D01*
X196929643Y-48613755D01*
X196976138Y-48703306D01*
X196978389Y-49060939D01*
X196935086Y-49150951D01*
X196898095Y-49189616D01*
X196808368Y-49236203D01*
X196593370Y-49238170D01*
X196451272Y-49169810D01*
X196392892Y-49165662D01*
X196337370Y-49184170D01*
X196293155Y-49222517D01*
X196266980Y-49274866D01*
X196262832Y-49333246D01*
X195987342Y-49333246D01*
X195987342Y-49316300D01*
X195987343Y-49285222D01*
X195964946Y-49231149D01*
X195946292Y-49208419D01*
X195852133Y-49118335D01*
X195852132Y-49118334D01*
X195820458Y-49105214D01*
X195798061Y-49095937D01*
X195739533Y-49095937D01*
X195717136Y-49105214D01*
X195685462Y-49118334D01*
X195662731Y-49136989D01*
X195572647Y-49231149D01*
X195553369Y-49277693D01*
X195550250Y-49285222D01*
X195550250Y-49343748D01*
X195206868Y-49343748D01*
X195248581Y-49257039D01*
X195250659Y-49254962D01*
X195257337Y-49238839D01*
X195270613Y-49211244D01*
X195270994Y-49205868D01*
X195273057Y-49200890D01*
X195275939Y-49171626D01*
X195273904Y-49050101D01*
X195274761Y-49047531D01*
X195273583Y-49030961D01*
X195273057Y-48999505D01*
X195270994Y-48994526D01*
X195270613Y-48989151D01*
X195260103Y-48961688D01*
X195189548Y-48825799D01*
X195184825Y-48811628D01*
X195178262Y-48804060D01*
X195173010Y-48793945D01*
X195158803Y-48781624D01*
X195146479Y-48767413D01*
X195131668Y-48758090D01*
X195128795Y-48755598D01*
X195126487Y-48754828D01*
X195121593Y-48751748D01*
X194997067Y-48691841D01*
X194994990Y-48689764D01*
X194978867Y-48683085D01*
X194951272Y-48669810D01*
X194945896Y-48669428D01*
X194940918Y-48667366D01*
X194911654Y-48664484D01*
X194593606Y-48666856D01*
X194559052Y-48650232D01*
X194559015Y-48639846D01*
X194592961Y-48569283D01*
X194657797Y-48535620D01*
X194872794Y-48533653D01*
X195014892Y-48602014D01*
X195073272Y-48606163D01*
X195128794Y-48587656D01*
X195173010Y-48549309D01*
X195199184Y-48496960D01*
X195203333Y-48438580D01*
X195184825Y-48383057D01*
X195146479Y-48338842D01*
X195121593Y-48323177D01*
X194997068Y-48263270D01*
X194994990Y-48261192D01*
X194978858Y-48254510D01*
X194951273Y-48241239D01*
X194945898Y-48240857D01*
X194940918Y-48238794D01*
X194911654Y-48235912D01*
X194648392Y-48238320D01*
X194644700Y-48237090D01*
X194624276Y-48238541D01*
X194596675Y-48238794D01*
X194591694Y-48240857D01*
X194586320Y-48241239D01*
X194558856Y-48251748D01*
X194422965Y-48322304D01*
X194408798Y-48327027D01*
X194401232Y-48333588D01*
X194391114Y-48338842D01*
X194378790Y-48353051D01*
X194364583Y-48365373D01*
X194355263Y-48380178D01*
X194352767Y-48383057D01*
X194351996Y-48385368D01*
X194348918Y-48390259D01*
X194289011Y-48514784D01*
X194286934Y-48516862D01*
X194280255Y-48532984D01*
X194266980Y-48560580D01*
X194266598Y-48565955D01*
X194264536Y-48570934D01*
X194261654Y-48600198D01*
X193846115Y-48600198D01*
X193845969Y-48533485D01*
X193940917Y-48533030D01*
X193994989Y-48510632D01*
X194036373Y-48469248D01*
X194058771Y-48415176D01*
X194058771Y-48356648D01*
X194036373Y-48302576D01*
X193994989Y-48261192D01*
X193940917Y-48238794D01*
X193911653Y-48235912D01*
X193845317Y-48236230D01*
X193844486Y-47856648D01*
X193822088Y-47802576D01*
X193780704Y-47761192D01*
X193726632Y-47738794D01*
X193668104Y-47738794D01*
X193614032Y-47761192D01*
X193572648Y-47802576D01*
X193550250Y-47856648D01*
X193547368Y-47885912D01*
X193548138Y-48237656D01*
X193310961Y-48238794D01*
X193256889Y-48261192D01*
X193215505Y-48302576D01*
X193193107Y-48356648D01*
X193193107Y-48415176D01*
X193215505Y-48469248D01*
X193256889Y-48510632D01*
X193310961Y-48533030D01*
X193340225Y-48535912D01*
X193548790Y-48534911D01*
X193550098Y-49131785D01*
X193516058Y-49202541D01*
X193450743Y-49236453D01*
X193310961Y-49238794D01*
X193256889Y-49261192D01*
X193215505Y-49302576D01*
X193193107Y-49356648D01*
X193193107Y-49415176D01*
X193026440Y-49415176D01*
X193026440Y-47572127D01*
X216585464Y-47572127D01*
X216585464Y-52117495D01*
G37*
D11*
%TO.P,J1,1*%
%TO.N,+5V*%
X193040000Y-65532000D03*
D12*
%TO.P,J1,2*%
%TO.N,GND*%
X193040000Y-62992000D03*
%TD*%
D13*
%TO.N,GND*%
X203000000Y-58000000D03*
X200000000Y-71162000D03*
%TD*%
%TA.AperFunction,Conductor*%
%TO.N,GND*%
G36*
X240735039Y-46247685D02*
G01*
X240780794Y-46300489D01*
X240792000Y-46352000D01*
X240792000Y-76076000D01*
X240772315Y-76143039D01*
X240719511Y-76188794D01*
X240668000Y-76200000D01*
X190878000Y-76200000D01*
X190810961Y-76180315D01*
X190765206Y-76127511D01*
X190754000Y-76076000D01*
X190754000Y-66429870D01*
X191689500Y-66429870D01*
X191689501Y-66429876D01*
X191695908Y-66489483D01*
X191746202Y-66624328D01*
X191746206Y-66624335D01*
X191832452Y-66739544D01*
X191832455Y-66739547D01*
X191947664Y-66825793D01*
X191947671Y-66825797D01*
X192082517Y-66876091D01*
X192082516Y-66876091D01*
X192089444Y-66876835D01*
X192142127Y-66882500D01*
X193937872Y-66882499D01*
X193997483Y-66876091D01*
X194132331Y-66825796D01*
X194247546Y-66739546D01*
X194333796Y-66624331D01*
X194384091Y-66489483D01*
X194390500Y-66429873D01*
X194390499Y-64634128D01*
X194384091Y-64574517D01*
X194333796Y-64439669D01*
X194333795Y-64439668D01*
X194333793Y-64439664D01*
X194247547Y-64324455D01*
X194247544Y-64324452D01*
X194132335Y-64238206D01*
X194132328Y-64238202D01*
X194000401Y-64188997D01*
X193944467Y-64147126D01*
X193920050Y-64081662D01*
X193934902Y-64013389D01*
X193956053Y-63985133D01*
X194078108Y-63863078D01*
X194213600Y-63669578D01*
X194313429Y-63455492D01*
X194313432Y-63455486D01*
X194370636Y-63242000D01*
X193473012Y-63242000D01*
X193505925Y-63184993D01*
X193540000Y-63057826D01*
X193540000Y-62926174D01*
X193505925Y-62799007D01*
X193473012Y-62742000D01*
X194370636Y-62742000D01*
X194370635Y-62741999D01*
X194313432Y-62528513D01*
X194313429Y-62528507D01*
X194213600Y-62314422D01*
X194213599Y-62314420D01*
X194078113Y-62120926D01*
X194078108Y-62120920D01*
X193911082Y-61953894D01*
X193717578Y-61818399D01*
X193503492Y-61718570D01*
X193503486Y-61718567D01*
X193290000Y-61661364D01*
X193290000Y-62558988D01*
X193232993Y-62526075D01*
X193105826Y-62492000D01*
X192974174Y-62492000D01*
X192847007Y-62526075D01*
X192790000Y-62558988D01*
X192790000Y-61661364D01*
X192789999Y-61661364D01*
X192576513Y-61718567D01*
X192576507Y-61718570D01*
X192362422Y-61818399D01*
X192362420Y-61818400D01*
X192168926Y-61953886D01*
X192168920Y-61953891D01*
X192001891Y-62120920D01*
X192001886Y-62120926D01*
X191866400Y-62314420D01*
X191866399Y-62314422D01*
X191766570Y-62528507D01*
X191766567Y-62528513D01*
X191709364Y-62741999D01*
X191709364Y-62742000D01*
X192606988Y-62742000D01*
X192574075Y-62799007D01*
X192540000Y-62926174D01*
X192540000Y-63057826D01*
X192574075Y-63184993D01*
X192606988Y-63242000D01*
X191709364Y-63242000D01*
X191766567Y-63455486D01*
X191766570Y-63455492D01*
X191866399Y-63669578D01*
X192001894Y-63863082D01*
X192123946Y-63985134D01*
X192157431Y-64046457D01*
X192152447Y-64116149D01*
X192110575Y-64172082D01*
X192079598Y-64188997D01*
X191947671Y-64238202D01*
X191947664Y-64238206D01*
X191832455Y-64324452D01*
X191832452Y-64324455D01*
X191746206Y-64439664D01*
X191746202Y-64439671D01*
X191695908Y-64574517D01*
X191689501Y-64634116D01*
X191689501Y-64634123D01*
X191689500Y-64634135D01*
X191689500Y-66429870D01*
X190754000Y-66429870D01*
X190754000Y-47579245D01*
X193033558Y-47579245D01*
X193033558Y-52109233D01*
X216575464Y-52109233D01*
X216575464Y-47579245D01*
X193033558Y-47579245D01*
X190754000Y-47579245D01*
X190754000Y-46352000D01*
X190773685Y-46284961D01*
X190826489Y-46239206D01*
X190878000Y-46228000D01*
X240668000Y-46228000D01*
X240735039Y-46247685D01*
G37*
%TD.AperFunction*%
%TD*%
M02*
